SplineFontDB: 3.0
FontName: ShofarDemi-BoldOblique
FullName: Shofar Demi-Bold Oblique
FamilyName: Shofar
Weight: Demi-Bold
Copyright: Copyright 2010-2012 by Yoram Gnat (yoram.gnat@gmail.com). Distributed under the terms of GNU General Public License version 2(http://www.gnu.org/licenses/gpl.html). \n\nAs a special exception, if you create a document which uses this font, and embed this font or unaltered portions of this font into the document, this font does not by itself cause the resulting document to be covered by the GNU General Public License. This exception does not however invalidate any other reasons why the document might be covered by the GNU General Public License. If you modify this font, you may extend this exception to your version of the font, but you are not obligated to do so. If you do not wish to do so, delete this exception statement from your version. \n\n
Version: 0.150yg
ItalicAngle: 13
UnderlinePosition: -1228
UnderlineWidth: 184
Ascent: 1638
Descent: 410
LayerCount: 2
Layer: 0 0 "Back"  1
Layer: 1 0 "Fore"  0
NeedsXUIDChange: 1
UniqueID: 4247518
FSType: 0
OS2Version: 0
OS2_WeightWidthSlopeOnly: 0
OS2_UseTypoMetrics: 0
CreationTime: 1235598109
ModificationTime: 1334840059
PfmFamily: 17
TTFWeight: 600
TTFWidth: 6
LineGap: 184
VLineGap: 0
OS2TypoAscent: 0
OS2TypoAOffset: 1
OS2TypoDescent: 0
OS2TypoDOffset: 1
OS2TypoLinegap: 184
OS2WinAscent: 0
OS2WinAOffset: 1
OS2WinDescent: 150
OS2WinDOffset: 1
HheadAscent: 0
HheadAOffset: 1
HheadDescent: 0
HheadDOffset: 1
OS2Vendor: 'YGNT'
Lookup: 1 1 0 "ccmpZwjZwnOOLinuxBug"  {"ccmpZwjZwnjOOLinuxBug"  } ['ccmp' ('hebr' <'dflt' > ) ]
Lookup: 4 1 0 "ccmpRemoveOldFontsZerojoins"  {"ccmpRemoveOldFontsZerojoins subtable"  } ['ccmp' ('hebr' <'dflt' > ) ]
Lookup: 1 0 0 "ccmpLowEmphasisUnify"  {"ccmpLowEmphasisUnify-1"  } ['ccmp' ('DFLT' <'dflt' > 'hebr' <'dflt' > 'latn' <'dflt' > ) ]
Lookup: 4 1 0 "ccmpHolamHaserOnVav"  {"ccmpHolamHaserOnVav"  } ['ccmp' ('hebr' <'dflt' > ) ]

StartChar: exclam
Encoding: 33 33 1
Width: 562
VWidth: 1900
GlyphClass: 1
Flags: W
HStem: -28 355<166.18 336.413> 1380 20G<-82 36.5>
VStem: -179 377<1103.85 1288.79> 69 365<66.7266 232.713> 136 100<433 599.627>
LayerCount: 2
Fore
SplineSet
198 1102 m 0xe0
 198 1062 186 910 186 826 c 0
 186 720 199 595 236 433 c 1
 136 433 l 1xc8
 72 709 29 790 -105 1041 c 0
 -135 1098 -160 1161 -171 1210 c 0
 -176 1232 -179 1252 -179 1270 c 0
 -179 1353 -128 1400 -36 1400 c 0
 109 1400 198 1275 198 1102 c 0xe0
289 -28 m 0
 188 -28 69 67 69 189 c 0
 69 268 126 327 210 327 c 0
 316 327 434 233 434 110 c 0xd0
 434 30 376 -28 289 -28 c 0
EndSplineSet
EndChar

StartChar: quotedbl
Encoding: 34 34 2
Width: 838
VWidth: 1900
GlyphClass: 1
Flags: W
HStem: 1044 351<-162.668 -8.48972 221.332 375.51>
VStem: -6 161<909.337 1169.5> 378 161<909.337 1169.5>
LayerCount: 2
Fore
SplineSet
284 1395 m 0
 420 1395 539 1259 539 1080 c 0
 539 945 462 820 312 715 c 1
 243 793 l 1
 330 863 378 943 378 1008 c 0
 378 1022 376 1048 364 1048 c 0
 357 1048 349 1044 342 1044 c 0
 240 1044 140 1132 140 1253 c 0
 140 1336 196 1395 284 1395 c 0
-100 1395 m 0
 36 1395 155 1259 155 1080 c 0
 155 945 78 820 -72 715 c 1
 -141 793 l 1
 -54 863 -6 943 -6 1008 c 0
 -6 1022 -8 1048 -20 1048 c 0
 -27 1048 -35 1044 -42 1044 c 0
 -144 1044 -244 1132 -244 1253 c 0
 -244 1336 -188 1395 -100 1395 c 0
EndSplineSet
EndChar

StartChar: numbersign
Encoding: 35 35 3
Width: 1090
VWidth: 1900
GlyphClass: 1
Flags: W
HStem: 0 21G<194.23 367 528.278 701> 418 158<-19 146 331 479 665 830> 781 158<-53 114 301 448 633 796>
LayerCount: 2
Fore
SplineSet
159 418 m 1
 -19 418 l 1
 -55 576 l 1
 146 576 l 1
 130 781 l 1
 -53 781 l 1
 -90 939 l 1
 114 939 l 1
 81 1330 l 1
 252 1330 l 1
 285 939 l 1
 448 939 l 1
 413 1330 l 1
 584 1330 l 1
 619 939 l 1
 796 939 l 1
 833 781 l 1
 633 781 l 1
 652 576 l 1
 830 576 l 1
 866 418 l 1
 665 418 l 1
 701 0 l 1
 530 0 l 1
 494 418 l 1
 331 418 l 1
 367 0 l 1
 196 0 l 1
 159 418 l 1
301 781 m 1
 317 576 l 1
 479 576 l 1
 462 781 l 1
 301 781 l 1
EndSplineSet
EndChar

StartChar: dollar
Encoding: 36 36 4
Width: 1090
VWidth: 1900
GlyphClass: 1
Flags: W
HStem: -23 107<284.681 478 611 701.273> 1226 102<106.501 189>
VStem: -136 203<960.865 1174.6> 472 311<947.878 1145.15> 746 217<135.777 373.202>
LayerCount: 2
Fore
SplineSet
652 887 m 0xf0
 561 887 472 958 472 1058 c 0xf0
 472 1080 477 1103 485 1125 c 1
 492 1138 492 1143 490 1153 c 0
 481 1191 422 1216 323 1226 c 1
 416 823 l 1
 469 808 l 1
 763 724 904 604 950 401 c 0
 959 364 963 328 963 295 c 0xe8
 963 118 840 4 611 -23 c 1
 666 -260 l 1
 556 -260 l 1
 502 -27 l 1
 458 -27 430 -21 394 -13 c 1
 164 31 16 139 -19 291 c 0
 -23 308 -25 325 -25 340 c 0
 -25 418 23 469 103 469 c 0
 199 469 293 399 293 294 c 0
 293 254 279 214 254 190 c 1
 246 180 244 177 246 169 c 0
 256 127 366 78 478 78 c 1
 374 530 l 1
 304 551 l 1
 46 625 -83 733 -125 912 c 0
 -132 945 -136 978 -136 1009 c 0
 -136 1128 -80 1226 23 1282 c 1
 66 1307 101 1317 189 1328 c 1
 145 1522 l 1
 255 1522 l 1
 299 1330 l 1
 554 1330 743 1208 778 1058 c 0
 781 1042 783 1027 783 1013 c 0
 783 938 734 887 652 887 c 0xf0
298 857 m 1
 213 1226 l 1
 116 1209 67 1165 67 1092 c 0
 67 1077 69 1060 73 1043 c 0
 94 954 158 896 272 864 c 1
 298 857 l 1
587 84 m 1
 683 94 746 142 746 237 c 0xe8
 746 252 744 267 741 283 c 0
 717 387 645 452 512 490 c 1
 491 496 l 1
 587 84 l 1
EndSplineSet
EndChar

StartChar: percent
Encoding: 37 37 5
Width: 1582
VWidth: 1900
GlyphClass: 1
Flags: W
HStem: 0 21G<353 456.851> 27 89<1061.43 1258.13> 598 90<76.1251 274.724> 674 99<1138.84 1300.41> 1129 89<434.497 736.736> 1325 20G<65 207> 1352 20G<804 920>
VStem: -171 212<754.706 1052.34> 383 79<826.864 1144.45> 813 212<185.565 478.674> 1372 74<266.931 590.733>
LayerCount: 2
Fore
SplineSet
-171 925 m 0xefe0
 -171 1127 -38 1345 168 1345 c 0
 246 1345 303 1319 367 1254 c 1
 424 1229 481 1218 551 1218 c 0
 692 1218 775 1262 833 1372 c 1
 920 1372 l 1
 450 0 l 1
 353 0 l 1
 748 1163 l 1
 674 1136 630 1129 562 1129 c 0
 514 1129 484 1133 432 1146 c 1
 452 1094 462 1056 462 992 c 0
 462 906 439 815 396 745 c 0
 335 644 255 598 147 598 c 0
 -24 598 -171 731 -171 925 c 0xefe0
41 847 m 0
 41 755 91 688 168 688 c 0
 289 688 383 840 383 1007 c 0
 383 1074 369 1130 344 1178 c 1
 291 1195 257 1214 216 1250 c 1
 152 1225 134 1203 94 1081 c 1
 58 974 41 903 41 847 c 0
1136 27 m 0
 955 27 813 161 813 361 c 0
 813 445 835 533 876 606 c 1
 940 714 1036 773 1150 773 c 0xdfe0
 1317 773 1446 635 1446 439 c 0
 1446 347 1422 249 1377 169 c 1
 1326 80 1237 27 1136 27 c 0
1025 271 m 0
 1025 183 1078 116 1151 116 c 0
 1274 116 1372 270 1372 437 c 0
 1372 468 1369 499 1362 530 c 0
 1343 610 1281 674 1220 674 c 0
 1167 674 1128 635 1093 542 c 0
 1046 421 1025 335 1025 271 c 0
EndSplineSet
EndChar

StartChar: ampersand
Encoding: 38 38 6
Width: 1618
VWidth: 1900
GlyphClass: 1
Flags: W
HStem: -42 169<391 741.477> -30 207<1169.42 1367.91> 673 102<841 1006.98 1209.9 1335> 1302 98<397.514 591.614>
VStem: -14 291<396.038 580.873> 134 244<1062.68 1275.97> 680 206<941.069 1206.67> 1389 104<193.005 314.017>
LayerCount: 2
Fore
SplineSet
1035 542 m 0xb7
 1035 641 976 673 841 673 c 1
 817 775 l 1
 1335 775 l 1
 1359 673 l 1
 1224 673 1189 638 1148 494 c 1
 1118 401 1109 374 1072 302 c 1
 1157 216 1227 177 1295 177 c 0
 1359 177 1389 230 1389 331 c 0
 1389 333 1389 334 1389 336 c 1
 1489 315 l 1
 1492 294 1493 275 1493 258 c 0
 1493 216 1486 180 1472 141 c 0
 1428 21 1352 -30 1219 -30 c 0x77
 1101 -30 993 13 890 97 c 1
 789 11 672 -42 520 -42 c 0
 262 -42 44 132 -4 340 c 0
 -11 368 -14 395 -14 422 c 0xbb
 -14 530 39 624 140 694 c 0
 181 722 215 741 280 773 c 1
 198 887 163 956 142 1047 c 0
 137 1071 134 1096 134 1120 c 0
 134 1312 273 1400 471 1400 c 0
 678 1400 842 1291 879 1129 c 0
 884 1110 886 1090 886 1072 c 0
 886 1011 863 956 821 914 c 1
 771 866 730 840 625 792 c 1
 760 627 926 440 984 391 c 1
 1020 451 1035 499 1035 542 c 0xb7
347 678 m 1
 301 644 277 600 277 543 c 0
 277 527 280 509 284 490 c 0
 296 439 325 382 366 325 c 0
 461 194 566 127 680 127 c 0xbb
 728 127 758 137 797 169 c 1
 617 340 468 509 347 678 c 1
680 1062 m 0
 680 1195 581 1302 482 1302 c 0
 418 1302 378 1257 378 1195 c 0x37
 378 1184 380 1172 382 1159 c 0
 399 1087 444 1013 550 882 c 1
 566 890 569 891 578 895 c 1
 645 933 680 991 680 1062 c 0
EndSplineSet
EndChar

StartChar: quotesingle
Encoding: 39 39 7
Width: 457
VWidth: 1900
GlyphClass: 1
Flags: W
HStem: 1049 351<-161.668 -7.48972>
VStem: -5 161<914.337 1174.5>
LayerCount: 2
Fore
SplineSet
-99 1400 m 0
 37 1400 156 1264 156 1085 c 0
 156 950 79 825 -71 720 c 1
 -140 798 l 1
 -53 868 -5 948 -5 1013 c 0
 -5 1027 -7 1053 -19 1053 c 0
 -26 1053 -34 1049 -41 1049 c 0
 -143 1049 -243 1137 -243 1258 c 0
 -243 1341 -187 1400 -99 1400 c 0
EndSplineSet
EndChar

StartChar: parenleft
Encoding: 40 40 8
Width: 739
VWidth: 1900
GlyphClass: 1
Flags: W
HStem: 1380 20G<263 323.632>
VStem: -23 217<587.958 1049.58>
LayerCount: 2
Fore
SplineSet
341 1305 m 1
 230 1213 194 1117 194 933 c 0
 194 618 323 260 446 78 c 1
 511 -13 564 -64 672 -129 c 1
 694 -224 l 1
 538 -152 437 -82 322 32 c 0
 160 192 46 388 0 589 c 0
 -16 658 -23 725 -23 791 c 0
 -23 933 14 1066 85 1180 c 1
 148 1279 207 1334 319 1400 c 1
 341 1305 l 1
EndSplineSet
EndChar

StartChar: parenright
Encoding: 41 41 9
Width: 739
VWidth: 1900
GlyphClass: 1
Flags: W
HStem: 1380 20G<-223.368 -150.5>
VStem: 272 216<126.425 587.945>
LayerCount: 2
Fore
SplineSet
125 -129 m 1
 235 -37 272 59 272 243 c 0
 272 557 144 917 21 1098 c 1
 -45 1189 -98 1240 -206 1305 c 1
 -228 1400 l 1
 -73 1328 29 1258 144 1144 c 0
 306 984 418 788 464 587 c 0
 480 518 488 451 488 385 c 0
 488 243 452 110 381 -4 c 1
 318 -103 258 -158 147 -224 c 1
 125 -129 l 1
EndSplineSet
EndChar

StartChar: asterisk
Encoding: 42 42 10
Width: 950
VWidth: 1900
GlyphClass: 1
Flags: W
HStem: 478 195<15.1114 162.981 552.81 677.44> 789 194<-68.1743 65.1319 453.663 598.072>
VStem: -29 203<502.508 626.416> 139 191<968.955 1115.31> 285 188<345.041 489.061> 441 201<832.43 958.701>
LayerCount: 2
Fore
SplineSet
285 439 m 0xc8
 285 457 310 549 310 588 c 0
 310 607 307 628 301 652 c 2
 293 688 l 1
 267 670 l 2
 221 637 207 620 174 544 c 0
 157 500 126 478 84 478 c 0
 28 478 -29 525 -29 587 c 0
 -29 618 -14 644 14 658 c 1
 38 668 43 673 117 673 c 0
 165 673 197 688 232 711 c 1
 257 730 l 1
 224 747 l 2
 158 779 140 789 44 789 c 0
 -32 789 -105 842 -105 915 c 0
 -105 954 -74 983 -29 983 c 0xe8
 -5 983 26 972 52 953 c 1
 69 938 70 937 121 880 c 0
 158 840 190 814 240 789 c 2
 274 772 l 1
 262 821 l 2
 251 872 240 889 176 977 c 0
 154 1009 139 1034 139 1072 c 0
 139 1116 168 1148 209 1148 c 0
 266 1148 330 1092 330 1021 c 0
 330 1005 305 913 305 877 c 0
 305 858 306 825 315 808 c 1
 324 772 l 1
 348 789 l 2
 396 824 405 836 441 916 c 0
 460 962 489 983 531 983 c 0
 584 983 642 937 642 874 c 0xd4
 642 843 626 817 599 802 c 0
 579 792 573 793 499 785 c 1
 449 785 420 772 382 747 c 2
 355 730 l 1
 389 713 l 1
 457 681 475 671 569 671 c 0
 646 671 718 616 718 542 c 0
 718 505 692 478 652 478 c 0
 600 478 575 496 492 582 c 1
 457 620 419 645 375 670 c 2
 343 688 l 1
 351 652 l 2
 366 591 369 576 434 483 c 1
 460 450 473 428 473 389 c 0
 473 344 446 312 402 312 c 0
 349 312 285 369 285 439 c 0xc8
EndSplineSet
EndChar

StartChar: plus
Encoding: 43 43 11
Width: 1151
VWidth: 1900
GlyphClass: 1
Flags: W
HStem: 616 219<-45 274 544 861>
LayerCount: 2
Fore
SplineSet
325 616 m 1
 -45 616 l 1
 -96 835 l 1
 274 835 l 1
 189 1206 l 1
 408 1206 l 1
 493 835 l 1
 861 835 l 1
 912 616 l 1
 544 616 l 1
 629 246 l 1
 410 246 l 1
 325 616 l 1
EndSplineSet
Substitution2: "saltStylisticAlternatives subtable" hebrewplussign
EndChar

StartChar: comma
Encoding: 44 44 12
Width: 528
VWidth: 1900
GlyphClass: 1
Flags: W
HStem: -19 348<113.895 271.51>
VStem: 274 161<-158.838 102.5>
LayerCount: 2
Fore
SplineSet
180 329 m 0
 316 329 435 193 435 12 c 0
 435 -123 359 -248 208 -353 c 1
 140 -276 l 1
 226 -205 274 -126 274 -59 c 0
 274 -45 273 -19 260 -19 c 2
 253 -19 l 1
 250 -21 246 -19 238 -19 c 0
 137 -19 36 66 36 187 c 0
 36 269 92 329 180 329 c 0
EndSplineSet
EndChar

StartChar: hyphen
Encoding: 45 45 13
Width: 632
VWidth: 1900
GlyphClass: 1
Flags: W
HStem: 425 247<-18 397>
VStem: -75 529
LayerCount: 2
Fore
SplineSet
-75 672 m 1
 397 672 l 1
 454 425 l 1
 -18 425 l 1
 -75 672 l 1
EndSplineSet
EndChar

StartChar: period
Encoding: 46 46 14
Width: 528
VWidth: 1900
GlyphClass: 1
Flags: W
HStem: -28 357<143.53 314.774>
VStem: 47 366<67.6543 234.225>
LayerCount: 2
Fore
SplineSet
268 -28 m 0
 164 -28 47 68 47 191 c 0
 47 270 103 329 188 329 c 0
 294 329 413 235 413 110 c 0
 413 30 355 -28 268 -28 c 0
EndSplineSet
EndChar

StartChar: slash
Encoding: 47 47 15
Width: 528
VWidth: 1900
GlyphClass: 1
Flags: W
HStem: -28 21G<-38 105.073> 1380 20G<107.927 251>
VStem: -38 289
LayerCount: 2
Fore
SplineSet
110 1400 m 1
 251 1400 l 1
 103 -28 l 1
 -38 -28 l 1
 110 1400 l 1
EndSplineSet
EndChar

StartChar: zero
Encoding: 48 48 16
Width: 1090
VWidth: 1900
GlyphClass: 1
Flags: W
HStem: -27 99<425.983 612.092> 1246 99<170.345 359.766>
VStem: -129 278<810.839 1125.86> 631 282<192.162 508.636>
LayerCount: 2
Fore
SplineSet
234 1345 m 0
 361 1345 488 1288 602 1180 c 1
 746 1039 835 874 887 650 c 0
 905 574 913 501 913 433 c 0
 913 160 775 -27 551 -27 c 0
 266 -27 -10 264 -101 659 c 0
 -120 739 -129 816 -129 886 c 0
 -129 1160 8 1345 234 1345 c 0
526 72 m 0
 592 72 631 115 631 194 c 0
 631 265 599 468 556 656 c 0
 503 884 441 1088 401 1151 c 1
 366 1212 312 1246 255 1246 c 0
 189 1246 149 1204 149 1124 c 0
 149 1053 182 848 226 659 c 0
 278 435 342 230 379 167 c 0
 417 106 467 72 526 72 c 0
EndSplineSet
EndChar

StartChar: one
Encoding: 49 49 17
Width: 1090
VWidth: 1900
GlyphClass: 1
Flags: W
HStem: 0 103<175 367.965 674.698 909> 1108 106<-98 150.125> 1325 20G<278.5 398.631>
LayerCount: 2
Fore
SplineSet
212 103 m 2
 320 103 368 105 368 150 c 0
 368 167 361 198 344 274 c 2
 188 948 l 2
 152 1106 151 1108 -18 1108 c 2
 -98 1108 l 1
 -122 1214 l 1
 102 1214 230 1256 327 1345 c 1
 394 1345 l 1
 642 274 l 2
 669 154 671 146 688 131 c 1
 708 110 751 103 848 103 c 2
 909 103 l 1
 933 0 l 1
 175 0 l 1
 151 103 l 1
 212 103 l 2
EndSplineSet
EndChar

StartChar: two
Encoding: 50 50 18
Width: 1090
VWidth: 1900
GlyphClass: 1
Flags: W
HStem: 0 285<266 772.258> 743 332<16.4881 136.112> 1237 108<53.6504 328.401>
VStem: -153 169<952 1190.09> 459 325<727.029 1078.42> 789 103<443.199 505>
LayerCount: 2
Fore
SplineSet
94 743 m 0
 -38 743 -153 866 -153 1038 c 0
 -153 1216 -1 1345 225 1345 c 0
 493 1345 728 1191 775 988 c 0
 781 961 784 933 784 904 c 0
 784 839 768 772 737 712 c 1
 698 642 648 599 423 428 c 0
 361 379 319 342 266 285 c 1
 633 285 l 2
 753 285 757 287 773 300 c 0
 785 310 789 332 789 400 c 0
 789 403 789 407 789 410 c 2
 789 505 l 1
 892 505 l 1
 1011 -8 l 1
 952 -2 881 0 849 0 c 2
 135 0 l 2
 108 0 85 -2 38 -8 c 1
 17 82 l 1
 80 219 134 306 296 530 c 1
 411 694 459 798 459 908 c 0
 459 1103 350 1237 185 1237 c 0
 97 1237 16 1182 16 1125 c 0
 16 1099 28 1087 56 1075 c 0
 153 1033 200 986 219 904 c 0
 223 888 225 873 225 858 c 0
 225 786 177 743 94 743 c 0
EndSplineSet
EndChar

StartChar: three
Encoding: 51 51 19
Width: 1090
VWidth: 1900
GlyphClass: 1
Flags: W
HStem: -27 99<292.08 558.123> 631 135<153.622 345.59> 642 103<231.21 423.849> 1246 99<67.5788 316.129>
VStem: -151 210<1016.5 1220.52> 447 302<807.133 1091.55> 605 328<116.683 457.514>
LayerCount: 2
Fore
SplineSet
68 859 m 0xbc
 -43 859 -151 951 -151 1082 c 0
 -151 1139 -129 1196 -92 1239 c 1
 -28 1309 76 1345 213 1345 c 0
 483 1345 694 1210 740 1009 c 0
 746 984 749 961 749 938 c 0xbc
 749 830 681 752 552 712 c 0
 540 708 525 705 504 699 c 1
 608 686 658 672 718 642 c 0
 817 591 895 487 922 367 c 0
 929 337 933 306 933 278 c 0
 933 191 902 114 847 68 c 0
 774 7 650 -27 511 -27 c 0
 237 -27 22 104 -22 296 c 0
 -26 313 -28 330 -28 345 c 0
 -28 425 22 477 107 477 c 0
 210 477 314 394 314 280 c 0
 314 250 301 226 269 186 c 1
 259 175 255 163 258 152 c 0
 267 112 359 72 439 72 c 0
 548 72 605 138 605 255 c 0
 605 290 600 329 590 372 c 0
 549 551 470 642 352 642 c 0xba
 332 642 297 631 228 631 c 0
 185 631 141 669 141 722 c 0
 141 750 160 766 197 766 c 0xda
 219 766 318 745 347 745 c 0
 412 745 447 799 447 892 c 0
 447 926 442 966 432 1011 c 0
 397 1159 307 1246 187 1246 c 0
 120 1246 59 1214 59 1180 c 0
 59 1166 64 1162 78 1151 c 0
 145 1100 175 1060 187 1009 c 0
 190 995 192 983 192 970 c 0
 192 903 145 859 68 859 c 0xbc
EndSplineSet
EndChar

StartChar: four
Encoding: 52 52 20
Width: 1090
VWidth: 1900
GlyphClass: 1
Flags: W
HStem: 0 103<370 510.964 831.91 994> 344 127<66 440 768 928> 1325 20G<405.548 564.5>
LayerCount: 2
Fore
SplineSet
367 103 m 2
 462 103 511 105 511 148 c 0
 511 164 504 195 486 274 c 2
 470 344 l 1
 -43 344 l 1
 -76 484 l 1
 417 1345 l 1
 548 1345 l 1
 581 1204 594 1098 603 1056 c 2
 738 471 l 1
 928 471 l 1
 958 344 l 1
 768 344 l 1
 784 274 l 2
 811 154 814 146 831 129 c 1
 850 112 896 103 974 103 c 2
 994 103 l 1
 1018 0 l 1
 370 0 l 1
 346 103 l 1
 367 103 l 2
440 471 m 1
 331 946 l 1
 66 471 l 1
 440 471 l 1
EndSplineSet
EndChar

StartChar: five
Encoding: 53 53 21
Width: 1090
VWidth: 1900
GlyphClass: 1
Flags: W
HStem: -27 109<271.157 548.088> 745 129<142.37 430.881> 1018 295<60.7896 516.902> 1325 20G<-92 -48>
VStem: -42 152<579.609 672.207> 598 329<156.636 514.098>
LayerCount: 2
Fore
SplineSet
635 1345 m 0
 656 1345 659 1313 659 1291 c 0
 659 1251 647 1202 628 1165 c 0
 578 1072 461 1018 303 1018 c 0
 229 1018 150 1028 56 1047 c 1
 85 802 l 1
 197 859 252 874 341 874 c 0
 615 874 856 692 913 445 c 0
 922 405 927 367 927 331 c 0
 927 115 766 -27 498 -27 c 0
 236 -27 37 97 -7 287 c 0
 -12 307 -14 326 -14 344 c 0
 -14 429 39 481 130 481 c 0
 227 481 306 418 328 325 c 0
 331 312 333 300 333 288 c 0
 333 245 309 217 257 188 c 1
 245 180 239 171 239 163 c 0
 239 122 358 82 426 82 c 0
 540 82 598 151 598 281 c 0
 598 325 591 377 578 435 c 0
 530 640 434 745 292 745 c 0
 214 745 144 721 98 673 c 1
 105 656 110 644 110 625 c 0
 110 591 85 566 48 566 c 0
 3 566 -42 604 -42 656 c 0
 -42 675 -33 691 -9 722 c 1
 -85 1051 -74 1193 -110 1345 c 1
 14 1320 111 1313 269 1313 c 0
 417 1313 547 1325 607 1340 c 1
 617 1344 627 1345 635 1345 c 0
EndSplineSet
EndChar

StartChar: six
Encoding: 54 54 22
Width: 1090
VWidth: 1900
GlyphClass: 1
Flags: W
HStem: -27 90<438.752 621.098> 669 142<311.396 508.324> 908 21G<565 665.5> 1246 99<242.48 438.199>
VStem: -111 291<690.517 1078.41> 440 324<991.921 1212> 644 314<145.839 468.249>
LayerCount: 2
Fore
SplineSet
620 908 m 0xfc
 510 908 415 981 415 1096 c 0
 415 1121 420 1146 432 1167 c 0
 437 1177 440 1186 440 1195 c 0xfc
 440 1229 397 1246 347 1246 c 0
 249 1246 180 1161 180 1002 c 0
 180 952 187 894 201 830 c 0
 210 794 220 709 226 686 c 1
 285 777 352 811 474 811 c 0
 698 811 892 652 945 424 c 0
 954 387 958 352 958 318 c 0xfa
 958 114 806 -27 566 -27 c 0
 410 -27 270 32 150 146 c 0
 36 256 -35 391 -79 581 c 0
 -101 674 -111 758 -111 835 c 0
 -111 946 -89 1043 -43 1129 c 1
 34 1275 159 1345 339 1345 c 0
 557 1345 720 1242 758 1079 c 0
 762 1063 764 1047 764 1032 c 0
 764 955 711 908 620 908 c 0xfc
408 669 m 0
 336 669 287 622 285 540 c 1
 285 496 295 435 310 369 c 0
 355 173 439 63 542 63 c 0
 610 63 644 117 644 218 c 0xfa
 644 268 636 330 619 403 c 0
 579 574 507 669 408 669 c 0
EndSplineSet
EndChar

StartChar: seven
Encoding: 55 55 23
Width: 1090
VWidth: 1900
GlyphClass: 1
Flags: W
HStem: -27 21G<470.5 584.5> 1043 276<23.2188 580.052> 1325 20G<-158.606 -64.5 668.5 730.75>
VStem: -93 106<777 896.748> 309 315<218.272 638>
LayerCount: 2
Fore
SplineSet
536 -27 m 0
 405 -27 309 84 309 241 c 0
 309 302 322 374 348 467 c 0
 354 486 403 613 501 849 c 1
 585 1043 l 1
 425 1043 345 1036 337 1036 c 0
 280 1036 181 1043 118 1043 c 2
 84 1043 l 2
 25 1043 12 1023 12 896 c 0
 12 882 12 867 13 851 c 2
 13 766 l 1
 -93 777 l 1
 -161 1345 l 1
 32 1324 124 1319 299 1319 c 0
 495 1319 611 1326 726 1345 c 1
 745 1265 l 1
 661 912 624 722 624 554 c 0
 624 436 642 329 676 184 c 0
 682 157 685 133 685 111 c 0
 685 21 633 -27 536 -27 c 0
EndSplineSet
EndChar

StartChar: eight
Encoding: 56 56 24
Width: 1090
VWidth: 1900
GlyphClass: 1
Flags: W
HStem: -27 99<363.334 676.65> 1246 99<132.912 401.268>
VStem: -136 226<980.027 1192.73> -29 244<226.166 511.487> 522 232<863.961 1121.2> 740 215<144.196 379.784>
LayerCount: 2
Fore
SplineSet
754 992 m 0xe8
 754 876 682 823 586 781 c 1
 787 707 901 587 943 408 c 0
 951 373 955 339 955 307 c 0
 955 104 795 -27 530 -27 c 0
 241 -27 27 105 -21 310 c 0
 -26 335 -29 358 -29 381 c 0xd4
 -29 458 5 519 69 557 c 0
 97 574 121 581 175 600 c 1
 7 680 -89 790 -124 940 c 0
 -132 974 -136 1006 -136 1036 c 0
 -136 1226 14 1345 267 1345 c 0
 512 1345 707 1226 747 1051 c 0
 752 1031 754 1011 754 992 c 0xe8
522 961 m 0xe8
 522 1133 400 1246 257 1246 c 0
 155 1246 90 1187 90 1104 c 0
 90 1091 91 1078 94 1064 c 0
 114 980 190 902 283 870 c 0
 322 857 387 840 469 821 c 1
 473 823 473 822 474 826 c 1
 478 828 l 1
 505 863 522 904 522 961 c 0xe8
289 549 m 1
 238 496 215 452 215 393 c 0
 215 370 219 344 225 315 c 0
 260 163 374 72 528 72 c 0
 657 72 740 142 740 245 c 0xd4
 740 261 738 277 734 294 c 0
 712 391 652 442 522 484 c 1
 471 499 375 526 289 549 c 1
EndSplineSet
EndChar

StartChar: nine
Encoding: 57 57 25
Width: 1090
VWidth: 1900
GlyphClass: 1
Flags: W
HStem: -27 99<348.308 543.962> 500 142<277.958 470.335> 1246 99<165.861 347.651>
VStem: -171 310<856.287 1174.05> 30 318<104 312.706> 609 289<224.995 592.14>
LayerCount: 2
Fore
SplineSet
557 625 m 1xec
 497 536 427 500 309 500 c 0
 92 500 -106 665 -157 889 c 0
 -166 928 -171 965 -171 1000 c 0xf4
 -171 1205 -24 1345 211 1345 c 0
 371 1345 527 1275 653 1146 c 0
 758 1038 827 906 867 733 c 0
 887 644 898 559 898 481 c 0
 898 377 880 283 844 203 c 1
 780 53 641 -27 445 -27 c 0
 230 -27 70 69 36 217 c 0
 32 234 30 251 30 267 c 0
 30 350 85 407 172 407 c 0
 267 407 347 344 368 253 c 0
 371 237 373 225 373 214 c 0
 373 196 368 178 355 144 c 1
 350 135 348 127 348 119 c 0
 348 89 382 72 424 72 c 0
 539 72 609 148 609 303 c 0
 609 353 602 411 587 477 c 0
 576 523 576 541 557 625 c 1xec
250 1246 m 0
 177 1246 139 1195 139 1094 c 0
 139 971 197 787 241 724 c 0
 275 676 335 642 388 642 c 0
 459 642 498 700 498 797 c 0
 498 832 493 872 483 916 c 0
 462 1003 422 1106 384 1161 c 1
 348 1216 299 1246 250 1246 c 0
EndSplineSet
EndChar

StartChar: colon
Encoding: 58 58 26
Width: 528
VWidth: 1900
GlyphClass: 1
Flags: W
HStem: -28 355<166.18 336.413> 559 355<30.3889 201.203>
VStem: -67 366<653.727 819.713> 69 365<66.7266 232.713>
LayerCount: 2
Fore
SplineSet
289 -28 m 0xd0
 188 -28 69 67 69 189 c 0
 69 268 126 327 210 327 c 0
 316 327 434 233 434 110 c 0
 434 30 376 -28 289 -28 c 0xd0
154 559 m 0
 52 559 -67 654 -67 776 c 0
 -67 855 -10 914 74 914 c 0
 181 914 299 820 299 697 c 0xe0
 299 617 241 559 154 559 c 0
EndSplineSet
EndChar

StartChar: semicolon
Encoding: 59 59 27
Width: 528
VWidth: 1900
GlyphClass: 1
Flags: W
HStem: -19 350<132.755 287.098> 559 355<21.3889 191.842>
VStem: -76 365<654.021 819.469> 289 162<-156.956 105>
LayerCount: 2
Fore
SplineSet
196 331 m 0xd0
 331 331 451 195 451 15 c 0
 451 -121 374 -247 223 -352 c 1
 153 -276 l 1
 239 -202 289 -124 289 -58 c 0
 289 -46 288 -19 276 -19 c 2
 268 -19 l 1
 265 -21 261 -19 253 -19 c 0
 152 -19 51 67 51 188 c 0
 51 271 108 331 196 331 c 0xd0
145 559 m 0
 43 559 -76 654 -76 776 c 0
 -76 855 -19 914 65 914 c 0
 172 914 289 820 289 696 c 0xe0
 289 617 232 559 145 559 c 0
EndSplineSet
EndChar

StartChar: less
Encoding: 60 60 28
Width: 1151
VWidth: 1900
GlyphClass: 1
Flags: W
LayerCount: 2
Fore
SplineSet
883 768 m 1
 326 481 l 1
 1016 190 l 1
 1071 -48 l 1
 0 393 l 1
 -37 564 l 1
 828 1005 l 1
 883 768 l 1
EndSplineSet
EndChar

StartChar: equal
Encoding: 61 61 29
Width: 1151
VWidth: 1900
GlyphClass: 1
Flags: W
HStem: 240 218<42 948> 631 219<-49 858>
LayerCount: 2
Fore
SplineSet
42 240 m 1
 -9 458 l 1
 948 458 l 1
 999 240 l 1
 42 240 l 1
-49 631 m 1
 -99 850 l 1
 858 850 l 1
 908 631 l 1
 -49 631 l 1
EndSplineSet
EndChar

StartChar: greater
Encoding: 62 62 30
Width: 1151
VWidth: 1900
GlyphClass: 1
Flags: W
LayerCount: 2
Fore
SplineSet
-86 768 m 1
 -141 1005 l 1
 928 564 l 1
 967 393 l 1
 102 -48 l 1
 47 190 l 1
 603 481 l 1
 -86 768 l 1
EndSplineSet
EndChar

StartChar: question
Encoding: 63 63 31
Width: 950
VWidth: 1900
GlyphClass: 1
Flags: W
HStem: -28 357<314.169 485.774> 927 21G<-49.5 51.5> 1292 108<3.97514 220.433>
VStem: -217 220<1091 1285.33> 217 367<67.5576 234.225> 246 123<435.195 639.225> 330 337<842.599 1154.88>
LayerCount: 2
Fore
SplineSet
10 927 m 0xf2
 -109 927 -217 1022 -217 1160 c 0
 -217 1304 -76 1400 148 1400 c 0
 414 1400 611 1269 659 1062 c 0
 665 1037 667 1012 667 988 c 0xf2
 667 925 648 867 609 826 c 0
 599 815 584 802 464 690 c 0
 396 627 369 591 369 531 c 0
 369 504 374 473 383 433 c 1
 280 433 l 1
 261 487 246 528 246 587 c 0xf4
 246 638 262 696 304 823 c 0
 321 876 330 933 330 987 c 0
 330 1167 233 1292 93 1292 c 0
 38 1292 3 1274 3 1250 c 0
 3 1230 8 1231 49 1203 c 1
 103 1169 143 1116 143 1042 c 0
 143 973 93 927 10 927 c 0xf2
439 -28 m 0
 335 -28 217 67 217 191 c 0
 217 270 274 329 359 329 c 0
 465 329 584 235 584 110 c 0xf8
 584 30 526 -28 439 -28 c 0
EndSplineSet
EndChar

StartChar: at
Encoding: 64 64 32
Width: 1419
VWidth: 1900
GlyphClass: 1
Flags: W
HStem: -28 115<494.816 931.227> 276 98<419.464 579.75> 281 116<838.59 989.047> 990 99<459.017 621.159> 1284 116<231.331 663.124>
VStem: -133 122<615.067 1049.3> 162 212<473.456 870.523> 656 179<483.18 665.836> 1081 118<500.858 885.342>
LayerCount: 2
Fore
SplineSet
835 477 m 0xdf80
 835 428 849 397 894 397 c 0
 930 397 969 418 1003 454 c 0
 1055 508 1081 583 1081 671 c 0
 1081 710 1076 752 1066 796 c 0
 1001 1079 739 1284 441 1284 c 0
 164 1284 -11 1103 -11 843 c 0
 -11 796 -5 747 7 695 c 0
 86 351 396 87 719 87 c 0
 922 87 1074 184 1141 361 c 1
 1272 361 l 1
 1260 291 1237 247 1190 186 c 0
 1080 40 933 -28 741 -28 c 0
 357 -28 -21 289 -113 688 c 0
 -126 746 -133 802 -133 855 c 0
 -133 1169 86 1400 416 1400 c 0
 768 1400 1109 1138 1185 809 c 0
 1195 768 1199 728 1199 689 c 0
 1199 464 1051 281 847 281 c 0xbf80
 760 281 691 323 676 388 c 0
 675 394 674 405 673 418 c 1
 645 321 586 276 491 276 c 0
 349 276 212 399 175 559 c 0
 166 597 162 638 162 678 c 0
 162 765 181 853 219 927 c 0
 271 1030 369 1089 481 1089 c 0
 565 1089 615 1060 679 990 c 1
 687 1056 l 1
 885 1056 l 1
 836 509 l 2
 836 498 835 487 835 477 c 0xdf80
374 615 m 0
 374 499 403 374 501 374 c 0xdf80
 562 374 604 429 624 532 c 0
 642 625 656 768 656 850 c 0
 656 874 655 893 652 904 c 0
 642 950 591 990 542 990 c 0
 483 990 441 944 412 851 c 0
 387 777 374 693 374 615 c 0
EndSplineSet
EndChar

StartChar: bracketleft
Encoding: 91 91 33
Width: 739
VWidth: 1900
GlyphClass: 1
Flags: W
HStem: -205 95<418 669> 1277 95<98 327>
LayerCount: 2
Fore
SplineSet
327 1372 m 1
 349 1277 l 1
 98 1277 l 1
 418 -110 l 1
 669 -110 l 1
 691 -205 l 1
 207 -205 l 1
 -157 1372 l 1
 327 1372 l 1
EndSplineSet
EndChar

StartChar: backslash
Encoding: 92 92 34
Width: 1151
VWidth: 1900
GlyphClass: 1
Flags: W
HStem: 0 21G<897.686 1054> 1380 20G<-228 -70.7>
LayerCount: 2
Fore
SplineSet
-87 1400 m 1
 1054 0 l 1
 914 0 l 1
 -228 1400 l 1
 -87 1400 l 1
EndSplineSet
EndChar

StartChar: bracketright
Encoding: 93 93 35
Width: 739
VWidth: 1900
GlyphClass: 1
Flags: W
HStem: -205 95<106 335> 1277 95<-236 15>
LayerCount: 2
Fore
SplineSet
106 -205 m 1
 84 -110 l 1
 335 -110 l 1
 15 1277 l 1
 -236 1277 l 1
 -258 1372 l 1
 226 1372 l 1
 590 -205 l 1
 106 -205 l 1
EndSplineSet
EndChar

StartChar: asciicircum
Encoding: 94 94 36
Width: 1151
VWidth: 1900
GlyphClass: 1
Flags: W
HStem: 1352 20G<173.297 354.948>
LayerCount: 2
Fore
SplineSet
914 604 m 1
 687 604 l 1
 329 1079 l 1
 186 604 l 1
 -40 604 l 1
 179 1372 l 1
 340 1372 l 1
 914 604 l 1
EndSplineSet
EndChar

StartChar: underscore
Encoding: 95 95 37
Width: 950
VWidth: 1900
GlyphClass: 1
Flags: W
HStem: -281 171<65 975>
LayerCount: 2
Fore
SplineSet
25 -110 m 1
 975 -110 l 1
 1015 -281 l 1
 65 -281 l 1
 25 -110 l 1
EndSplineSet
EndChar

StartChar: grave
Encoding: 96 96 38
Width: 457
VWidth: 1900
GlyphClass: 1
Flags: W
HStem: 737 352<-27.5103 125.628>
VStem: -191 161<963.5 1224.41>
LayerCount: 2
Fore
SplineSet
64 737 m 0
 -72 737 -191 873 -191 1054 c 0
 -191 1189 -115 1314 35 1419 c 1
 104 1341 l 1
 18 1270 -30 1191 -30 1125 c 0
 -30 1111 -29 1085 -16 1085 c 0
 -11 1085 -3 1089 5 1089 c 0
 106 1089 208 1000 208 879 c 0
 208 796 151 737 64 737 c 0
EndSplineSet
EndChar

StartChar: braceleft
Encoding: 123 123 39
Width: 739
VWidth: 1900
GlyphClass: 1
Flags: W
HStem: -205 87<576.671 679> 1284 88<270.078 335>
VStem: 34 231<985.883 1277.22> 127 234<648.789 957.352>
LayerCount: 2
Fore
SplineSet
16 625 m 1xe0
 98 646 127 667 127 738 c 0xd0
 127 762 120 795 101 878 c 2
 53 1087 l 2
 40 1141 34 1185 34 1220 c 0
 34 1266 45 1297 67 1320 c 1
 94 1350 166 1372 236 1372 c 2
 335 1372 l 1
 356 1284 l 1
 291 1284 265 1259 265 1208 c 0xe0
 265 1192 267 1173 272 1151 c 2
 348 821 l 2
 357 786 361 756 361 731 c 0xd0
 361 650 317 612 209 583 c 1
 368 545 424 492 458 346 c 2
 510 122 l 2
 547 -41 548 -42 571 -70 c 0
 597 -100 625 -112 679 -118 c 1
 699 -205 l 1
 600 -205 l 2
 530 -205 448 -184 408 -154 c 1
 349 -114 314 -45 286 80 c 2
 237 289 l 2
 208 414 202 433 173 469 c 0
 141 507 110 523 34 542 c 1
 16 625 l 1xe0
EndSplineSet
EndChar

StartChar: bar
Encoding: 124 124 40
Width: 1151
VWidth: 1900
GlyphClass: 1
Flags: W
HStem: 0 21G<457.379 688> 1352 20G<145 375.621>
VStem: 145 543
LayerCount: 2
Fore
SplineSet
371 1372 m 1
 688 0 l 1
 462 0 l 1
 145 1372 l 1
 371 1372 l 1
EndSplineSet
EndChar

StartChar: braceright
Encoding: 125 125 41
Width: 739
VWidth: 1900
GlyphClass: 1
Flags: W
HStem: -205 87<106 171.616> 1284 88<-237 -129.402>
VStem: 85 234<205.047 519.542> 182 229<-106.486 171.219>
LayerCount: 2
Fore
SplineSet
426 542 m 1xe0
 343 521 319 498 319 426 c 0xe0
 319 402 325 370 343 289 c 2
 392 80 l 2
 404 25 411 -19 411 -54 c 0xd0
 411 -100 400 -132 378 -154 c 1
 350 -184 279 -205 209 -205 c 2
 106 -205 l 1
 85 -118 l 1xe0
 139 -112 162 -100 174 -70 c 0
 179 -60 182 -53 182 -41 c 0xd0
 182 -20 173 18 149 122 c 2
 97 346 l 2
 89 381 85 411 85 436 c 0
 85 517 128 554 235 583 c 1
 77 621 21 675 -13 821 c 2
 -89 1151 l 2
 -109 1240 -150 1284 -237 1284 c 1
 -258 1372 l 1
 -155 1372 l 2
 -85 1372 -4 1350 37 1320 c 1
 95 1280 130 1212 159 1087 c 2
 207 878 l 2
 236 754 243 733 272 697 c 0
 302 659 333 642 407 625 c 1
 426 542 l 1xe0
EndSplineSet
EndChar

StartChar: asciitilde
Encoding: 126 126 42
Width: 1151
VWidth: 1900
GlyphClass: 1
Flags: W
HStem: 304 217<528.661 721.688> 420 216<212.415 409.01>
LayerCount: 2
Fore
SplineSet
182 321 m 1x40
 0 420 l 1
 43 562 119 636 223 636 c 0x40
 267 636 312 625 405 593 c 2
 513 557 l 1
 603 525 620 521 648 521 c 0
 692 521 717 543 752 619 c 1
 934 519 l 1
 889 377 815 304 711 304 c 0x80
 667 304 624 314 530 348 c 1
 420 384 l 1
 331 416 315 420 287 420 c 0
 243 420 217 397 182 321 c 1x40
EndSplineSet
EndChar

StartChar: atnah
Encoding: 1425 1425 43
Width: 0
VWidth: 2273
GlyphClass: 4
Flags: MW
LayerCount: 2
Fore
SplineSet
-28 332 m 10
 0 360 l 18
 8 367 16 367 16 354 c 10
 16 324 l 18
 16 316 12 312 6 305 c 10
 -19 278 l 17
 -26 272 -34 274 -34 288 c 10
 -34 314 l 18
 -34 322 -33 326 -28 332 c 10
-30 403 m 0
 -30 429 38 468 38 510 c 0
 38 566 4 602 -34 602 c 0
 -75 602 -75 581 -86 581 c 0
 -92 581 -100 585 -100 590 c 0
 -100 592 -71 649 -5 649 c 3
 52 649 105 612 105 552 c 0
 105 478 43 453 15 404 c 0
 13 402 12 401 10 401 c 0
 6 400 -6 399 -16 399 c 0
 -24 399 -30 400 -30 403 c 0
-189 718 m 1
 -189 178 l 1
 189 178 l 1
 189 718 l 1
 -189 718 l 1
-232 765 m 1
 232 765 l 1
 232 138 l 1
 -232 138 l 1
 -232 765 l 1
EndSplineSet
Validated: 1
Substitution2: "ccmpChangeCantillationsToCircle subtable" dottedcircle
EndChar

StartChar: segolta
Encoding: 1426 1426 44
Width: 0
VWidth: 2273
GlyphClass: 4
Flags: MW
LayerCount: 2
Fore
SplineSet
-28 332 m 10
 0 360 l 18
 8 367 16 367 16 354 c 10
 16 324 l 18
 16 316 12 312 6 305 c 10
 -19 278 l 17
 -26 272 -34 274 -34 288 c 10
 -34 314 l 18
 -34 322 -33 326 -28 332 c 10
-30 403 m 0
 -30 429 38 468 38 510 c 0
 38 566 4 602 -34 602 c 0
 -75 602 -75 581 -86 581 c 0
 -92 581 -100 585 -100 590 c 0
 -100 592 -71 649 -5 649 c 3
 52 649 105 612 105 552 c 0
 105 478 43 453 15 404 c 0
 13 402 12 401 10 401 c 0
 6 400 -6 399 -16 399 c 0
 -24 399 -30 400 -30 403 c 0
-189 718 m 1
 -189 178 l 1
 189 178 l 1
 189 718 l 1
 -189 718 l 1
-232 765 m 1
 232 765 l 1
 232 138 l 1
 -232 138 l 1
 -232 765 l 1
EndSplineSet
Validated: 1
Substitution2: "ccmpChangeCantillationsToCircle subtable" dottedcircle
EndChar

StartChar: shalshelet
Encoding: 1427 1427 45
Width: 0
VWidth: 2273
GlyphClass: 4
Flags: MW
LayerCount: 2
Fore
SplineSet
-28 332 m 10
 0 360 l 18
 8 367 16 367 16 354 c 10
 16 324 l 18
 16 316 12 312 6 305 c 10
 -19 278 l 17
 -26 272 -34 274 -34 288 c 10
 -34 314 l 18
 -34 322 -33 326 -28 332 c 10
-30 403 m 0
 -30 429 38 468 38 510 c 0
 38 566 4 602 -34 602 c 0
 -75 602 -75 581 -86 581 c 0
 -92 581 -100 585 -100 590 c 0
 -100 592 -71 649 -5 649 c 3
 52 649 105 612 105 552 c 0
 105 478 43 453 15 404 c 0
 13 402 12 401 10 401 c 0
 6 400 -6 399 -16 399 c 0
 -24 399 -30 400 -30 403 c 0
-189 718 m 1
 -189 178 l 1
 189 178 l 1
 189 718 l 1
 -189 718 l 1
-232 765 m 1
 232 765 l 1
 232 138 l 1
 -232 138 l 1
 -232 765 l 1
EndSplineSet
Validated: 1
Substitution2: "ccmpChangeCantillationsToCircle subtable" dottedcircle
EndChar

StartChar: zaqefqatan
Encoding: 1428 1428 46
Width: 0
VWidth: 2273
GlyphClass: 4
Flags: MW
LayerCount: 2
Fore
SplineSet
-28 332 m 10
 0 360 l 18
 8 367 16 367 16 354 c 10
 16 324 l 18
 16 316 12 312 6 305 c 10
 -19 278 l 17
 -26 272 -34 274 -34 288 c 10
 -34 314 l 18
 -34 322 -33 326 -28 332 c 10
-30 403 m 0
 -30 429 38 468 38 510 c 0
 38 566 4 602 -34 602 c 0
 -75 602 -75 581 -86 581 c 0
 -92 581 -100 585 -100 590 c 0
 -100 592 -71 649 -5 649 c 3
 52 649 105 612 105 552 c 0
 105 478 43 453 15 404 c 0
 13 402 12 401 10 401 c 0
 6 400 -6 399 -16 399 c 0
 -24 399 -30 400 -30 403 c 0
-189 718 m 1
 -189 178 l 1
 189 178 l 1
 189 718 l 1
 -189 718 l 1
-232 765 m 1
 232 765 l 1
 232 138 l 1
 -232 138 l 1
 -232 765 l 1
EndSplineSet
Validated: 1
Substitution2: "ccmpChangeCantillationsToCircle subtable" dottedcircle
EndChar

StartChar: zaqefgadol
Encoding: 1429 1429 47
Width: 0
VWidth: 2273
GlyphClass: 4
Flags: MW
LayerCount: 2
Fore
SplineSet
-28 332 m 10
 0 360 l 18
 8 367 16 367 16 354 c 10
 16 324 l 18
 16 316 12 312 6 305 c 10
 -19 278 l 17
 -26 272 -34 274 -34 288 c 10
 -34 314 l 18
 -34 322 -33 326 -28 332 c 10
-30 403 m 0
 -30 429 38 468 38 510 c 0
 38 566 4 602 -34 602 c 0
 -75 602 -75 581 -86 581 c 0
 -92 581 -100 585 -100 590 c 0
 -100 592 -71 649 -5 649 c 3
 52 649 105 612 105 552 c 0
 105 478 43 453 15 404 c 0
 13 402 12 401 10 401 c 0
 6 400 -6 399 -16 399 c 0
 -24 399 -30 400 -30 403 c 0
-189 718 m 1
 -189 178 l 1
 189 178 l 1
 189 718 l 1
 -189 718 l 1
-232 765 m 1
 232 765 l 1
 232 138 l 1
 -232 138 l 1
 -232 765 l 1
EndSplineSet
Validated: 1
Substitution2: "ccmpChangeCantillationsToCircle subtable" dottedcircle
EndChar

StartChar: tipeha
Encoding: 1430 1430 48
Width: 0
VWidth: 2273
GlyphClass: 4
Flags: MW
LayerCount: 2
Fore
SplineSet
-28 332 m 10
 0 360 l 18
 8 367 16 367 16 354 c 10
 16 324 l 18
 16 316 12 312 6 305 c 10
 -19 278 l 17
 -26 272 -34 274 -34 288 c 10
 -34 314 l 18
 -34 322 -33 326 -28 332 c 10
-30 403 m 0
 -30 429 38 468 38 510 c 0
 38 566 4 602 -34 602 c 0
 -75 602 -75 581 -86 581 c 0
 -92 581 -100 585 -100 590 c 0
 -100 592 -71 649 -5 649 c 3
 52 649 105 612 105 552 c 0
 105 478 43 453 15 404 c 0
 13 402 12 401 10 401 c 0
 6 400 -6 399 -16 399 c 0
 -24 399 -30 400 -30 403 c 0
-189 718 m 1
 -189 178 l 1
 189 178 l 1
 189 718 l 1
 -189 718 l 1
-232 765 m 1
 232 765 l 1
 232 138 l 1
 -232 138 l 1
 -232 765 l 1
EndSplineSet
Validated: 1
Substitution2: "ccmpChangeCantillationsToCircle subtable" dottedcircle
EndChar

StartChar: revia
Encoding: 1431 1431 49
Width: 0
VWidth: 2273
GlyphClass: 4
Flags: MW
LayerCount: 2
Fore
SplineSet
-28 332 m 10
 0 360 l 18
 8 367 16 367 16 354 c 10
 16 324 l 18
 16 316 12 312 6 305 c 10
 -19 278 l 17
 -26 272 -34 274 -34 288 c 10
 -34 314 l 18
 -34 322 -33 326 -28 332 c 10
-30 403 m 0
 -30 429 38 468 38 510 c 0
 38 566 4 602 -34 602 c 0
 -75 602 -75 581 -86 581 c 0
 -92 581 -100 585 -100 590 c 0
 -100 592 -71 649 -5 649 c 3
 52 649 105 612 105 552 c 0
 105 478 43 453 15 404 c 0
 13 402 12 401 10 401 c 0
 6 400 -6 399 -16 399 c 0
 -24 399 -30 400 -30 403 c 0
-189 718 m 1
 -189 178 l 1
 189 178 l 1
 189 718 l 1
 -189 718 l 1
-232 765 m 1
 232 765 l 1
 232 138 l 1
 -232 138 l 1
 -232 765 l 1
EndSplineSet
Validated: 1
Substitution2: "ccmpChangeCantillationsToCircle subtable" dottedcircle
EndChar

StartChar: zarqa
Encoding: 1432 1432 50
Width: 0
VWidth: 2273
GlyphClass: 4
Flags: MW
LayerCount: 2
Fore
SplineSet
-28 332 m 10
 0 360 l 18
 8 367 16 367 16 354 c 10
 16 324 l 18
 16 316 12 312 6 305 c 10
 -19 278 l 17
 -26 272 -34 274 -34 288 c 10
 -34 314 l 18
 -34 322 -33 326 -28 332 c 10
-30 403 m 0
 -30 429 38 468 38 510 c 0
 38 566 4 602 -34 602 c 0
 -75 602 -75 581 -86 581 c 0
 -92 581 -100 585 -100 590 c 0
 -100 592 -71 649 -5 649 c 3
 52 649 105 612 105 552 c 0
 105 478 43 453 15 404 c 0
 13 402 12 401 10 401 c 0
 6 400 -6 399 -16 399 c 0
 -24 399 -30 400 -30 403 c 0
-189 718 m 1
 -189 178 l 1
 189 178 l 1
 189 718 l 1
 -189 718 l 1
-232 765 m 1
 232 765 l 1
 232 138 l 1
 -232 138 l 1
 -232 765 l 1
EndSplineSet
Validated: 1
Substitution2: "ccmpChangeCantillationsToCircle subtable" dottedcircle
EndChar

StartChar: pashta
Encoding: 1433 1433 51
Width: 0
VWidth: 2273
GlyphClass: 4
Flags: MW
LayerCount: 2
Fore
SplineSet
-28 332 m 10
 0 360 l 18
 8 367 16 367 16 354 c 10
 16 324 l 18
 16 316 12 312 6 305 c 10
 -19 278 l 17
 -26 272 -34 274 -34 288 c 10
 -34 314 l 18
 -34 322 -33 326 -28 332 c 10
-30 403 m 0
 -30 429 38 468 38 510 c 0
 38 566 4 602 -34 602 c 0
 -75 602 -75 581 -86 581 c 0
 -92 581 -100 585 -100 590 c 0
 -100 592 -71 649 -5 649 c 3
 52 649 105 612 105 552 c 0
 105 478 43 453 15 404 c 0
 13 402 12 401 10 401 c 0
 6 400 -6 399 -16 399 c 0
 -24 399 -30 400 -30 403 c 0
-189 718 m 1
 -189 178 l 1
 189 178 l 1
 189 718 l 1
 -189 718 l 1
-232 765 m 1
 232 765 l 1
 232 138 l 1
 -232 138 l 1
 -232 765 l 1
EndSplineSet
Validated: 1
Substitution2: "ccmpChangeCantillationsToCircle subtable" dottedcircle
EndChar

StartChar: yetiv
Encoding: 1434 1434 52
Width: 0
VWidth: 2273
GlyphClass: 4
Flags: MW
LayerCount: 2
Fore
SplineSet
-28 332 m 10
 0 360 l 18
 8 367 16 367 16 354 c 10
 16 324 l 18
 16 316 12 312 6 305 c 10
 -19 278 l 17
 -26 272 -34 274 -34 288 c 10
 -34 314 l 18
 -34 322 -33 326 -28 332 c 10
-30 403 m 0
 -30 429 38 468 38 510 c 0
 38 566 4 602 -34 602 c 0
 -75 602 -75 581 -86 581 c 0
 -92 581 -100 585 -100 590 c 0
 -100 592 -71 649 -5 649 c 3
 52 649 105 612 105 552 c 0
 105 478 43 453 15 404 c 0
 13 402 12 401 10 401 c 0
 6 400 -6 399 -16 399 c 0
 -24 399 -30 400 -30 403 c 0
-189 718 m 1
 -189 178 l 1
 189 178 l 1
 189 718 l 1
 -189 718 l 1
-232 765 m 1
 232 765 l 1
 232 138 l 1
 -232 138 l 1
 -232 765 l 1
EndSplineSet
Validated: 1
Substitution2: "ccmpChangeCantillationsToCircle subtable" dottedcircle
EndChar

StartChar: tevir
Encoding: 1435 1435 53
Width: 0
VWidth: 2273
GlyphClass: 4
Flags: MW
LayerCount: 2
Fore
SplineSet
-28 332 m 10
 0 360 l 18
 8 367 16 367 16 354 c 10
 16 324 l 18
 16 316 12 312 6 305 c 10
 -19 278 l 17
 -26 272 -34 274 -34 288 c 10
 -34 314 l 18
 -34 322 -33 326 -28 332 c 10
-30 403 m 0
 -30 429 38 468 38 510 c 0
 38 566 4 602 -34 602 c 0
 -75 602 -75 581 -86 581 c 0
 -92 581 -100 585 -100 590 c 0
 -100 592 -71 649 -5 649 c 3
 52 649 105 612 105 552 c 0
 105 478 43 453 15 404 c 0
 13 402 12 401 10 401 c 0
 6 400 -6 399 -16 399 c 0
 -24 399 -30 400 -30 403 c 0
-189 718 m 1
 -189 178 l 1
 189 178 l 1
 189 718 l 1
 -189 718 l 1
-232 765 m 1
 232 765 l 1
 232 138 l 1
 -232 138 l 1
 -232 765 l 1
EndSplineSet
Validated: 1
Substitution2: "ccmpChangeCantillationsToCircle subtable" dottedcircle
EndChar

StartChar: gereshaccent
Encoding: 1436 1436 54
Width: 0
VWidth: 2273
GlyphClass: 4
Flags: MW
LayerCount: 2
Fore
SplineSet
-28 332 m 10
 0 360 l 18
 8 367 16 367 16 354 c 10
 16 324 l 18
 16 316 12 312 6 305 c 10
 -19 278 l 17
 -26 272 -34 274 -34 288 c 10
 -34 314 l 18
 -34 322 -33 326 -28 332 c 10
-30 403 m 0
 -30 429 38 468 38 510 c 0
 38 566 4 602 -34 602 c 0
 -75 602 -75 581 -86 581 c 0
 -92 581 -100 585 -100 590 c 0
 -100 592 -71 649 -5 649 c 3
 52 649 105 612 105 552 c 0
 105 478 43 453 15 404 c 0
 13 402 12 401 10 401 c 0
 6 400 -6 399 -16 399 c 0
 -24 399 -30 400 -30 403 c 0
-189 718 m 1
 -189 178 l 1
 189 178 l 1
 189 718 l 1
 -189 718 l 1
-232 765 m 1
 232 765 l 1
 232 138 l 1
 -232 138 l 1
 -232 765 l 1
EndSplineSet
Validated: 1
Substitution2: "ccmpChangeCantillationsToCircle subtable" dottedcircle
EndChar

StartChar: gereshmuqdam
Encoding: 1437 1437 55
Width: 0
VWidth: 2273
GlyphClass: 4
Flags: MW
LayerCount: 2
Fore
SplineSet
-28 332 m 10
 0 360 l 18
 8 367 16 367 16 354 c 10
 16 324 l 18
 16 316 12 312 6 305 c 10
 -19 278 l 17
 -26 272 -34 274 -34 288 c 10
 -34 314 l 18
 -34 322 -33 326 -28 332 c 10
-30 403 m 0
 -30 429 38 468 38 510 c 0
 38 566 4 602 -34 602 c 0
 -75 602 -75 581 -86 581 c 0
 -92 581 -100 585 -100 590 c 0
 -100 592 -71 649 -5 649 c 3
 52 649 105 612 105 552 c 0
 105 478 43 453 15 404 c 0
 13 402 12 401 10 401 c 0
 6 400 -6 399 -16 399 c 0
 -24 399 -30 400 -30 403 c 0
-189 718 m 1
 -189 178 l 1
 189 178 l 1
 189 718 l 1
 -189 718 l 1
-232 765 m 1
 232 765 l 1
 232 138 l 1
 -232 138 l 1
 -232 765 l 1
EndSplineSet
Validated: 1
Substitution2: "ccmpChangeCantillationsToCircle subtable" dottedcircle
EndChar

StartChar: gershayimaccent
Encoding: 1438 1438 56
Width: 0
VWidth: 2273
GlyphClass: 4
Flags: MW
LayerCount: 2
Fore
SplineSet
-28 332 m 10
 0 360 l 18
 8 367 16 367 16 354 c 10
 16 324 l 18
 16 316 12 312 6 305 c 10
 -19 278 l 17
 -26 272 -34 274 -34 288 c 10
 -34 314 l 18
 -34 322 -33 326 -28 332 c 10
-30 403 m 0
 -30 429 38 468 38 510 c 0
 38 566 4 602 -34 602 c 0
 -75 602 -75 581 -86 581 c 0
 -92 581 -100 585 -100 590 c 0
 -100 592 -71 649 -5 649 c 3
 52 649 105 612 105 552 c 0
 105 478 43 453 15 404 c 0
 13 402 12 401 10 401 c 0
 6 400 -6 399 -16 399 c 0
 -24 399 -30 400 -30 403 c 0
-189 718 m 1
 -189 178 l 1
 189 178 l 1
 189 718 l 1
 -189 718 l 1
-232 765 m 1
 232 765 l 1
 232 138 l 1
 -232 138 l 1
 -232 765 l 1
EndSplineSet
Validated: 1
Substitution2: "ccmpChangeCantillationsToCircle subtable" dottedcircle
EndChar

StartChar: qarneypara
Encoding: 1439 1439 57
Width: 0
VWidth: 2273
GlyphClass: 4
Flags: MW
LayerCount: 2
Fore
SplineSet
-28 332 m 10
 0 360 l 18
 8 367 16 367 16 354 c 10
 16 324 l 18
 16 316 12 312 6 305 c 10
 -19 278 l 17
 -26 272 -34 274 -34 288 c 10
 -34 314 l 18
 -34 322 -33 326 -28 332 c 10
-30 403 m 0
 -30 429 38 468 38 510 c 0
 38 566 4 602 -34 602 c 0
 -75 602 -75 581 -86 581 c 0
 -92 581 -100 585 -100 590 c 0
 -100 592 -71 649 -5 649 c 3
 52 649 105 612 105 552 c 0
 105 478 43 453 15 404 c 0
 13 402 12 401 10 401 c 0
 6 400 -6 399 -16 399 c 0
 -24 399 -30 400 -30 403 c 0
-189 718 m 1
 -189 178 l 1
 189 178 l 1
 189 718 l 1
 -189 718 l 1
-232 765 m 1
 232 765 l 1
 232 138 l 1
 -232 138 l 1
 -232 765 l 1
EndSplineSet
Validated: 1
Substitution2: "ccmpChangeCantillationsToCircle subtable" dottedcircle
EndChar

StartChar: telishagedola
Encoding: 1440 1440 58
Width: 0
VWidth: 2273
GlyphClass: 4
Flags: MW
LayerCount: 2
Fore
SplineSet
-28 332 m 10
 0 360 l 18
 8 367 16 367 16 354 c 10
 16 324 l 18
 16 316 12 312 6 305 c 10
 -19 278 l 17
 -26 272 -34 274 -34 288 c 10
 -34 314 l 18
 -34 322 -33 326 -28 332 c 10
-30 403 m 0
 -30 429 38 468 38 510 c 0
 38 566 4 602 -34 602 c 0
 -75 602 -75 581 -86 581 c 0
 -92 581 -100 585 -100 590 c 0
 -100 592 -71 649 -5 649 c 3
 52 649 105 612 105 552 c 0
 105 478 43 453 15 404 c 0
 13 402 12 401 10 401 c 0
 6 400 -6 399 -16 399 c 0
 -24 399 -30 400 -30 403 c 0
-189 718 m 1
 -189 178 l 1
 189 178 l 1
 189 718 l 1
 -189 718 l 1
-232 765 m 1
 232 765 l 1
 232 138 l 1
 -232 138 l 1
 -232 765 l 1
EndSplineSet
Validated: 1
Substitution2: "ccmpChangeCantillationsToCircle subtable" dottedcircle
EndChar

StartChar: pazer
Encoding: 1441 1441 59
Width: 0
VWidth: 2273
GlyphClass: 4
Flags: MW
LayerCount: 2
Fore
SplineSet
-28 332 m 10
 0 360 l 18
 8 367 16 367 16 354 c 10
 16 324 l 18
 16 316 12 312 6 305 c 10
 -19 278 l 17
 -26 272 -34 274 -34 288 c 10
 -34 314 l 18
 -34 322 -33 326 -28 332 c 10
-30 403 m 0
 -30 429 38 468 38 510 c 0
 38 566 4 602 -34 602 c 0
 -75 602 -75 581 -86 581 c 0
 -92 581 -100 585 -100 590 c 0
 -100 592 -71 649 -5 649 c 3
 52 649 105 612 105 552 c 0
 105 478 43 453 15 404 c 0
 13 402 12 401 10 401 c 0
 6 400 -6 399 -16 399 c 0
 -24 399 -30 400 -30 403 c 0
-189 718 m 1
 -189 178 l 1
 189 178 l 1
 189 718 l 1
 -189 718 l 1
-232 765 m 1
 232 765 l 1
 232 138 l 1
 -232 138 l 1
 -232 765 l 1
EndSplineSet
Validated: 1
Substitution2: "ccmpChangeCantillationsToCircle subtable" dottedcircle
EndChar

StartChar: munah
Encoding: 1443 1443 60
Width: 0
VWidth: 2273
GlyphClass: 4
Flags: MW
LayerCount: 2
Fore
SplineSet
-28 332 m 10
 0 360 l 18
 8 367 16 367 16 354 c 10
 16 324 l 18
 16 316 12 312 6 305 c 10
 -19 278 l 17
 -26 272 -34 274 -34 288 c 10
 -34 314 l 18
 -34 322 -33 326 -28 332 c 10
-30 403 m 0
 -30 429 38 468 38 510 c 0
 38 566 4 602 -34 602 c 0
 -75 602 -75 581 -86 581 c 0
 -92 581 -100 585 -100 590 c 0
 -100 592 -71 649 -5 649 c 3
 52 649 105 612 105 552 c 0
 105 478 43 453 15 404 c 0
 13 402 12 401 10 401 c 0
 6 400 -6 399 -16 399 c 0
 -24 399 -30 400 -30 403 c 0
-189 718 m 1
 -189 178 l 1
 189 178 l 1
 189 718 l 1
 -189 718 l 1
-232 765 m 1
 232 765 l 1
 232 138 l 1
 -232 138 l 1
 -232 765 l 1
EndSplineSet
Validated: 1
Substitution2: "ccmpChangeCantillationsToCircle subtable" dottedcircle
EndChar

StartChar: mahapakh
Encoding: 1444 1444 61
Width: 0
VWidth: 2273
GlyphClass: 4
Flags: MW
LayerCount: 2
Fore
SplineSet
-28 332 m 10
 0 360 l 18
 8 367 16 367 16 354 c 10
 16 324 l 18
 16 316 12 312 6 305 c 10
 -19 278 l 17
 -26 272 -34 274 -34 288 c 10
 -34 314 l 18
 -34 322 -33 326 -28 332 c 10
-30 403 m 0
 -30 429 38 468 38 510 c 0
 38 566 4 602 -34 602 c 0
 -75 602 -75 581 -86 581 c 0
 -92 581 -100 585 -100 590 c 0
 -100 592 -71 649 -5 649 c 3
 52 649 105 612 105 552 c 0
 105 478 43 453 15 404 c 0
 13 402 12 401 10 401 c 0
 6 400 -6 399 -16 399 c 0
 -24 399 -30 400 -30 403 c 0
-189 718 m 1
 -189 178 l 1
 189 178 l 1
 189 718 l 1
 -189 718 l 1
-232 765 m 1
 232 765 l 1
 232 138 l 1
 -232 138 l 1
 -232 765 l 1
EndSplineSet
Validated: 1
Substitution2: "ccmpChangeCantillationsToCircle subtable" dottedcircle
EndChar

StartChar: merkha
Encoding: 1445 1445 62
Width: 0
VWidth: 2273
GlyphClass: 4
Flags: MW
LayerCount: 2
Fore
SplineSet
-28 332 m 10
 0 360 l 18
 8 367 16 367 16 354 c 10
 16 324 l 18
 16 316 12 312 6 305 c 10
 -19 278 l 17
 -26 272 -34 274 -34 288 c 10
 -34 314 l 18
 -34 322 -33 326 -28 332 c 10
-30 403 m 0
 -30 429 38 468 38 510 c 0
 38 566 4 602 -34 602 c 0
 -75 602 -75 581 -86 581 c 0
 -92 581 -100 585 -100 590 c 0
 -100 592 -71 649 -5 649 c 3
 52 649 105 612 105 552 c 0
 105 478 43 453 15 404 c 0
 13 402 12 401 10 401 c 0
 6 400 -6 399 -16 399 c 0
 -24 399 -30 400 -30 403 c 0
-189 718 m 1
 -189 178 l 1
 189 178 l 1
 189 718 l 1
 -189 718 l 1
-232 765 m 1
 232 765 l 1
 232 138 l 1
 -232 138 l 1
 -232 765 l 1
EndSplineSet
Validated: 1
Substitution2: "ccmpChangeCantillationsToCircle subtable" dottedcircle
EndChar

StartChar: merkhakefula
Encoding: 1446 1446 63
Width: 0
VWidth: 2273
GlyphClass: 4
Flags: MW
LayerCount: 2
Fore
SplineSet
-28 332 m 10
 0 360 l 18
 8 367 16 367 16 354 c 10
 16 324 l 18
 16 316 12 312 6 305 c 10
 -19 278 l 17
 -26 272 -34 274 -34 288 c 10
 -34 314 l 18
 -34 322 -33 326 -28 332 c 10
-30 403 m 0
 -30 429 38 468 38 510 c 0
 38 566 4 602 -34 602 c 0
 -75 602 -75 581 -86 581 c 0
 -92 581 -100 585 -100 590 c 0
 -100 592 -71 649 -5 649 c 3
 52 649 105 612 105 552 c 0
 105 478 43 453 15 404 c 0
 13 402 12 401 10 401 c 0
 6 400 -6 399 -16 399 c 0
 -24 399 -30 400 -30 403 c 0
-189 718 m 1
 -189 178 l 1
 189 178 l 1
 189 718 l 1
 -189 718 l 1
-232 765 m 1
 232 765 l 1
 232 138 l 1
 -232 138 l 1
 -232 765 l 1
EndSplineSet
Validated: 1
Substitution2: "ccmpChangeCantillationsToCircle subtable" dottedcircle
EndChar

StartChar: darga
Encoding: 1447 1447 64
Width: 0
VWidth: 2273
GlyphClass: 4
Flags: MW
LayerCount: 2
Fore
SplineSet
-28 332 m 10
 0 360 l 18
 8 367 16 367 16 354 c 10
 16 324 l 18
 16 316 12 312 6 305 c 10
 -19 278 l 17
 -26 272 -34 274 -34 288 c 10
 -34 314 l 18
 -34 322 -33 326 -28 332 c 10
-30 403 m 0
 -30 429 38 468 38 510 c 0
 38 566 4 602 -34 602 c 0
 -75 602 -75 581 -86 581 c 0
 -92 581 -100 585 -100 590 c 0
 -100 592 -71 649 -5 649 c 3
 52 649 105 612 105 552 c 0
 105 478 43 453 15 404 c 0
 13 402 12 401 10 401 c 0
 6 400 -6 399 -16 399 c 0
 -24 399 -30 400 -30 403 c 0
-189 718 m 1
 -189 178 l 1
 189 178 l 1
 189 718 l 1
 -189 718 l 1
-232 765 m 1
 232 765 l 1
 232 138 l 1
 -232 138 l 1
 -232 765 l 1
EndSplineSet
Validated: 1
Substitution2: "ccmpChangeCantillationsToCircle subtable" dottedcircle
EndChar

StartChar: qadma
Encoding: 1448 1448 65
Width: 0
VWidth: 2273
GlyphClass: 4
Flags: MW
LayerCount: 2
Fore
SplineSet
-28 332 m 10
 0 360 l 18
 8 367 16 367 16 354 c 10
 16 324 l 18
 16 316 12 312 6 305 c 10
 -19 278 l 17
 -26 272 -34 274 -34 288 c 10
 -34 314 l 18
 -34 322 -33 326 -28 332 c 10
-30 403 m 0
 -30 429 38 468 38 510 c 0
 38 566 4 602 -34 602 c 0
 -75 602 -75 581 -86 581 c 0
 -92 581 -100 585 -100 590 c 0
 -100 592 -71 649 -5 649 c 3
 52 649 105 612 105 552 c 0
 105 478 43 453 15 404 c 0
 13 402 12 401 10 401 c 0
 6 400 -6 399 -16 399 c 0
 -24 399 -30 400 -30 403 c 0
-189 718 m 1
 -189 178 l 1
 189 178 l 1
 189 718 l 1
 -189 718 l 1
-232 765 m 1
 232 765 l 1
 232 138 l 1
 -232 138 l 1
 -232 765 l 1
EndSplineSet
Validated: 1
Substitution2: "ccmpChangeCantillationsToCircle subtable" dottedcircle
EndChar

StartChar: telishaqetana
Encoding: 1449 1449 66
Width: 0
VWidth: 2273
GlyphClass: 4
Flags: MW
LayerCount: 2
Fore
SplineSet
-28 332 m 10
 0 360 l 18
 8 367 16 367 16 354 c 10
 16 324 l 18
 16 316 12 312 6 305 c 10
 -19 278 l 17
 -26 272 -34 274 -34 288 c 10
 -34 314 l 18
 -34 322 -33 326 -28 332 c 10
-30 403 m 0
 -30 429 38 468 38 510 c 0
 38 566 4 602 -34 602 c 0
 -75 602 -75 581 -86 581 c 0
 -92 581 -100 585 -100 590 c 0
 -100 592 -71 649 -5 649 c 3
 52 649 105 612 105 552 c 0
 105 478 43 453 15 404 c 0
 13 402 12 401 10 401 c 0
 6 400 -6 399 -16 399 c 0
 -24 399 -30 400 -30 403 c 0
-189 718 m 1
 -189 178 l 1
 189 178 l 1
 189 718 l 1
 -189 718 l 1
-232 765 m 1
 232 765 l 1
 232 138 l 1
 -232 138 l 1
 -232 765 l 1
EndSplineSet
Validated: 1
Substitution2: "ccmpChangeCantillationsToCircle subtable" dottedcircle
EndChar

StartChar: yerahbenyomo
Encoding: 1450 1450 67
Width: 0
VWidth: 2273
GlyphClass: 4
Flags: MW
LayerCount: 2
Fore
SplineSet
-28 332 m 10
 0 360 l 18
 8 367 16 367 16 354 c 10
 16 324 l 18
 16 316 12 312 6 305 c 10
 -19 278 l 17
 -26 272 -34 274 -34 288 c 10
 -34 314 l 18
 -34 322 -33 326 -28 332 c 10
-30 403 m 0
 -30 429 38 468 38 510 c 0
 38 566 4 602 -34 602 c 0
 -75 602 -75 581 -86 581 c 0
 -92 581 -100 585 -100 590 c 0
 -100 592 -71 649 -5 649 c 3
 52 649 105 612 105 552 c 0
 105 478 43 453 15 404 c 0
 13 402 12 401 10 401 c 0
 6 400 -6 399 -16 399 c 0
 -24 399 -30 400 -30 403 c 0
-189 718 m 1
 -189 178 l 1
 189 178 l 1
 189 718 l 1
 -189 718 l 1
-232 765 m 1
 232 765 l 1
 232 138 l 1
 -232 138 l 1
 -232 765 l 1
EndSplineSet
Validated: 1
Substitution2: "ccmpChangeCantillationsToCircle subtable" dottedcircle
EndChar

StartChar: ole
Encoding: 1451 1451 68
Width: 0
VWidth: 2273
GlyphClass: 4
Flags: MW
LayerCount: 2
Fore
SplineSet
-28 332 m 10
 0 360 l 18
 8 367 16 367 16 354 c 10
 16 324 l 18
 16 316 12 312 6 305 c 10
 -19 278 l 17
 -26 272 -34 274 -34 288 c 10
 -34 314 l 18
 -34 322 -33 326 -28 332 c 10
-30 403 m 0
 -30 429 38 468 38 510 c 0
 38 566 4 602 -34 602 c 0
 -75 602 -75 581 -86 581 c 0
 -92 581 -100 585 -100 590 c 0
 -100 592 -71 649 -5 649 c 3
 52 649 105 612 105 552 c 0
 105 478 43 453 15 404 c 0
 13 402 12 401 10 401 c 0
 6 400 -6 399 -16 399 c 0
 -24 399 -30 400 -30 403 c 0
-189 718 m 1
 -189 178 l 1
 189 178 l 1
 189 718 l 1
 -189 718 l 1
-232 765 m 1
 232 765 l 1
 232 138 l 1
 -232 138 l 1
 -232 765 l 1
EndSplineSet
Validated: 1
Substitution2: "ccmpChangeCantillationsToCircle subtable" dottedcircle
EndChar

StartChar: iluy
Encoding: 1452 1452 69
Width: 0
VWidth: 2273
GlyphClass: 4
Flags: MW
LayerCount: 2
Fore
SplineSet
-28 332 m 10
 0 360 l 18
 8 367 16 367 16 354 c 10
 16 324 l 18
 16 316 12 312 6 305 c 10
 -19 278 l 17
 -26 272 -34 274 -34 288 c 10
 -34 314 l 18
 -34 322 -33 326 -28 332 c 10
-30 403 m 0
 -30 429 38 468 38 510 c 0
 38 566 4 602 -34 602 c 0
 -75 602 -75 581 -86 581 c 0
 -92 581 -100 585 -100 590 c 0
 -100 592 -71 649 -5 649 c 3
 52 649 105 612 105 552 c 0
 105 478 43 453 15 404 c 0
 13 402 12 401 10 401 c 0
 6 400 -6 399 -16 399 c 0
 -24 399 -30 400 -30 403 c 0
-189 718 m 1
 -189 178 l 1
 189 178 l 1
 189 718 l 1
 -189 718 l 1
-232 765 m 1
 232 765 l 1
 232 138 l 1
 -232 138 l 1
 -232 765 l 1
EndSplineSet
Validated: 1
Substitution2: "ccmpChangeCantillationsToCircle subtable" dottedcircle
EndChar

StartChar: dehi
Encoding: 1453 1453 70
Width: 0
VWidth: 2273
GlyphClass: 4
Flags: MW
LayerCount: 2
Fore
SplineSet
-28 332 m 10
 0 360 l 18
 8 367 16 367 16 354 c 10
 16 324 l 18
 16 316 12 312 6 305 c 10
 -19 278 l 17
 -26 272 -34 274 -34 288 c 10
 -34 314 l 18
 -34 322 -33 326 -28 332 c 10
-30 403 m 0
 -30 429 38 468 38 510 c 0
 38 566 4 602 -34 602 c 0
 -75 602 -75 581 -86 581 c 0
 -92 581 -100 585 -100 590 c 0
 -100 592 -71 649 -5 649 c 3
 52 649 105 612 105 552 c 0
 105 478 43 453 15 404 c 0
 13 402 12 401 10 401 c 0
 6 400 -6 399 -16 399 c 0
 -24 399 -30 400 -30 403 c 0
-189 718 m 1
 -189 178 l 1
 189 178 l 1
 189 718 l 1
 -189 718 l 1
-232 765 m 1
 232 765 l 1
 232 138 l 1
 -232 138 l 1
 -232 765 l 1
EndSplineSet
Validated: 1
Substitution2: "ccmpChangeCantillationsToCircle subtable" dottedcircle
EndChar

StartChar: tsinor
Encoding: 1454 1454 71
Width: 0
VWidth: 2273
GlyphClass: 4
Flags: MW
LayerCount: 2
Fore
SplineSet
-28 332 m 10
 0 360 l 18
 8 367 16 367 16 354 c 10
 16 324 l 18
 16 316 12 312 6 305 c 10
 -19 278 l 17
 -26 272 -34 274 -34 288 c 10
 -34 314 l 18
 -34 322 -33 326 -28 332 c 10
-30 403 m 0
 -30 429 38 468 38 510 c 0
 38 566 4 602 -34 602 c 0
 -75 602 -75 581 -86 581 c 0
 -92 581 -100 585 -100 590 c 0
 -100 592 -71 649 -5 649 c 3
 52 649 105 612 105 552 c 0
 105 478 43 453 15 404 c 0
 13 402 12 401 10 401 c 0
 6 400 -6 399 -16 399 c 0
 -24 399 -30 400 -30 403 c 0
-189 718 m 1
 -189 178 l 1
 189 178 l 1
 189 718 l 1
 -189 718 l 1
-232 765 m 1
 232 765 l 1
 232 138 l 1
 -232 138 l 1
 -232 765 l 1
EndSplineSet
Validated: 1
Substitution2: "ccmpChangeCantillationsToCircle subtable" dottedcircle
EndChar

StartChar: masoracircle
Encoding: 1455 1455 72
Width: 0
VWidth: 2273
GlyphClass: 4
Flags: MW
LayerCount: 2
Fore
SplineSet
-28 332 m 10
 0 360 l 18
 8 367 16 367 16 354 c 10
 16 324 l 18
 16 316 12 312 6 305 c 10
 -19 278 l 17
 -26 272 -34 274 -34 288 c 10
 -34 314 l 18
 -34 322 -33 326 -28 332 c 10
-30 403 m 0
 -30 429 38 468 38 510 c 0
 38 566 4 602 -34 602 c 0
 -75 602 -75 581 -86 581 c 0
 -92 581 -100 585 -100 590 c 0
 -100 592 -71 649 -5 649 c 3
 52 649 105 612 105 552 c 0
 105 478 43 453 15 404 c 0
 13 402 12 401 10 401 c 0
 6 400 -6 399 -16 399 c 0
 -24 399 -30 400 -30 403 c 0
-189 718 m 1
 -189 178 l 1
 189 178 l 1
 189 718 l 1
 -189 718 l 1
-232 765 m 1
 232 765 l 1
 232 138 l 1
 -232 138 l 1
 -232 765 l 1
EndSplineSet
Validated: 1
Substitution2: "ccmpChangeCantillationsToCircle subtable" dottedcircle
EndChar

StartChar: sheva
Encoding: 1456 1456 73
Width: 0
GlyphClass: 4
Flags: W
HStem: -595 207<49.3187 177.216> -351 207<-5.2157 120.669>
VStem: -38 190<-318.822 -174.996> 18 192<-564.004 -420.178>
AnchorPoint: "m2m1" -172 0 basemark 0
AnchorPoint: "kaf" 0 0 mark 0
AnchorPoint: "N" 0 0 mark 0
LayerCount: 2
Fore
SplineSet
90 -388 m 0xd0
 154 -388 210 -451 210 -520 c 0
 210 -564 182 -595 138 -595 c 0
 72 -595 18 -533 18 -464 c 0
 18 -419 46 -388 90 -388 c 0xd0
34 -144 m 0
 98 -144 152 -206 152 -275 c 0
 152 -320 126 -351 82 -351 c 0
 18 -351 -38 -288 -38 -219 c 0xe0
 -38 -175 -10 -144 34 -144 c 0
EndSplineSet
Ligature2: "ccmpRemoveCircles subtable" sheva dottedcircle
Ligature2: "ccmpRemoveCircles subtable" dottedcircle sheva
LCarets2: 1 0 
EndChar

StartChar: hatafsegol
Encoding: 1457 1457 74
Width: 0
GlyphClass: 4
Flags: W
HStem: -594 206<-90.2863 36.9331 274.97 399.427> -350 206<-259.886 -132.62 -32.8315 92.6796 218.517 345.236>
VStem: -292 191<-318.506 -174.996> -121 191<-563.411 -421.073> -65 190<-319.312 -175.689> 187 190<-320.141 -175.688> 243 191<-563.765 -422.073>
AnchorPoint: "m2m1" -420 0 basemark 0
AnchorPoint: "H" 0 0 mark 0
LayerCount: 2
Fore
SplineSet
315 -389 m 0xc2
 376 -389 434 -451 434 -520 c 0
 434 -563 407 -594 363 -594 c 0
 299 -594 243 -534 243 -465 c 0
 243 -420 271 -389 315 -389 c 0xc2
259 -145 m 0
 321 -145 377 -206 377 -276 c 0
 377 -320 351 -350 306 -350 c 0
 242 -350 187 -291 187 -221 c 0xc4
 187 -176 214 -145 259 -145 c 0
52 -350 m 0
 -13 -350 -65 -286 -65 -218 c 0
 -65 -175 -40 -144 5 -144 c 0
 68 -144 125 -206 125 -274 c 0xc8
 125 -319 97 -350 52 -350 c 0
-3 -594 m 0
 -68 -594 -121 -533 -121 -464 c 0
 -121 -420 -95 -388 -51 -388 c 0
 12 -388 70 -450 70 -519 c 0xd0
 70 -563 42 -594 -3 -594 c 0
-174 -350 m 0
 -235 -350 -292 -289 -292 -219 c 0
 -292 -176 -265 -144 -221 -144 c 0
 -156 -144 -101 -206 -101 -275 c 0xe0
 -101 -320 -129 -350 -174 -350 c 0
EndSplineSet
Ligature2: "ccmpRemoveCircles subtable" hatafsegol dottedcircle
Ligature2: "ccmpRemoveCircles subtable" dottedcircle hatafsegol
LCarets2: 1 0 
EndChar

StartChar: hatafpatah
Encoding: 1458 1458 75
Width: 0
GlyphClass: 4
Flags: W
HStem: -596 207<275.414 401.66> -352 207<219.331 344.942> -319 162<-281.368 112.378>
VStem: 188 189<-321.004 -176.123> 244 190<-565.004 -420.123>
AnchorPoint: "m2m1" -420 0 basemark 0
AnchorPoint: "H" 0 0 mark 0
LayerCount: 2
Fore
SplineSet
113 -203 m 1xa0
 113 -226 134 -278 134 -300 c 0
 134 -318 122 -319 87 -319 c 2
 -218 -319 l 2
 -266 -319 -272 -317 -283 -270 c 0
 -284 -267 -298 -206 -298 -203 c 0
 -301 -193 -302 -184 -302 -178 c 0
 -302 -158 -288 -157 -251 -157 c 2
 45 -157 l 2
 93 -157 102 -158 113 -203 c 1xa0
314 -389 m 0
 378 -389 434 -451 434 -521 c 0
 434 -565 407 -596 362 -596 c 0
 299 -596 244 -534 244 -465 c 0x88
 244 -421 270 -389 314 -389 c 0
258 -145 m 0xd0
 322 -145 377 -207 377 -277 c 0
 377 -321 350 -352 306 -352 c 0
 242 -352 188 -290 188 -221 c 0
 188 -177 214 -145 258 -145 c 0xd0
EndSplineSet
Ligature2: "ccmpRemoveCircles subtable" hatafpatah dottedcircle
Ligature2: "ccmpRemoveCircles subtable" dottedcircle hatafpatah
LCarets2: 1 0 
EndChar

StartChar: hatafqamats
Encoding: 1459 1459 76
Width: 0
GlyphClass: 4
Flags: W
HStem: -585 207<272.867 399.387> -341 207<216.34 342.66> -314 162<-282.368 -119 -15 109.511>
VStem: -119 104<-428.812 -314> 184 191<-309.066 -165.08> 241 190<-554.539 -409.123>
AnchorPoint: "m2m1" -420 0 basemark 0
AnchorPoint: "H" 0 0 mark 0
LayerCount: 2
Fore
SplineSet
-15 -314 m 1xb0
 -3 -366 l 2
 -1 -374 14 -412 19 -416 c 1
 88 -498 l 1
 82 -526 73 -564 29 -590 c 1
 7 -590 -15 -590 -37 -590 c 1
 -89 -566 -114 -532 -138 -498 c 1
 -107 -416 l 1
 -104 -412 -105 -372 -107 -366 c 2
 -119 -314 l 1
 -219 -314 l 2
 -267 -314 -273 -312 -284 -266 c 0
 -289 -246 -303 -194 -303 -174 c 0
 -303 -153 -289 -152 -252 -152 c 2
 44 -152 l 2
 92 -152 100 -154 110 -198 c 0
 115 -220 133 -273 133 -294 c 0
 133 -313 120 -314 85 -314 c 2
 -15 -314 l 1xb0
312 -378 m 0
 376 -378 431 -440 431 -510 c 0
 431 -554 405 -585 360 -585 c 0
 297 -585 241 -525 241 -454 c 0x94
 241 -410 267 -378 312 -378 c 0
256 -134 m 0xd8
 320 -134 375 -196 375 -266 c 0
 375 -310 348 -341 303 -341 c 0
 240 -341 184 -278 184 -209 c 0
 184 -165 211 -134 256 -134 c 0xd8
EndSplineSet
Ligature2: "ccmpRemoveCircles subtable" hatafqamats dottedcircle
Ligature2: "ccmpRemoveCircles subtable" dottedcircle hatafqamats
LCarets2: 1 0 
EndChar

StartChar: hiriq
Encoding: 1460 1460 77
Width: 0
GlyphClass: 4
Flags: W
HStem: -351 207<-7.37997 121.329>
VStem: -39 193<-319.681 -176.736>
AnchorPoint: "m2m1" -172 0 basemark 0
AnchorPoint: "N" 0 0 mark 0
LayerCount: 2
Fore
SplineSet
34 -144 m 0
 96 -144 154 -205 154 -275 c 0
 154 -320 124 -351 81 -351 c 0
 16 -351 -39 -288 -39 -220 c 0
 -39 -175 -11 -144 34 -144 c 0
EndSplineSet
Substitution2: "HiriqAfterPatahQamatsTable subtable" hiriq.J
Ligature2: "ccmpRemoveCircles subtable" hiriq dottedcircle
Ligature2: "ccmpRemoveCircles subtable" dottedcircle hiriq
Ligature2: "ccmpRemoveOldFontsZerojoins subtable" zerojoin hiriq
LCarets2: 1 0 
EndChar

StartChar: tsere
Encoding: 1461 1461 78
Width: 0
GlyphClass: 4
Flags: W
HStem: -351 207<-118.66 7.65982 107.34 233.66>
VStem: -151 191<-319.92 -174.996> 75 191<-319.877 -175.319>
AnchorPoint: "m2m1" -296 0 basemark 0
AnchorPoint: "W" 0 0 mark 0
LayerCount: 2
Fore
SplineSet
194 -351 m 0
 131 -351 75 -289 75 -219 c 0
 75 -175 102 -144 147 -144 c 0
 211 -144 266 -207 266 -275 c 0
 266 -319 239 -351 194 -351 c 0
-32 -351 m 0
 -96 -351 -151 -289 -151 -219 c 0
 -151 -175 -124 -144 -79 -144 c 0
 -16 -144 40 -206 40 -275 c 0
 40 -320 13 -351 -32 -351 c 0
EndSplineSet
Ligature2: "ccmpRemoveCircles subtable" tsere dottedcircle
Ligature2: "ccmpRemoveCircles subtable" dottedcircle tsere
LCarets2: 1 0 
EndChar

StartChar: segol
Encoding: 1462 1462 79
Width: 0
GlyphClass: 4
Flags: W
HStem: -585 207<46.511 172.942> -351 207<-120.66 5.65982 105.34 231.66>
VStem: -153 191<-319.92 -174.996> 13 192<-551.253 -409.08> 73 191<-319.877 -175.319>
AnchorPoint: "m2m1" -296 0 basemark 0
AnchorPoint: "W" 0 0 mark 0
LayerCount: 2
Fore
SplineSet
192 -351 m 0xc8
 129 -351 73 -289 73 -219 c 0
 73 -175 100 -144 145 -144 c 0
 209 -144 264 -207 264 -275 c 0
 264 -319 237 -351 192 -351 c 0xc8
134 -585 m 0
 70 -585 13 -521 13 -454 c 0
 13 -409 42 -378 86 -378 c 0
 150 -378 205 -440 205 -510 c 0xd0
 205 -554 178 -585 134 -585 c 0
-34 -351 m 0
 -98 -351 -153 -289 -153 -219 c 0
 -153 -175 -126 -144 -81 -144 c 0
 -18 -144 38 -206 38 -275 c 0xe0
 38 -320 11 -351 -34 -351 c 0
EndSplineSet
Ligature2: "ccmpRemoveCircles subtable" segol dottedcircle
Ligature2: "ccmpRemoveCircles subtable" dottedcircle segol
LCarets2: 1 0 
EndChar

StartChar: patah
Encoding: 1463 1463 80
Width: 0
GlyphClass: 4
Flags: W
HStem: -306 162<-144.924 248.531>
VStem: -166 436<-302.486 -148.175>
AnchorPoint: "pg" 0 0 mark 0
AnchorPoint: "m2m1" -296 0 basemark 0
AnchorPoint: "W" 0 0 mark 0
LayerCount: 2
Fore
SplineSet
-81 -306 m 2
 -129 -306 -136 -304 -146 -257 c 1
 -152 -239 -166 -183 -166 -165 c 0
 -166 -145 -151 -144 -115 -144 c 2
 181 -144 l 2
 229 -144 239 -145 249 -190 c 1
 256 -211 270 -265 270 -287 c 0
 270 -305 258 -306 224 -306 c 2
 -81 -306 l 2
EndSplineSet
Ligature2: "ccmpRemoveCircles subtable" patah dottedcircle
Ligature2: "ccmpRemoveCircles subtable" dottedcircle patah
LCarets2: 1 0 
EndChar

StartChar: qamats
Encoding: 1464 1464 81
Width: 0
GlyphClass: 4
Flags: W
HStem: -305 162<-145.924 18 122 247.531>
VStem: 18 104<-419.656 -305>
AnchorPoint: "m2m1" -296 0 basemark 0
AnchorPoint: "kaf" 0 0 mark 0
AnchorPoint: "W" 0 0 mark 0
LayerCount: 2
Fore
SplineSet
122 -305 m 1
 134 -357 l 2
 135 -364 151 -403 156 -407 c 1
 225 -488 l 1
 219 -517 211 -555 166 -580 c 1
 160 -580 l 2
 146 -580 136 -581 134 -581 c 0
 132 -581 117 -580 106 -580 c 2
 100 -580 l 1
 49 -557 24 -523 0 -489 c 1
 30 -407 l 2
 33 -402 31 -363 30 -357 c 2
 18 -305 l 1
 -82 -305 l 2
 -130 -305 -137 -303 -147 -256 c 1
 -153 -238 -167 -182 -167 -164 c 0
 -167 -144 -152 -143 -116 -143 c 2
 180 -143 l 2
 228 -143 238 -144 248 -189 c 1
 255 -210 269 -264 269 -286 c 0
 269 -304 257 -305 223 -305 c 2
 122 -305 l 1
EndSplineSet
Ligature2: "ccmpRemoveCircles subtable" qamats dottedcircle
Ligature2: "ccmpRemoveCircles subtable" dottedcircle qamats
LCarets2: 1 0 
EndChar

StartChar: holam
Encoding: 1465 1465 82
Width: 0
GlyphClass: 4
Flags: W
HStem: 1262 208<-377.039 -252.058>
VStem: -411 191<1294.62 1438.6>
AnchorPoint: "hoqa" 0 0 mark 0
AnchorPoint: "Holam" -92 0 mark 0
LayerCount: 2
Fore
SplineSet
-339 1470 m 0
 -275 1470 -220 1407 -220 1338 c 0
 -220 1294 -247 1262 -291 1262 c 0
 -355 1262 -411 1326 -411 1394 c 0
 -411 1438 -384 1470 -339 1470 c 0
EndSplineSet
LCarets2: 1 0 
Ligature2: "ccmpRemoveCircles subtable" holam dottedcircle
Ligature2: "ccmpRemoveCircles subtable" dottedcircle holam
EndChar

StartChar: qubuts
Encoding: 1467 1467 83
Width: 0
GlyphClass: 4
Flags: W
HStem: -610 192<214.381 336.156> -474 192<25.1805 146.82> -340 193<-162.156 -40.8542>
VStem: -190 178<-313.011 -174.449> -3 178<-447.086 -308.68> 188 176<-583.395 -445.064>
AnchorPoint: "m2m1" -350 0 basemark 0
AnchorPoint: "W" -50 0 mark 0
LayerCount: 2
Fore
SplineSet
-123 -147 m 0x3c
 -67 -147 -12 -204 -12 -268 c 0
 -12 -309 -38 -340 -79 -340 c 0
 -138 -340 -190 -282 -190 -219 c 0
 -190 -179 -167 -147 -123 -147 c 0x3c
253 -418 m 0x9c
 312 -418 364 -476 364 -540 c 0
 364 -581 339 -610 297 -610 c 0
 240 -610 188 -553 188 -490 c 0
 188 -451 209 -418 253 -418 c 0x9c
64 -282 m 0x5c
 122 -282 175 -339 175 -403 c 0
 175 -443 150 -474 108 -474 c 0
 50 -474 -3 -416 -3 -354 c 0
 -3 -315 20 -282 64 -282 c 0x5c
EndSplineSet
Ligature2: "ccmpRemoveCircles subtable" qubuts dottedcircle
Ligature2: "ccmpRemoveCircles subtable" dottedcircle qubuts
LCarets2: 1 0 
EndChar

StartChar: dagesh
Encoding: 1468 1468 84
Width: 0
GlyphClass: 4
Flags: W
HStem: 445 208<-189.942 -63.1668>
VStem: -222 190<476.486 622.004>
AnchorPoint: "D" 0 0 mark 0
LayerCount: 2
Fore
SplineSet
-151 653 m 0
 -86 653 -32 591 -32 522 c 0
 -32 478 -59 445 -103 445 c 0
 -168 445 -222 508 -222 578 c 0
 -222 622 -195 653 -151 653 c 0
EndSplineSet
EndChar

StartChar: meteg
Encoding: 1469 1469 85
Width: 0
VWidth: 2273
GlyphClass: 4
Flags: W
HStem: 138 40<-189 189> 602 47<-70.8391 13.6032> 718 47<-189 189>
VStem: -232 43<178 718> -34 50<288.969 350.812> 38 67<470.32 587.792> 189 43<178 718>
LayerCount: 2
Fore
SplineSet
-28 332 m 10
 0 360 l 18
 8 367 16 367 16 354 c 10
 16 324 l 18
 16 316 12 312 6 305 c 10
 -19 278 l 17
 -26 272 -34 274 -34 288 c 10
 -34 314 l 18
 -34 322 -33 326 -28 332 c 10
-30 403 m 0
 -30 429 38 468 38 510 c 0
 38 566 4 602 -34 602 c 0
 -75 602 -75 581 -86 581 c 0
 -92 581 -100 585 -100 590 c 0
 -100 592 -71 649 -5 649 c 3
 52 649 105 612 105 552 c 0
 105 478 43 453 15 404 c 0
 13 402 12 401 10 401 c 0
 6 400 -6 399 -16 399 c 0
 -24 399 -30 400 -30 403 c 0
-189 718 m 1
 -189 178 l 1
 189 178 l 1
 189 718 l 1
 -189 718 l 1
-232 765 m 1
 232 765 l 1
 232 138 l 1
 -232 138 l 1
 -232 765 l 1
EndSplineSet
Validated: 1
Ligature2: "ccmpRemoveCircles subtable" meteg dottedcircle
Ligature2: "ccmpRemoveCircles subtable" dottedcircle meteg
Substitution2: "ccmpChangeCantillationsToCircle subtable" dottedcircle
Ligature2: "ccmpRemoveOldFontsZerojoins subtable" zerojoin meteg
Ligature2: "ccmpRemoveOldFontsZerojoins subtable" meteg zerojoin
LCarets2: 1 0 
EndChar

StartChar: makaf
Encoding: 1470 1470 86
Width: 1051
GlyphClass: 1
Flags: W
HStem: 822 256<-51.8953 688.275>
LayerCount: 2
Fore
SplineSet
41 822 m 2
 -35 822 -45 829 -62 903 c 0
 -64 908 -86 1004 -87 1009 c 0
 -91 1025 -93 1038 -93 1047 c 0
 -93 1077 -73 1078 -24 1078 c 2
 589 1078 l 2
 664 1078 680 1076 696 1005 c 0
 697 1000 721 903 721 899 c 0
 726 878 729 863 729 852 c 0
 729 824 710 822 656 822 c 2
 41 822 l 2
EndSplineSet
EndChar

StartChar: rafe
Encoding: 1471 1471 87
Width: 0
GlyphClass: 4
Flags: W
HStem: 1221 162<-518.492 -83.5481>
VStem: -539 477<1224.97 1378.33>
AnchorPoint: "R" 0 0 mark 0
LayerCount: 2
Fore
SplineSet
-449 1221 m 2
 -502 1221 -509 1223 -520 1270 c 1
 -526 1288 -539 1342 -539 1361 c 0
 -539 1382 -524 1383 -482 1383 c 2
 -156 1383 l 2
 -103 1383 -93 1382 -83 1337 c 1
 -76 1316 -62 1263 -62 1241 c 0
 -62 1222 -75 1221 -114 1221 c 2
 -449 1221 l 2
EndSplineSet
Substitution2: "saltStylisticAlternatives subtable" jsvarika
EndChar

StartChar: paseq
Encoding: 1472 1472 88
Width: 0
VWidth: 2273
GlyphClass: 1
Flags: W
HStem: 138 40<-189 189> 602 47<-70.8391 13.6032> 718 47<-189 189>
VStem: -232 43<178 718> -34 50<288.969 350.812> 38 67<470.32 587.792> 189 43<178 718>
LayerCount: 2
Fore
SplineSet
-28 332 m 10
 0 360 l 18
 8 367 16 367 16 354 c 10
 16 324 l 18
 16 316 12 312 6 305 c 10
 -19 278 l 17
 -26 272 -34 274 -34 288 c 10
 -34 314 l 18
 -34 322 -33 326 -28 332 c 10
-30 403 m 0
 -30 429 38 468 38 510 c 0
 38 566 4 602 -34 602 c 0
 -75 602 -75 581 -86 581 c 0
 -92 581 -100 585 -100 590 c 0
 -100 592 -71 649 -5 649 c 3
 52 649 105 612 105 552 c 0
 105 478 43 453 15 404 c 0
 13 402 12 401 10 401 c 0
 6 400 -6 399 -16 399 c 0
 -24 399 -30 400 -30 403 c 0
-189 718 m 1
 -189 178 l 1
 189 178 l 1
 189 718 l 1
 -189 718 l 1
-232 765 m 1
 232 765 l 1
 232 138 l 1
 -232 138 l 1
 -232 765 l 1
EndSplineSet
Validated: 1
Substitution2: "ccmpChangeCantillationsToCircle subtable" dottedcircle
EndChar

StartChar: shindot
Encoding: 1473 1473 89
Width: 0
GlyphClass: 4
Flags: W
HStem: 1090 207<-339.329 -211.024>
VStem: -372 193<1122.74 1264.82>
AnchorPoint: "Shin_Dot" 0 0 mark 0
LayerCount: 2
Fore
SplineSet
-299 1297 m 0
 -235 1297 -179 1234 -179 1167 c 0
 -179 1122 -208 1090 -252 1090 c 0
 -314 1090 -372 1151 -372 1221 c 0
 -372 1266 -345 1297 -299 1297 c 0
EndSplineSet
EndChar

StartChar: sofpasuq
Encoding: 1475 1475 91
Width: 561
VWidth: 1949
GlyphClass: 1
Flags: W
HStem: 0 21G<267 293>
VStem: -105 525
LayerCount: 2
Fore
SplineSet
318 283 m 0
 382 231 414 205 420 179 c 0
 420 176 421 173 421 170 c 0
 421 147 401 121 366 76 c 0
 326 25 306 0 280 0 c 0
 254 0 222 26 159 76 c 0
 95 127 58 151 58 188 c 0
 58 212 77 238 111 283 c 0
 150 334 171 360 197 360 c 0
 223 360 255 334 318 283 c 0
154 991 m 0
 218 939 250 912 256 886 c 0
 257 883 257 880 257 877 c 0
 257 854 238 829 203 784 c 0
 163 733 143 708 117 708 c 0
 91 708 59 734 -4 784 c 0
 -70 837 -105 859 -105 893 c 0
 -105 916 -88 944 -53 991 c 0
 -14 1042 7 1068 33 1068 c 0
 59 1068 91 1042 154 991 c 0
EndSplineSet
EndChar

StartChar: upperdot
Encoding: 1476 1476 92
Width: 0
VWidth: 2273
GlyphClass: 4
Flags: W
HStem: 138 40<-189 189> 602 47<-70.8391 13.6032> 718 47<-189 189>
VStem: -232 43<178 718> -34 50<288.969 350.812> 38 67<470.32 587.792> 189 43<178 718>
LayerCount: 2
Fore
SplineSet
-28 332 m 10
 0 360 l 18
 8 367 16 367 16 354 c 10
 16 324 l 18
 16 316 12 312 6 305 c 10
 -19 278 l 17
 -26 272 -34 274 -34 288 c 10
 -34 314 l 18
 -34 322 -33 326 -28 332 c 10
-30 403 m 0
 -30 429 38 468 38 510 c 0
 38 566 4 602 -34 602 c 0
 -75 602 -75 581 -86 581 c 0
 -92 581 -100 585 -100 590 c 0
 -100 592 -71 649 -5 649 c 3
 52 649 105 612 105 552 c 0
 105 478 43 453 15 404 c 0
 13 402 12 401 10 401 c 0
 6 400 -6 399 -16 399 c 0
 -24 399 -30 400 -30 403 c 0
-189 718 m 1
 -189 178 l 1
 189 178 l 1
 189 718 l 1
 -189 718 l 1
-232 765 m 1
 232 765 l 1
 232 138 l 1
 -232 138 l 1
 -232 765 l 1
EndSplineSet
Validated: 1
Substitution2: "ccmpChangeCantillationsToCircle subtable" dottedcircle
EndChar

StartChar: alef
Encoding: 1488 1488 93
Width: 1335
GlyphClass: 1
Flags: W
HStem: -21 21G<1132.04 1164.5> 0 270<258.214 510.989>
AnchorPoint: "hoqa" -320.139 0.599609 basechar 0
AnchorPoint: "E1" 590 0 basechar 0
AnchorPoint: "H" 750 0 basechar 0
AnchorPoint: "W" 750 0 basechar 0
AnchorPoint: "N" 700 0 basechar 0
AnchorPoint: "Holam" 0 0 basechar 0
AnchorPoint: "R" 600 0 basechar 0
AnchorPoint: "D" 833.891 -450 basechar 0
LayerCount: 2
Fore
SplineSet
783 821 m 0x40
 745 821 677 697 676 652 c 1
 957 434 l 1
 1126 308 1127 297 1162 145 c 0
 1173 96 1183 50 1183 21 c 0
 1183 2 1170 -21 1159 -21 c 1x80
 229 669 l 1
 217 669 194 647 198 625 c 2
 248 354 l 18
 261 283 277 270 341 270 c 0
 361 270 381 270 401 270 c 0
 497 270 511 257 534 150 c 0
 542 112 549 84 549 62 c 0
 549 11 512 -0 376 0 c 0
 204 0 183 0 137 198 c 0
 78 456 74 548 15 806 c 1
 -66 852 -67 845 -99 988 c 0
 -110 1036 -134 1132 -134 1165 c 0
 -134 1185 -123 1205 -111 1205 c 1
 517 746 l 1
 538 746 559 777 582 840 c 2
 665 1058 l 1
 696 1137 717 1166 743 1166 c 0
 772 1166 808 1132 871 1092 c 0
 986 1018 986 1000 1010 890 c 0
 1019 851 1035 798 1035 762 c 0
 1035 739 1027 731 1009 731 c 0
 979 731 829 821 783 821 c 0x40
EndSplineSet
Substitution2: "jaltJustificationAlternatives subtable" alef.wide
EndChar

StartChar: bet
Encoding: 1489 1489 94
Width: 1152
GlyphClass: 1
Flags: W
AnchorPoint: "hoqa" -320.139 0.599609 basechar 0
AnchorPoint: "E1" 480 0 basechar 0
AnchorPoint: "H" 600 0 basechar 0
AnchorPoint: "W" 601 0 basechar 0
AnchorPoint: "N" 600 0 basechar 0
AnchorPoint: "Holam" 0 0 basechar 0
AnchorPoint: "R" 567 0 basechar 0
AnchorPoint: "D" 500 0 basechar 0
LayerCount: 2
Fore
SplineSet
906 338 m 0
 985 338 1004 338 1027 236 c 1
 1037 189 l 2
 1045 150 1052 121 1052 100 c 0
 1052 57 1024 44 918 31 c 2
 268 -47 l 1
 227 -53 195 -58 169 -58 c 0
 111 -58 84 -32 65 77 c 0
 57 124 45 159 45 185 c 0
 45 221 68 240 152 249 c 2
 582 297 l 1
 689 313 733 303 733 349 c 0
 733 357 732 367 729 379 c 0
 725 397 717 419 709 445 c 2
 643 657 l 1
 602 793 584 811 442 828 c 2
 16 878 l 1
 -30 890 -39 868 -61 963 c 0
 -64 973 -66 984 -69 997 c 2
 -97 1125 l 1
 -97 1128 -97 1130 -97 1133 c 0
 -97 1159 -92 1180 -85 1202 c 1
 -44 1162 11 1133 88 1123 c 2
 512 1069 l 1
 709 1049 711 1048 753 884 c 2
 851 501 l 1
 894 359 878 338 906 338 c 0
EndSplineSet
EndChar

StartChar: gimel
Encoding: 1490 1490 95
Width: 795
GlyphClass: 1
Flags: W
HStem: -20 21G<560 586.5>
VStem: 264 142<716 830.81> 275 164<705.536 880.5>
AnchorPoint: "hoqa" -320.139 0.599609 basechar 0
AnchorPoint: "E1" 470 0 basechar 0
AnchorPoint: "H" 400 0 basechar 0
AnchorPoint: "W" 403 0 basechar 0
AnchorPoint: "N" 400 0 basechar 0
AnchorPoint: "Holam" 60 0 basechar 0
AnchorPoint: "R" 438.457 50 basechar 0
AnchorPoint: "D" 276 0 basechar 0
LayerCount: 2
Fore
SplineSet
558 569 m 1xc0
 560 570 561 570 562 570 c 0
 591 570 620 381 626 357 c 1
 626 337 619 320 600 294 c 1
 683 125 l 1
 683 96 600 -19 573 -20 c 0
 547 -20 520 34 459 181 c 1
 116 -103 l 1
 85 -103 40 92 40 135 c 0
 40 177 61 194 119 239 c 2
 358 425 l 1
 268 655 l 1
 265 662 264 670 264 679 c 0xc0
 264 708 275 744 275 764 c 0
 275 792 265 816 227 829 c 2
 82 880 l 2
 -18 915 -15 915 -32 985 c 2
 -68 1141 l 1
 -68 1171 -54 1199 -34 1210 c 1
 -4 1186 30 1160 59 1150 c 2
 328 1054 l 1
 404 1025 408 1022 426 945 c 0
 434 908 439 889 439 872 c 0xa0
 439 855 425 814 414 780 c 1
 410 767 406 745 406 730 c 0
 406 724 407 719 408 716 c 1
 490 533 l 1
 523 555 544 569 558 569 c 1xc0
EndSplineSet
EndChar

StartChar: dalet
Encoding: 1491 1491 96
Width: 1171
GlyphClass: 1
Flags: W
HStem: 866 263<-78.3871 609.475>
AnchorPoint: "hoqa" -320.139 0.599609 basechar 0
AnchorPoint: "E2" 532 0 basechar 0
AnchorPoint: "E1" 744 0 basechar 0
AnchorPoint: "H" 860 0 basechar 0
AnchorPoint: "W" 874 0 basechar 0
AnchorPoint: "N" 900 0 basechar 0
AnchorPoint: "Holam" 0 0 basechar 0
AnchorPoint: "R" 580 0 basechar 0
AnchorPoint: "D" 500 0 basechar 0
LayerCount: 2
Fore
SplineSet
837 952 m 0
 841 938 843 927 843 918 c 0
 843 889 821 880 760 860 c 1
 937 232 l 2
 949 188 963 162 963 119 c 0
 963 79 940 56 884 -4 c 1
 860 -28 846 -45 834 -45 c 0
 813 -45 800 7 767 150 c 2
 624 771 l 2
 603 861 602 866 490 866 c 0
 344 866 198 866 52 866 c 0
 -77 866 -80 874 -100 966 c 2
 -133 1115 l 2
 -136 1127 -137 1138 -137 1149 c 0
 -137 1172 -129 1190 -109 1201 c 1
 -54 1146 -7 1129 35 1129 c 2
 607 1129 l 1
 660 1130 700 1168 748 1193 c 1
 809 1162 817 1028 837 952 c 0
EndSplineSet
Substitution2: "jaltJustificationAlternatives subtable" daled.wide
EndChar

StartChar: he
Encoding: 1492 1492 97
Width: 1319
GlyphClass: 1
Flags: W
HStem: 869 263<-71.633 776.458>
VStem: 137 200<-3.35645 156.3>
AnchorPoint: "hoqa" -320.139 0.599609 basechar 0
AnchorPoint: "pg" 1150 0 basechar 0
AnchorPoint: "E1" 573 0 basechar 0
AnchorPoint: "H" 650 0 basechar 0
AnchorPoint: "W" 650 0 basechar 0
AnchorPoint: "N" 650 0 basechar 0
AnchorPoint: "Holam" 0 0 basechar 0
AnchorPoint: "R" 640 0 basechar 0
AnchorPoint: "D" 650 0 basechar 0
LayerCount: 2
Fore
SplineSet
1001 -42 m 0
 980 -42 967 10 934 153 c 2
 790 774 l 1
 778 860 754 869 675 869 c 0
 669 869 663 869 656 869 c 2
 67 863 l 2
 54 863 43 862 33 862 c 0
 -63 862 -67 880 -85 963 c 2
 -119 1112 l 2
 -121 1124 -123 1134 -123 1144 c 0
 -123 1168 -115 1187 -95 1198 c 1
 -39 1143 8 1126 50 1126 c 2
 774 1132 l 2
 827 1133 843 1158 890 1183 c 1
 904 1183 935 1141 942 1109 c 2
 975 960 l 1
 980 940 984 924 984 911 c 0
 984 888 971 874 927 863 c 1
 1104 235 l 2
 1116 191 1129 165 1129 122 c 0
 1129 82 1106 60 1050 0 c 0
 1027 -24 1013 -42 1001 -42 c 0
78 660 m 0
 108 703 125 722 137 722 c 0
 158 722 167 670 196 576 c 2
 308 204 l 1
 322 153 337 122 337 74 c 0
 337 37 318 21 276 -21 c 0
 238 -58 215 -77 199 -77 c 0
 171 -77 164 -20 137 94 c 2
 56 446 l 1
 45 501 37 533 37 561 c 0
 37 592 47 616 78 660 c 0
EndSplineSet
Substitution2: "jaltJustificationAlternatives subtable" he.wide
EndChar

StartChar: vav
Encoding: 1493 1493 98
Width: 648
GlyphClass: 1
Flags: W
VStem: 386 123<-53.8846 52.0485>
AnchorPoint: "hoqa" -320.139 0.599609 basechar 0
AnchorPoint: "E1" 290 0 basechar 0
AnchorPoint: "H" 350 0 basechar 0
AnchorPoint: "W" 451 0 basechar 0
AnchorPoint: "N" 450.924 -4 basechar 0
AnchorPoint: "Holam" 0 0 basechar 0
AnchorPoint: "D" 190 0 basechar 0
LayerCount: 2
Fore
SplineSet
-158 1127 m 1
 -162 1140 -165 1159 -165 1177 c 0
 -165 1202 -159 1224 -139 1224 c 0
 -138 1224 -137 1224 -135 1224 c 1
 -99 1188 -69 1170 -39 1161 c 2
 105 1116 l 2
 242 1074 291 970 303 918 c 2
 502 58 l 1
 509 -15 l 1
 506 -42 474 -58 451 -58 c 0
 426 -58 398 -39 386 4 c 2
 167 738 l 1
 146 800 130 842 21 874 c 0
 -72 902 -112 922 -125 978 c 2
 -158 1127 l 1
EndSplineSet
EndChar

StartChar: zayin
Encoding: 1494 1494 99
Width: 637
GlyphClass: 1
Flags: W
VStem: 71 125<639.171 823.996>
AnchorPoint: "hoqa" -320.139 0.599609 basechar 0
AnchorPoint: "E1" 530 0 basechar 0
AnchorPoint: "H" 350 0 basechar 0
AnchorPoint: "W" 369 0 basechar 0
AnchorPoint: "N" 390 0 basechar 0
AnchorPoint: "Holam" -4.61719 20 basechar 0
AnchorPoint: "D" 100 0 basechar 0
LayerCount: 2
Fore
SplineSet
98 585 m 1
 95 597 71 661 71 691 c 0
 71 692 71 693 71 694 c 0
 73 730 82 756 82 786 c 0
 82 798 81 810 77 824 c 0
 65 869 5 874 -34 886 c 0
 -81 900 -110 922 -128 1002 c 2
 -158 1131 l 1
 -158 1143 -161 1166 -161 1188 c 0
 -161 1210 -158 1229 -144 1229 c 0
 -143 1229 -141 1229 -140 1229 c 1
 -105 1192 -69 1169 -29 1156 c 2
 202 1080 l 2
 276 1055 282 1052 296 985 c 2
 310 916 l 1
 308 909 317 884 301 864 c 0
 249 801 196 847 196 772 c 0
 196 746 205 728 213 705 c 0
 324 401 376 409 464 117 c 0
 466 109 467 102 467 94 c 0
 467 28 389 -34 365 -57 c 0
 355 -67 347 -72 342 -72 c 0
 331 -72 326 -55 314 -22 c 2
 98 585 l 1
EndSplineSet
EndChar

StartChar: het
Encoding: 1495 1495 100
Width: 1267
GlyphClass: 1
Flags: W
HStem: 866 265<204.357 707.407>
VStem: -123 1040<899 1141> 38 165<682.065 861.259>
AnchorPoint: "hoqa" -320.139 0.599609 basechar 0
AnchorPoint: "pg" 1080 0 basechar 0
AnchorPoint: "E1" 612 0 basechar 0
AnchorPoint: "H" 680 0 basechar 0
AnchorPoint: "W" 650 0 basechar 0
AnchorPoint: "N" 660 0 basechar 0
AnchorPoint: "Holam" 40 0 basechar 0
AnchorPoint: "D" 640 0 basechar 0
LayerCount: 2
Fore
SplineSet
66 1131 m 0xc0
 279 1131 492 1131 705 1131 c 0
 757 1131 767 1163 814 1187 c 1
 828 1187 859 1145 866 1113 c 2
 899 964 l 1
 904 933 917 914 917 899 c 0xc0
 917 884 904 874 856 862 c 1
 1098 229 l 1
 1111 186 1123 157 1123 116 c 0
 1123 76 1101 53 1045 -7 c 1
 1021 -31 1007 -48 995 -48 c 0
 974 -48 965 6 920 148 c 1
 737 748 l 2
 711 836 698 866 586 866 c 2
 306 866 l 2
 224 866 203 849 203 806 c 0
 203 789 206 770 210 746 c 2
 304 146 l 1
 317 52 330 -5 330 -31 c 0
 330 -44 327 -50 320 -50 c 0
 309 -50 288 -35 251 -9 c 0
 113 89 100 88 89 227 c 2
 38 860 l 1xa0
 -67 887 -71 904 -86 970 c 2
 -120 1119 l 2
 -122 1126 -123 1133 -123 1141 c 0
 -123 1167 -113 1193 -102 1193 c 1
 -44 1168 13 1131 66 1131 c 0xc0
EndSplineSet
EndChar

StartChar: tet
Encoding: 1496 1496 101
Width: 1240
GlyphClass: 1
Flags: W
HStem: -47 315<267.5 600.941> 865 251<428.521 748.962>
VStem: 28 146<507.547 766.212> 453 138<709.126 823.749> 874 152<325.5 647.531>
AnchorPoint: "hoqa" -320.139 0.599609 basechar 0
AnchorPoint: "E1" 650 0 basechar 0
AnchorPoint: "H" 614 0 basechar 0
AnchorPoint: "W" 600 0 basechar 0
AnchorPoint: "N" 600 0 basechar 0
AnchorPoint: "Holam" 0 0 basechar 0
AnchorPoint: "D" 706.926 -30 basechar 0
LayerCount: 2
Fore
SplineSet
305 926 m 0
 305 817 174 754 174 685 c 0
 174 682 174 680 174 678 c 0
 194 533 239 460 298 323 c 0
 309 301 342 268 362 268 c 0
 571 268 691 298 841 369 c 1
 863 386 874 403 874 433 c 0
 874 450 870 472 864 500 c 2
 807 746 l 1
 782 820 749 865 657 865 c 0
 642 865 628 862 617 857 c 1
 591 827 614 799 591 749 c 1
 585 721 555 705 524 705 c 0
 486 705 461 726 453 761 c 2
 392 1028 l 1
 385 1047 382 1062 382 1074 c 0
 382 1108 405 1116 437 1116 c 0
 689 1116 930 1065 966 810 c 2
 1025 388 l 2
 1026 381 1026 374 1026 367 c 0
 1026 284 985 156 974 110 c 1
 830 38 451 -47 281 -47 c 0
 254 -47 223 31 199 100 c 2
 58 497 l 1
 48 543 28 577 28 635 c 0
 28 684 72 750 72 816 c 0
 72 828 49 841 22 852 c 0
 -16 868 -20 867 -62 899 c 1
 -90 933 -100 930 -118 1008 c 2
 -149 1145 l 2
 -156 1174 -159 1192 -159 1203 c 0
 -159 1214 -156 1218 -151 1218 c 1
 -63 1166 26 1114 149 1093 c 0
 194 1085 248 1074 268 1040 c 0
 290 1003 305 970 305 926 c 0
EndSplineSet
EndChar

StartChar: yod
Encoding: 1497 1497 102
Width: 669
GlyphClass: 1
Flags: W
VStem: 174 193<534.093 814.136>
AnchorPoint: "hoqa" -320.139 0.599609 basechar 0
AnchorPoint: "E1" 300 0 basechar 0
AnchorPoint: "H" 328 0 basechar 0
AnchorPoint: "W" 320 0 basechar 0
AnchorPoint: "N" 330 0 basechar 0
AnchorPoint: "Holam" 0 0 basechar 0
AnchorPoint: "D" 124.604 110 basechar 0
LayerCount: 2
Fore
SplineSet
199 414 m 0
 180 414 173 443 174 468 c 2
 182 737 l 1
 177 847 44 815 -24 863 c 0
 -64 891 -89 897 -110 986 c 2
 -142 1125 l 2
 -144 1134 -145 1147 -145 1159 c 0
 -145 1188 -140 1217 -129 1217 c 0
 -125 1217 -121 1215 -117 1209 c 0
 -86 1166 -49 1157 -5 1139 c 0
 66 1109 158 1082 245 1050 c 0
 349 1011 367 962 367 845 c 0
 367 724 344 553 302 495 c 0
 261 439 221 414 199 414 c 0
EndSplineSet
EndChar

StartChar: finalkaf
Encoding: 1498 1498 103
Width: 1172
GlyphClass: 1
Flags: W
HStem: 866 263<-80.8865 607.475>
AnchorPoint: "E1" 480 0 basechar 0
AnchorPoint: "kaf" 331.466 730 basechar 0
AnchorPoint: "H" 350 0 basechar 0
AnchorPoint: "W" 470 0 basechar 0
AnchorPoint: "N" 500 0 basechar 0
AnchorPoint: "Holam" 0 0 basechar 0
AnchorPoint: "D" 490 0 basechar 0
LayerCount: 2
Fore
SplineSet
605 1129 m 1
 658 1130 698 1168 746 1193 c 1
 808 1161 812 1029 835 952 c 0
 838 940 840 929 840 920 c 0
 840 893 822 878 758 860 c 1
 1081 -321 l 2
 1093 -362 1106 -385 1106 -425 c 0
 1106 -470 1075 -490 1015 -553 c 0
 991 -578 976 -594 964 -594 c 0
 944 -594 930 -542 897 -399 c 2
 622 771 l 2
 601 861 600 866 488 866 c 2
 50 866 l 2
 38 866 26 866 16 866 c 0
 -80 866 -84 883 -102 966 c 2
 -135 1115 l 2
 -138 1129 -139 1141 -139 1150 c 0
 -139 1176 -130 1189 -111 1201 c 1
 -56 1146 -9 1129 33 1129 c 2
 605 1129 l 1
EndSplineSet
EndChar

StartChar: kaf
Encoding: 1499 1499 104
Width: 1087
GlyphClass: 1
Flags: W
HStem: -54 304<97.5117 306.192>
VStem: 783 156<215 485.708>
AnchorPoint: "hoqa" -320.139 0.599609 basechar 0
AnchorPoint: "E1" 408 0 basechar 0
AnchorPoint: "H" 500 0 basechar 0
AnchorPoint: "W" 500 0 basechar 0
AnchorPoint: "N" 500 0 basechar 0
AnchorPoint: "Holam" 0 0 basechar 0
AnchorPoint: "R" 550 0 basechar 0
AnchorPoint: "D" 500 0 basechar 0
LayerCount: 2
Fore
SplineSet
777 15 m 0
 575 -20 365 -54 156 -54 c 0
 90 -54 85 29 69 97 c 0
 58 140 51 169 51 190 c 0
 51 233 80 241 170 250 c 2
 645 300 l 1
 751 307 783 330 783 371 c 0
 783 395 772 426 759 463 c 0
 731 545 691 626 642 705 c 0
 588 793 584 796 446 812 c 2
 79 853 l 1
 -45 863 -53 878 -73 971 c 1
 -107 1120 l 1
 -109 1134 -111 1146 -111 1155 c 0
 -111 1181 -101 1194 -82 1206 c 1
 -27 1151 19 1139 62 1134 c 2
 539 1077 l 2
 650 1064 692 1023 732 954 c 1
 732 956 l 1
 827 768 879 549 932 334 c 0
 937 314 939 293 939 271 c 0
 939 159 876 33 777 15 c 0
EndSplineSet
Substitution2: "jaltJustificationAlternatives subtable" khaf.wide
EndChar

StartChar: lamed
Encoding: 1500 1500 105
Width: 1065
GlyphClass: 1
Flags: W
HStem: 875 265<-20.8153 608.835>
VStem: 434 220<65.5127 232.116>
AnchorPoint: "hoqa" -320.139 0.599609 basechar 0
AnchorPoint: "E2" 587 0 basechar 0
AnchorPoint: "E1" 546 0 basechar 0
AnchorPoint: "H" 470 0 basechar 0
AnchorPoint: "W" 500 0 basechar 0
AnchorPoint: "N" 580 0 basechar 0
AnchorPoint: "Holam" -130 0 basechar 0
AnchorPoint: "D" 420 0 basechar 0
LayerCount: 2
Fore
SplineSet
468 -55 m 0
 440 -55 434 40 434 73 c 0
 434 119 445 171 484 242 c 2
 698 634 l 1
 685 696 662 753 625 809 c 0
 583 874 563 875 438 875 c 2
 72 875 l 2
 -49 875 -77 891 -118 1051 c 0
 -155 1198 -183 1347 -216 1494 c 0
 -234 1574 -254 1606 -322 1652 c 0
 -367 1683 -386 1722 -397 1777 c 2
 -427 1918 l 2
 -432 1943 -434 1962 -434 1978 c 0
 -434 2007 -426 2019 -414 2019 c 0
 -396 2019 -369 1990 -348 1947 c 0
 -331 1912 -289 1887 -264 1874 c 0
 -146 1815 -143 1745 -117 1619 c 2
 -39 1246 l 1
 -18 1156 -15 1144 66 1144 c 2
 66 1144 511 1140 514 1140 c 0
 652 1140 668 1119 722 984 c 2
 818 742 l 2
 838 691 858 638 858 586 c 0
 858 552 850 520 829 489 c 2
 668 248 l 1
 659 231 654 214 654 198 c 0
 654 174 670 147 670 129 c 0
 670 118 665 108 652 96 c 2
 525 -18 l 2
 499 -42 480 -55 468 -55 c 0
EndSplineSet
Substitution2: "jaltJustificationAlternatives subtable" lamed.wide
EndChar

StartChar: finalmem
Encoding: 1501 1501 106
Width: 1241
GlyphClass: 1
Flags: W
HStem: 0 259<272.223 904.246> 865 264<172.469 761.525>
VStem: 13 136<535.062 827.413> 905 189<120 327.34>
AnchorPoint: "E1" 600 0 basechar 0
AnchorPoint: "H" 650 0 basechar 0
AnchorPoint: "W" 621 0 basechar 0
AnchorPoint: "N" 650 0 basechar 0
AnchorPoint: "Holam" 0 0 basechar 0
AnchorPoint: "D" 650 0 basechar 0
LayerCount: 2
Fore
SplineSet
833 -0 m 2
 319 0 l 2
 211 0 157 28 129 154 c 2
 16 666 l 2
 14 677 13 689 13 700 c 0
 13 737 25 778 59 830 c 1
 61 835 62 840 62 844 c 0
 62 891 -61 844 -76 904 c 2
 -127 1109 l 2
 -129 1121 -130 1136 -130 1152 c 0
 -130 1184 -125 1215 -111 1215 c 0
 -110 1215 -108 1215 -106 1214 c 0
 -31 1149 25 1130 119 1129 c 2
 641 1126 l 1
 804 1123 842 1093 897 899 c 2
 1087 232 l 2
 1092 214 1094 198 1094 182 c 0
 1094 58 960 -0 833 -0 c 2
242 865 m 1
 173 849 149 797 149 732 c 0
 149 690 159 642 174 594 c 2
 243 374 l 1
 281 265 284 259 374 259 c 2
 381 259 l 1
 819 260 l 2
 882 260 905 260 905 290 c 0
 905 321 896 347 887 382 c 0
 839 564 852 535 792 740 c 0
 756 863 748 865 597 865 c 2
 242 865 l 1
EndSplineSet
Substitution2: "jaltJustificationAlternatives subtable" finalmem.wide
EndChar

StartChar: mem
Encoding: 1502 1502 107
Width: 1294
GlyphClass: 1
Flags: W
HStem: 866 294<429.994 695.371>
VStem: 30 194<177.364 689.989>
AnchorPoint: "hoqa" -320.139 0.599609 basechar 0
AnchorPoint: "E1" 498 0 basechar 0
AnchorPoint: "H" 650 0 basechar 0
AnchorPoint: "W" 700 0 basechar 0
AnchorPoint: "N" 650 0 basechar 0
AnchorPoint: "Holam" 0 0 basechar 0
AnchorPoint: "D" 700 0 basechar 0
LayerCount: 2
Fore
SplineSet
492 -14 m 0
 491 -14 490 -14 488 -14 c 0
 424 -14 412 12 412 61 c 0
 412 80 414 103 415 129 c 0
 422 277 432 255 535 269 c 2
 826 310 l 1
 904 316 930 317 930 351 c 0
 930 383 916 416 907 448 c 2
 820 717 l 2
 802 773 793 788 736 821 c 0
 665 863 643 866 582 866 c 0
 563 866 541 866 512 866 c 0
 344 866 224 664 224 536 c 0
 224 412 242 290 268 181 c 0
 272 166 276 148 276 130 c 0
 276 101 266 70 232 44 c 0
 191 13 142 0 127 0 c 0
 109 0 103 24 90 78 c 0
 59 210 30 344 30 475 c 0
 30 576 47 676 93 772 c 1
 93 779 94 785 94 789 c 0
 94 807 88 805 61 822 c 0
 2 858 -25 891 -47 950 c 1
 -66 975 -101 1116 -101 1196 c 0
 -101 1225 -96 1245 -84 1249 c 1
 -72 1246 -62 1241 -47 1229 c 0
 -9 1199 38 1148 124 1077 c 0
 138 1066 199 1006 258 1006 c 0
 315 1006 426 1160 552 1160 c 0
 640 1160 766 1076 831 1034 c 0
 899 991 979 895 997 817 c 2
 1124 254 l 2
 1140 186 1149 142 1149 112 c 0
 1149 59 1117 55 1028 44 c 2
 581 -9 l 1
 544 -12 515 -14 492 -14 c 0
EndSplineSet
EndChar

StartChar: finalnun
Encoding: 1503 1503 108
Width: 634
GlyphClass: 1
Flags: W
VStem: 79 179<326.028 800.765> 122 203<751.204 972>
AnchorPoint: "E2" 350 0 basechar 0
AnchorPoint: "E1" 336 0 basechar 0
AnchorPoint: "H" -200 0 basechar 0
AnchorPoint: "W" -150 0 basechar 0
AnchorPoint: "N" 0 0 basechar 0
AnchorPoint: "Holam" -6.92578 30 basechar 0
AnchorPoint: "D" 50 0 basechar 0
LayerCount: 2
Fore
SplineSet
79 549 m 0x80
 79 647 108 703 122 786 c 1
 120 829 104 849 54 868 c 0
 -85 920 -105 921 -116 971 c 2
 -156 1145 l 1
 -158 1158 -159 1174 -159 1189 c 0
 -159 1219 -155 1246 -144 1246 c 0
 -142 1246 -138 1244 -134 1240 c 0
 -105 1207 -78 1186 -35 1172 c 2
 224 1086 l 1
 295 1057 325 1016 325 928 c 0x40
 325 857 291 798 280 750 c 0
 269 700 258 633 258 561 c 0
 258 512 263 460 277 411 c 2
 469 -252 l 1
 486 -321 508 -358 508 -393 c 0
 508 -423 491 -451 439 -497 c 0
 399 -532 375 -551 358 -551 c 0
 333 -551 323 -509 298 -412 c 2
 117 307 l 2
 100 376 79 489 79 549 c 0x80
EndSplineSet
EndChar

StartChar: nun
Encoding: 1504 1504 109
Width: 800
GlyphClass: 1
Flags: W
AnchorPoint: "hoqa" -320.139 0.599609 basechar 0
AnchorPoint: "E1" 420 0 basechar 0
AnchorPoint: "H" 400 0 basechar 0
AnchorPoint: "W" 380 0 basechar 0
AnchorPoint: "N" 390 0 basechar 0
AnchorPoint: "Holam" 80 0 basechar 0
AnchorPoint: "D" 300 0 basechar 0
LayerCount: 2
Fore
SplineSet
-17 1161 m 2
 -23 1187 -25 1208 -25 1223 c 0
 -25 1244 -20 1256 -10 1256 c 0
 -4 1256 4 1252 14 1243 c 0
 54 1209 69 1178 137 1150 c 2
 267 1096 l 1
 417 1049 452 947 472 862 c 2
 632 174 l 2
 645 116 653 77 653 51 c 0
 653 -0 620 -2 523 -14 c 2
 213 -51 l 2
 184 -54 161 -57 143 -57 c 0
 96 -57 77 -38 60 47 c 1
 50 89 l 2
 41 135 34 166 34 187 c 0
 34 233 63 236 150 246 c 2
 357 271 l 2
 418 279 440 283 440 315 c 0
 440 349 430 379 420 416 c 2
 342 698 l 1
 328 759 299 804 235 831 c 2
 131 874 l 2
 62 903 41 911 21 995 c 2
 -17 1161 l 2
EndSplineSet
EndChar

StartChar: samekh
Encoding: 1505 1505 110
Width: 1196
GlyphClass: 1
Flags: W
HStem: -33 280<223 457.96>
VStem: -18 140<675.046 850.995> 807 185<389.495 496.713>
AnchorPoint: "hoqa" -320.139 0.599609 basechar 0
AnchorPoint: "E1" 522 0 basechar 0
AnchorPoint: "H" 600 0 basechar 0
AnchorPoint: "W" 530 0 basechar 0
AnchorPoint: "N" 500 0 basechar 0
AnchorPoint: "Holam" -6.92578 30 basechar 0
AnchorPoint: "D" 588.457 50 basechar 0
LayerCount: 2
Fore
SplineSet
293 886 m 2
 287 886 281 887 276 887 c 0
 191 887 122 841 122 754 c 0
 122 714 138 676 152 644 c 2
 262 390 l 1
 305 285 320 247 364 247 c 0
 388 247 421 259 472 278 c 2
 694 363 l 1
 777 391 807 403 807 453 c 0
 807 466 805 481 802 499 c 2
 753 752 l 1
 744 791 717 851 610 860 c 2
 293 886 l 2
251 -33 m 0
 195 -33 185 5 157 104 c 2
 -18 726 l 2
 -18 729 -18 732 -18 735 c 0
 -18 770 22 841 22 874 c 0
 22 914 -26 905 -58 922 c 17
 -86 930 -88 928 -100 985 c 0
 -117 1060 -148 1131 -148 1212 c 0
 -148 1238 -138 1251 -119 1262 c 1
 -64 1208 -17 1188 26 1183 c 2
 611 1113 l 1
 819 1082 863 1017 885 915 c 2
 986 432 l 2
 990 409 992 399 992 392 c 0
 992 386 991 383 990 378 c 1
 989 228 955 153 858 120 c 2
 756 85 l 1
 409 0 l 1
 332 -20 284 -33 251 -33 c 0
EndSplineSet
EndChar

StartChar: ayin
Encoding: 1506 1506 111
Width: 1149
GlyphClass: 1
Flags: W
VStem: 109 140<595.062 815.7> 687 131<452.172 813.725>
AnchorPoint: "hoqa" -320.139 0.599609 basechar 0
AnchorPoint: "pg" 960 0 basechar 0
AnchorPoint: "E1" 549 0 basechar 0
AnchorPoint: "H" 710 0 basechar 0
AnchorPoint: "W" 621 0 basechar 0
AnchorPoint: "N" 550 0 basechar 0
AnchorPoint: "Holam" -6.92578 30 basechar 0
AnchorPoint: "D" 611.53 80 basechar 0
LayerCount: 2
Fore
SplineSet
136 -156 m 0
 133 -156 131 -157 129 -157 c 0
 75 -157 41 10 41 74 c 0
 41 123 73 143 180 178 c 0
 279 211 313 238 313 273 c 0
 313 311 277 360 235 431 c 2
 160 559 l 1
 129 614 114 639 109 662 c 1
 109 673 109 683 109 692 c 0
 109 697 l 0
 109 785 108 785 7 865 c 0
 -62 920 -78 928 -98 1018 c 0
 -110 1072 -132 1121 -132 1180 c 0
 -132 1227 -110 1284 -95 1284 c 0
 -90 1284 -88 1279 -85 1266 c 0
 -74 1216 -36 1180 5 1149 c 2
 175 1023 l 1
 250 962 284 951 284 899 c 0
 284 851 249 746 249 689 c 0
 249 637 271 625 317 566 c 2
 452 395 l 1
 498 335 541 296 574 296 c 0
 600 296 619 320 629 377 c 2
 678 660 l 2
 684 698 687 725 687 745 c 0
 687 800 661 809 581 865 c 0
 503 920 492 931 468 1035 c 2
 441 1151 l 2
 440 1157 440 1164 440 1172 c 0
 440 1216 461 1270 477 1270 c 0
 482 1270 485 1265 488 1251 c 0
 495 1223 549 1177 591 1146 c 2
 749 1028 l 1
 827 957 869 954 869 894 c 0
 869 765 820 669 818 572 c 2
 811 261 l 2
 807 105 806 105 654 44 c 2
 265 -112 l 1
 206 -134 166 -156 136 -156 c 0
EndSplineSet
Substitution2: "saltStylisticAlternatives subtable" ayin.alt
Substitution2: "AlternateAyinSubstTable subtable" ayin.alt
EndChar

StartChar: finalpe
Encoding: 1507 1507 112
Width: 1107
GlyphClass: 1
Flags: W
HStem: 419 253<218.544 339.289>
VStem: -45 158<518.5 817.897> 921 195<-529.917 -417.51>
AnchorPoint: "E1" 548 0 basechar 0
AnchorPoint: "H" 399.77 1 basechar 0
AnchorPoint: "W" 474.77 1 basechar 0
AnchorPoint: "N" 599.77 1 basechar 0
AnchorPoint: "Holam" 120 0 basechar 0
AnchorPoint: "D" 640 0 basechar 0
LayerCount: 2
Fore
SplineSet
345 419 m 0
 328 419 305 424 275 430 c 2
 78 468 l 1
 -21 489 -45 491 -45 546 c 0
 -45 560 -43 578 -41 601 c 2
 13 1125 l 2
 19 1173 28 1261 46 1261 c 1
 97 1192 144 1148 191 1135 c 2
 616 1017 l 2
 744 981 745 979 775 866 c 2
 1096 -342 l 2
 1103 -374 1115 -411 1116 -442 c 0
 1116 -478 1099 -501 1054 -549 c 0
 1014 -592 991 -616 975 -616 c 0
 954 -616 944 -574 921 -478 c 2
 643 695 l 2
 622 779 607 784 522 804 c 2
 206 882 l 2
 185 888 180 889 169 886 c 0
 152 881 113 810 113 759 c 0
 113 739 119 722 134 713 c 1
 264 672 l 1
 328 658 344 634 352 584 c 0
 361 533 368 490 368 461 c 0
 368 434 362 419 345 419 c 0
EndSplineSet
EndChar

StartChar: pe
Encoding: 1508 1508 113
Width: 1089
GlyphClass: 1
Flags: W
VStem: 788 156<218 464.703>
AnchorPoint: "hoqa" -320.139 0.599609 basechar 0
AnchorPoint: "E1" 459 0 basechar 0
AnchorPoint: "H" 528 0 basechar 0
AnchorPoint: "W" 550 0 basechar 0
AnchorPoint: "N" 550 0 basechar 0
AnchorPoint: "Holam" 180 0 basechar 0
AnchorPoint: "R" 643.074 30 basechar 0
AnchorPoint: "D" 660 0 basechar 0
LayerCount: 2
Fore
SplineSet
262 -45 m 2
 229 -48 201 -53 177 -53 c 0
 133 -53 104 -37 86 37 c 0
 79 71 62 149 61 185 c 0
 61 232 90 240 196 252 c 2
 678 310 l 1
 760 311 788 319 788 346 c 0
 788 358 783 373 774 393 c 2
 633 726 l 1
 603 774 544 800 460 813 c 2
 220 851 l 1
 198 857 193 857 183 855 c 0
 167 852 142 799 142 755 c 0
 142 733 148 713 164 703 c 1
 293 662 l 1
 358 647 371 626 381 574 c 0
 391 523 398 481 398 452 c 0
 398 425 391 409 375 409 c 0
 358 409 334 414 304 420 c 2
 107 458 l 2
 8 478 -16 481 -16 535 c 0
 -16 549 -14 568 -11 591 c 2
 43 1115 l 1
 50 1163 56 1251 76 1251 c 1
 126 1181 173 1135 220 1125 c 2
 552 1054 l 18
 684 1026 760 936 788 843 c 2
 932 376 l 1
 940 346 944 315 944 284 c 0
 944 152 876 30 804 22 c 1
 798 23 l 1
 262 -45 l 2
EndSplineSet
EndChar

StartChar: finaltsadi
Encoding: 1509 1509 114
Width: 1056
GlyphClass: 1
Flags: W
VStem: 47 150<534.398 733.899>
AnchorPoint: "E1" 198 0 basechar 0
AnchorPoint: "H" 850 0 basechar 0
AnchorPoint: "W" 700 0 basechar 0
AnchorPoint: "N" 700 0 basechar 0
AnchorPoint: "Holam" 0 0 basechar 0
AnchorPoint: "D" 50 0 basechar 0
LayerCount: 2
Fore
SplineSet
272 887 m 0
 272 843 197 654 197 606 c 0
 197 603 197 601 198 599 c 0
 198 582 201 565 208 542 c 2
 229 472 l 1
 234 463 237 458 241 458 c 0
 249 458 259 482 281 548 c 2
 451 1029 l 2
 481 1115 497 1149 524 1149 c 0
 545 1149 574 1128 622 1092 c 0
 722 1018 731 1011 754 909 c 2
 764 865 l 2
 783 785 794 736 794 711 c 0
 794 697 790 690 782 690 c 0
 780 690 l 0
 755 690 635 791 607 791 c 0
 606 791 605 790 605 790 c 0
 582 790 572 763 545 705 c 2
 366 319 l 1
 340 272 330 239 330 208 c 0
 330 169 346 134 368 77 c 2
 477 -207 l 1
 497 -266 514 -306 514 -346 c 0
 514 -382 500 -417 459 -463 c 0
 412 -517 385 -546 367 -546 c 0
 341 -546 330 -490 298 -367 c 2
 47 589 l 2
 46 596 47 603 47 611 c 0
 47 613 47 615 47 617 c 0
 47 658 75 691 76 736 c 0
 76 797 41 803 -25 852 c 0
 -69 885 -94 902 -115 995 c 0
 -125 1041 -143 1082 -143 1132 c 0
 -143 1172 -126 1207 -105 1231 c 1
 -95 1195 -75 1168 -38 1143 c 2
 168 1003 l 2
 243 952 272 931 272 887 c 0
EndSplineSet
EndChar

StartChar: tsadi
Encoding: 1510 1510 115
Width: 1097
GlyphClass: 1
Flags: W
VStem: 45 738<30.4978 229.596>
AnchorPoint: "hoqa" -320.139 0.599609 basechar 0
AnchorPoint: "E1" 549 0 basechar 0
AnchorPoint: "H" 480 0 basechar 0
AnchorPoint: "W" 490 0 basechar 0
AnchorPoint: "N" 500 0 basechar 0
AnchorPoint: "Holam" 0 0 basechar 0
AnchorPoint: "D" 210.013 -130 basechar 0
LayerCount: 2
Fore
SplineSet
247 704 m 0
 247 702 247 701 247 700 c 0
 247 666 344 592 363 592 c 0
 381 592 393 615 410 673 c 2
 507 1007 l 1
 530 1102 543 1141 570 1141 c 0
 591 1141 619 1120 667 1085 c 0
 766 1010 775 1004 799 902 c 2
 809 858 l 2
 827 778 839 729 839 704 c 0
 839 690 835 683 826 683 c 0
 826 683 825 683 824 683 c 0
 799 683 680 784 652 784 c 0
 651 784 650 783 649 783 c 0
 626 783 615 756 590 698 c 10
 545 600 l 17
 532 559 525 531 525 510 c 0
 525 464 558 448 625 384 c 0
 719 295 783 275 783 137 c 0
 783 67 748 14 671 5 c 2
 276 -43 l 2
 226 -49 189 -53 162 -53 c 0
 94 -53 85 -26 63 71 c 0
 52 117 45 149 45 173 c 0
 45 233 90 237 237 255 c 0
 366 271 419 278 419 301 c 0
 419 318 393 341 348 381 c 2
 213 500 l 1
 115 580 136 621 110 784 c 0
 105 815 59 834 3 872 c 0
 -43 903 -67 922 -87 1015 c 0
 -97 1060 -115 1100 -115 1149 c 0
 -115 1189 -97 1220 -77 1246 c 1
 -66 1199 -48 1188 -10 1163 c 2
 196 1023 l 2
 270 972 299 951 299 907 c 0
 300 905 300 901 300 899 c 0
 300 862 251 748 247 704 c 0
EndSplineSet
EndChar

StartChar: kof
Encoding: 1511 1511 116
Width: 1183
GlyphClass: 1
Flags: W
HStem: -23 21G<525.5 541> 865 260<-64.2526 718.141>
VStem: 500 260<97.0132 261.54>
AnchorPoint: "hoqa" -320.139 0.599609 basechar 0
AnchorPoint: "E2" 560 0 basechar 0
AnchorPoint: "E1" 109 0 basechar 0
AnchorPoint: "H" 780 0 basechar 0
AnchorPoint: "W" 700 0 basechar 0
AnchorPoint: "N" 651.846 5 basechar 0
AnchorPoint: "Holam" 0 0 basechar 0
AnchorPoint: "D" 600 0 basechar 0
LayerCount: 2
Fore
SplineSet
760 207 m 0
 760 184 776 158 776 140 c 0
 776 127 771 118 758 105 c 1
 593 14 l 2
 561 -4 547 -23 535 -23 c 0
 516 -23 511 15 508 40 c 0
 504 63 500 87 500 112 c 0
 500 157 512 208 552 274 c 2
 794 672 l 1
 781 734 765 751 729 806 c 0
 691 864 648 865 552 865 c 0
 374 865 195 865 16 865 c 0
 -51 865 -73 875 -90 951 c 0
 -103 1014 -141 1063 -141 1142 c 0
 -141 1179 -131 1216 -124 1216 c 3
 -88 1216 -60 1129 21 1129 c 2
 21 1129 584 1125 587 1125 c 0
 725 1125 775 1112 836 980 c 2
 926 784 l 1
 947 734 964 682 964 631 c 0
 964 597 957 563 937 531 c 2
 774 257 l 2
 764 240 760 223 760 207 c 0
148 735 m 0
 174 735 192 678 231 530 c 2
 459 -357 l 2
 462 -369 463 -380 463 -390 c 0
 463 -427 446 -454 416 -480 c 0
 370 -520 343 -550 322 -550 c 0
 321 -551 320 -551 319 -551 c 0
 287 -551 258 -412 246 -361 c 2
 40 531 l 2
 38 544 36 554 36 563 c 0
 36 594 51 610 72 641 c 0
 108 692 129 735 148 735 c 0
EndSplineSet
EndChar

StartChar: resh
Encoding: 1512 1512 117
Width: 1109
GlyphClass: 1
Flags: W
HStem: -26 21G<850 863>
VStem: 817 132<12.6987 109.104>
AnchorPoint: "hoqa" -320.139 0.599609 basechar 0
AnchorPoint: "E2" 500 0 basechar 0
AnchorPoint: "E1" 778 0 basechar 0
AnchorPoint: "H" 800 0 basechar 0
AnchorPoint: "W" 887 0 basechar 0
AnchorPoint: "N" 900.23 -1 basechar 0
AnchorPoint: "Holam" 0 0 basechar 0
AnchorPoint: "D" 500 0 basechar 0
LayerCount: 2
Fore
SplineSet
914 22 m 0
 885 -8 869 -26 857 -26 c 0
 843 -26 835 -1 817 59 c 2
 619 751 l 1
 588 853 588 855 475 867 c 2
 -7 920 l 1
 -110 934 -112 934 -131 1016 c 2
 -161 1148 l 1
 -161 1193 -153 1223 -144 1250 c 1
 -95 1207 -54 1176 18 1168 c 2
 629 1096 l 1
 707 1083 727 1063 754 949 c 2
 926 219 l 2
 937 175 949 113 949 92 c 0
 949 59 937 46 914 22 c 0
EndSplineSet
Substitution2: "jaltJustificationAlternatives subtable" resh.wide
EndChar

StartChar: shin
Encoding: 1513 1513 118
Width: 1553
GlyphClass: 1
Flags: W
HStem: 826 360<500 671.5>
VStem: 58 121<628.468 727.216> 78 101<628.468 766.821> 1030 236<784 903>
AnchorPoint: "hoqa" -320.139 0.599609 basechar 0
AnchorPoint: "E1" 640 0 basechar 0
AnchorPoint: "H" 700 0 basechar 0
AnchorPoint: "W" 676 0 basechar 0
AnchorPoint: "N" 586 0 basechar 0
AnchorPoint: "Holam" 0 0 basechar 0
AnchorPoint: "D" 900 0 basechar 0
AnchorPoint: "Shin_Dot" 1422.46 50 basechar 0
AnchorPoint: "Sin_Dot" 378.457 50 basechar 0
LayerCount: 2
Fore
SplineSet
287 899 m 0xb0
 286 845 179 723 179 665 c 0
 179 661 179 658 180 656 c 0
 180 647 181 638 183 628 c 1
 347 322 l 1
 360 322 375 366 387 461 c 2
 458 1048 l 1
 473 1149 487 1186 513 1186 c 0
 539 1186 575 1152 634 1108 c 0
 804 982 778 1000 813 849 c 0
 822 811 825 784 825 767 c 0
 825 747 820 739 811 739 c 0
 780 739 705 826 638 826 c 0
 603 826 609 826 582 720 c 2
 474 304 l 1
 478 288 499 277 524 277 c 0
 558 277 617 291 714 313 c 0
 948 368 952 380 991 568 c 0
 1018 699 1030 755 1030 784 c 0
 1031 808 1021 811 1004 822 c 0
 925 874 918 876 907 924 c 2
 862 1117 l 2
 860 1127 860 1137 860 1146 c 0
 860 1193 883 1217 899 1247 c 1
 912 1207 940 1173 989 1140 c 2
 1188 1003 l 1
 1245 967 1266 937 1266 903 c 0
 1266 863 1234 818 1195 754 c 1
 1082 286 l 1
 1043 118 1041 120 878 80 c 2
 393 -39 l 1
 339 -39 319 4 268 122 c 2
 61 598 l 2
 59 604 58 610 58 616 c 0xd0
 58 649 78 691 78 729 c 0
 78 777 58 783 -5 826 c 0
 -82 879 -93 906 -104 954 c 2
 -142 1117 l 2
 -144 1130 -145 1142 -145 1152 c 0
 -145 1195 -128 1219 -113 1247 c 1
 -100 1207 -72 1173 -23 1140 c 2
 176 1003 l 1
 249 950 287 934 287 899 c 0xb0
EndSplineSet
EndChar

StartChar: tav
Encoding: 1514 1514 119
Width: 1424
GlyphClass: 1
Flags: W
HStem: -27 21G<103.5 176.565 1165.06 1175.5> 865 261<280.14 909.194>
VStem: 33 475<101.912 241.19> 150 125<566.521 860.495> 1171 93<-7.77832 21.2513>
AnchorPoint: "hoqa" -320.139 0.599609 basechar 0
AnchorPoint: "E1" 790 0 basechar 0
AnchorPoint: "H" 790 0 basechar 0
AnchorPoint: "W" 750 0 basechar 0
AnchorPoint: "N" 780 0 basechar 0
AnchorPoint: "Holam" 100 0 basechar 0
AnchorPoint: "R" 760 0 basechar 0
AnchorPoint: "D" 790 0 basechar 0
LayerCount: 2
Fore
SplineSet
229 335 m 0xe8
 229 439 150 583 150 678 c 0xd8
 150 720 164 777 164 811 c 0
 164 848 152 853 106 878 c 0
 59 904 55 900 43 954 c 2
 13 1086 l 1
 12 1096 12 1106 12 1115 c 0
 12 1145 18 1175 33 1201 c 1xe8
 78 1134 124 1126 180 1126 c 2
 843 1126 l 2
 858 1126 871 1127 884 1127 c 0
 1027 1127 1031 1100 1077 899 c 2
 1255 129 l 2
 1261 105 1264 88 1264 74 c 0
 1264 47 1252 32 1227 0 c 0
 1213 -18 1180 -27 1171 -27 c 1
 955 700 l 1
 908 844 903 865 801 865 c 2
 350 865 l 1
 284 862 275 836 275 757 c 0xd8
 275 731 275 708 280 683 c 0
 336 436 508 323 508 148 c 0
 508 118 484 108 431 88 c 2
 123 -27 l 1
 84 -27 68 15 48 100 c 0
 38 141 33 169 33 190 c 0
 33 234 60 243 139 270 c 0
 205 293 229 302 229 335 c 0xe8
EndSplineSet
Substitution2: "jaltJustificationAlternatives subtable" tav.wide
EndChar

StartChar: geresh
Encoding: 1523 1523 123
Width: 510
VWidth: 2458
GlyphClass: 1
Flags: W
HStem: 753 482<-54.4469 27.9934>
VStem: -62 212<919.855 1223.54>
LayerCount: 2
Fore
SplineSet
75 1235 m 1
 140 1225 150 1156 150 1091 c 0
 150 970 81 866 28 797 c 0
 6 768 -13 753 -37 753 c 0
 -72 753 -86 779 -86 809 c 0
 -86 818 -85 826 -83 835 c 0
 -67 903 -62 980 -62 1060 c 0
 -62 1091 -62 1122 -62 1153 c 1
 -62 1156 l 1
 -55 1220 -26 1235 6 1235 c 2
 75 1235 l 1
EndSplineSet
EndChar

StartChar: newshekel
Encoding: 8362 8362 129
Width: 1417
GlyphClass: 1
Flags: W
HStem: 26 256<557.655 666.29> 905 233<141.504 599.665>
VStem: 442 102<338.328 430.396> 701 175<431.281 632.75>
LayerCount: 2
Fore
SplineSet
624 557 m 0
 624 484 544 413 544 359 c 0
 544 352 544 345 546 338 c 1
 585 300 l 1
 606 286 622 282 640 282 c 0
 670 282 699 296 745 306 c 0
 953 351 916 344 950 509 c 0
 974 624 985 674 985 699 c 0
 985 720 979 722 963 733 c 0
 893 779 887 780 877 822 c 2
 838 993 l 2
 836 1002 835 1010 835 1018 c 0
 835 1059 856 1081 869 1107 c 1
 882 1072 906 1044 948 1015 c 2
 1125 892 l 2
 1160 867 1154 855 1158 836 c 1
 1068 291 l 1
 1033 142 1028 153 888 109 c 2
 620 26 l 1
 573 26 554 64 509 169 c 2
 442 324 l 1
 442 325 442 327 442 329 c 0
 442 350 460 398 460 432 c 0
 460 474 441 481 386 518 c 0
 319 564 308 588 299 630 c 2
 266 773 l 2
 264 783 263 793 263 801 c 0
 263 841 278 861 292 887 c 1
 303 852 329 824 371 794 c 2
 579 643 l 1
 607 621 624 591 624 557 c 0
724 1122 m 2
 766 941 l 2
 766 938 767 935 767 933 c 0
 767 920 757 911 716 899 c 1
 871 544 l 1
 874 532 876 522 876 512 c 0
 876 472 850 451 798 395 c 0
 776 371 761 360 750 360 c 0
 730 360 720 396 701 477 c 0
 697 493 693 512 688 532 c 2
 626 801 l 1
 603 878 576 905 477 905 c 2
 231 905 l 2
 159 905 141 890 141 851 c 0
 141 837 143 820 147 799 c 2
 274 40 l 1
 263 40 228 57 198 78 c 0
 102 148 65 154 58 225 c 2
 -5 899 l 1
 -89 921 -99 937 -109 981 c 2
 -143 1128 l 2
 -145 1134 -146 1141 -146 1148 c 0
 -146 1171 -138 1193 -128 1193 c 1
 -76 1170 -27 1138 21 1138 c 0
 209 1138 396 1138 583 1138 c 0
 628 1138 638 1165 679 1187 c 1
 691 1187 718 1150 724 1122 c 2
EndSplineSet
EndChar

StartChar: jsvarika
Encoding: 64286 64286 131
Width: 0
VWidth: 45
GlyphClass: 4
Flags: W
HStem: 1211 147<-454.806 -174.191>
VStem: -133 36<1448.66 1453.38>
AnchorPoint: "R" 0 0 mark 0
LayerCount: 2
Fore
SplineSet
-133 1520 m 1
 -113 1480 -97 1404 -97 1335 c 0
 -97 1258 -137 1211 -280 1211 c 0
 -517 1212 -531 1350 -569 1513 c 0
 -569 1517 -568 1519 -566 1519 c 1
 -507 1435 -478 1358 -314 1358 c 0
 -149 1358 -155 1436 -133 1520 c 1
EndSplineSet
Substitution2: "ccmpChangeCantillationsToCircle subtable" dottedcircle
EndChar

StartChar: ayin.alt
Encoding: 64288 64288 133
Width: 1178
GlyphClass: 1
Flags: W
HStem: -61 338<114.5 626>
VStem: 147 142<576.936 797.932> 727 130<442.016 789.297>
AnchorPoint: "hoqa" -320.139 0.599609 basechar 0
AnchorPoint: "pg" 1000 0 basechar 0
AnchorPoint: "E1" 600 0 basechar 0
AnchorPoint: "H" 512 0 basechar 0
AnchorPoint: "W" 506 0 basechar 0
AnchorPoint: "N" 500 0 basechar 0
AnchorPoint: "Holam" 0 0 basechar 0
AnchorPoint: "D" 661.53 80 basechar 0
LayerCount: 2
Fore
SplineSet
199 540 m 1
 164 608 147 615 147 663 c 0
 147 679 147 699 147 717 c 0
 147 780 131 772 47 846 c 0
 -19 903 -37 905 -59 999 c 0
 -71 1053 -93 1102 -93 1161 c 0
 -93 1208 -70 1265 -56 1265 c 0
 -51 1265 -49 1260 -46 1247 c 0
 -34 1197 3 1161 44 1130 c 2
 214 1004 l 1
 289 943 324 934 324 882 c 0
 324 834 289 727 289 670 c 0
 289 618 310 606 357 547 c 2
 491 376 l 1
 537 316 580 277 613 277 c 0
 639 277 659 301 668 358 c 2
 717 641 l 2
 723 679 727 706 727 727 c 0
 727 781 701 791 621 846 c 0
 546 897 531 914 507 1016 c 2
 481 1132 l 2
 479 1138 479 1145 479 1153 c 0
 479 1197 501 1251 516 1251 c 0
 521 1251 525 1245 528 1231 c 0
 534 1203 589 1158 631 1127 c 2
 788 1009 l 1
 867 938 908 935 908 875 c 0
 908 746 860 650 857 553 c 2
 850 242 l 1
 834 20 827 31 607 0 c 2
 307 -42 l 1
 229 -51 192 -61 135 -61 c 0
 94 -61 83 -35 49 105 c 0
 41 139 31 159 31 189 c 0
 31 219 58 212 142 222 c 0
 194 228 246 232 309 240 c 0
 341 244 350 266 350 287 c 0
 350 325 331 344 306 381 c 2
 199 540 l 1
EndSplineSet
EndChar

StartChar: alef.wide
Encoding: 64289 64289 134
Width: 1715
GlyphClass: 1
Flags: W
HStem: 0 270<268.044 513.212>
AnchorPoint: "hoqa" -320.139 0.599609 basechar 0
AnchorPoint: "E1" 900 0 basechar 0
AnchorPoint: "H" 900 0 basechar 0
AnchorPoint: "W" 900 0 basechar 0
AnchorPoint: "N" 900 0 basechar 0
AnchorPoint: "Holam" 0 0 basechar 0
AnchorPoint: "R" 850 0 basechar 0
AnchorPoint: "D" 978.739 -471 basechar 0
LayerCount: 2
Fore
SplineSet
1172 798 m 0
 1123 798 1059 614 1059 576 c 0
 1059 575 1059 575 1059 574 c 1
 1069 548 1095 531 1146 506 c 2
 1346 410 l 1
 1541 331 1517 236 1563 66 c 0
 1568 47 1571 32 1571 21 c 0
 1571 7 1566 -0 1555 0 c 1
 751 421 l 1
 622 485 244 659 222 659 c 0
 209 659 202 647 202 622 c 0
 202 603 206 577 213 545 c 10
 260 342 l 2
 276 271 278 270 341 270 c 0
 358 270 375 270 392 270 c 0
 399 270 407 270 413 270 c 0
 510 270 512 245 534 150 c 0
 544 108 551 78 551 56 c 0
 551 0 507 0 359 0 c 0
 187 0 183 0 137 198 c 0
 78 456 74 548 15 806 c 1
 -66 852 -66 845 -99 988 c 2
 -113 1050 l 2
 -126 1106 -134 1144 -134 1168 c 0
 -134 1186 -129 1195 -118 1195 c 0
 -95 1195 -64 1138 22 1088 c 0
 300 923 499 835 748 712 c 0
 802 685 888 643 907 643 c 0
 909 643 910 643 910 644 c 2
 1053 1035 l 1
 1083 1108 1099 1141 1129 1141 c 0
 1155 1141 1193 1115 1259 1069 c 0
 1371 993 1374 977 1398 867 c 0
 1402 846 1423 781 1423 741 c 0
 1423 722 1419 709 1407 708 c 0
 1406 708 1404 708 1401 709 c 1
 1401 708 1400 708 1398 708 c 0
 1367 708 1216 798 1172 798 c 0
EndSplineSet
EndChar

StartChar: daled.wide
Encoding: 64290 64290 135
Width: 1687
GlyphClass: 1
Flags: W
HStem: 859 263<-63.7914 1127.47>
AnchorPoint: "hoqa" -320.139 0.599609 basechar 0
AnchorPoint: "E2" 850 0 basechar 0
AnchorPoint: "E1" 1420 0 basechar 0
AnchorPoint: "H" 1393 0 basechar 0
AnchorPoint: "W" 1379 0 basechar 0
AnchorPoint: "N" 1420 0 basechar 0
AnchorPoint: "Holam" 0 0 basechar 0
AnchorPoint: "R" 800 0 basechar 0
AnchorPoint: "D" 800 0 basechar 0
LayerCount: 2
Fore
SplineSet
1125 1122 m 1
 1178 1123 1218 1161 1265 1186 c 1
 1279 1186 1310 1144 1317 1112 c 2
 1351 963 l 2
 1355 943 1360 927 1360 914 c 0
 1360 886 1342 870 1278 853 c 1
 1455 225 l 2
 1467 181 1480 155 1480 112 c 0
 1480 72 1457 49 1402 -11 c 0
 1378 -35 1364 -52 1352 -52 c 0
 1331 -52 1318 0 1285 143 c 2
 1142 764 l 2
 1121 854 1120 859 1008 859 c 2
 57 866 l 2
 45 866 33 865 23 865 c 0
 -73 865 -77 883 -95 966 c 2
 -128 1115 l 2
 -131 1129 -132 1141 -132 1150 c 0
 -132 1176 -123 1189 -104 1201 c 1
 -49 1146 -2 1129 40 1129 c 2
 1125 1122 l 1
EndSplineSet
EndChar

StartChar: he.wide
Encoding: 64291 64291 136
Width: 1789
GlyphClass: 1
Flags: W
HStem: 864 262<-63.2008 1246.37>
VStem: 37 160<528.384 663.697>
AnchorPoint: "hoqa" -320.139 0.599609 basechar 0
AnchorPoint: "pg" 1600 0 basechar 0
AnchorPoint: "E1" 890 0 basechar 0
AnchorPoint: "H" 900 0 basechar 0
AnchorPoint: "W" 900 0 basechar 0
AnchorPoint: "N" 847 0 basechar 0
AnchorPoint: "Holam" 0 0 basechar 0
AnchorPoint: "R" 900 0 basechar 0
AnchorPoint: "D" 850 0 basechar 0
LayerCount: 2
Fore
SplineSet
1445 956 m 2
 1450 936 1454 920 1454 908 c 0
 1454 884 1441 870 1397 858 c 1
 1574 230 l 2
 1586 188 1599 160 1599 118 c 0
 1599 78 1576 56 1520 -4 c 0
 1496 -28 1483 -46 1471 -46 c 0
 1450 -46 1437 6 1404 148 c 2
 1260 770 l 2
 1241 854 1239 864 1144 864 c 2
 60 864 l 2
 -61 864 -65 874 -84 963 c 2
 -118 1112 l 2
 -120 1126 -122 1138 -122 1147 c 0
 -122 1173 -112 1186 -94 1198 c 1
 -38 1143 9 1126 51 1126 c 2
 1244 1128 l 1
 1295 1130 1312 1150 1356 1178 c 0
 1357 1178 1359 1178 1360 1178 c 0
 1374 1178 1405 1136 1412 1104 c 2
 1445 956 l 2
138 94 m 2
 57 446 l 2
 44 505 37 540 37 565 c 0
 37 599 50 618 79 660 c 0
 106 700 123 722 136 722 c 0
 155 722 166 678 197 576 c 2
 309 204 l 1
 323 153 338 122 338 73 c 0
 338 37 319 20 277 -21 c 0
 242 -56 221 -77 206 -77 c 0
 181 -77 167 -28 138 94 c 2
EndSplineSet
EndChar

StartChar: khaf.wide
Encoding: 64292 64292 137
Width: 1560
GlyphClass: 1
Flags: W
HStem: 61 285<1092.98 1240.31>
VStem: 1246 156<265 532.227>
AnchorPoint: "hoqa" -320.139 0.599609 basechar 0
AnchorPoint: "E1" 850 0 basechar 0
AnchorPoint: "H" 800 0 basechar 0
AnchorPoint: "W" 800 0 basechar 0
AnchorPoint: "N" 778 0 basechar 0
AnchorPoint: "Holam" 0 0 basechar 0
AnchorPoint: "R" 793.074 30 basechar 0
AnchorPoint: "D" 800 0 basechar 0
LayerCount: 2
Fore
SplineSet
73 1178 m 2
 1018 1088 l 2
 1091 1081 1154 1070 1195 1002 c 1
 1195 1000 l 1
 1196 1002 l 1
 1290 814 1343 595 1395 380 c 0
 1400 361 1402 340 1402 320 c 0
 1402 210 1338 90 1240 61 c 1
 1238 61 l 1
 277 -34 l 2
 213 -41 181 -45 138 -45 c 0
 83 -45 74 45 60 106 c 0
 49 149 42 178 42 199 c 0
 42 242 71 251 161 259 c 2
 1108 346 l 1
 1215 351 1246 375 1246 417 c 0
 1246 441 1235 472 1222 509 c 0
 1194 591 1140 714 1090 792 c 0
 1060 840 583 852 444 865 c 2
 81 899 l 1
 -42 907 -55 924 -71 1018 c 2
 -96 1164 l 2
 -98 1178 -100 1190 -100 1199 c 0
 -100 1225 -90 1238 -72 1250 c 1
 -16 1195 30 1182 73 1178 c 2
EndSplineSet
EndChar

StartChar: lamed.wide
Encoding: 64293 64293 138
Width: 1650
GlyphClass: 1
Flags: W
HStem: 865 269<-18.78 1117.58>
VStem: 786 297<-20 151.9>
AnchorPoint: "hoqa" -320.139 0.599609 basechar 0
AnchorPoint: "E1" 951.543 -50 basechar 0
AnchorPoint: "H" 978.163 -96 basechar 0
AnchorPoint: "W" 977.704 -120 basechar 0
AnchorPoint: "N" 953.543 -50 basechar 0
AnchorPoint: "Holam" -130 0 basechar 0
AnchorPoint: "D" 800 0 basechar 0
LayerCount: 2
Fore
SplineSet
1083 121 m 0
 1083 98 1098 72 1098 54 c 0
 1098 53 1098 53 1098 52 c 0
 1098 41 1094 31 1081 19 c 1
 877 -98 l 1
 850 -122 831 -135 819 -135 c 0
 800 -135 795 -97 792 -72 c 0
 788 -51 786 -31 786 -9 c 0
 786 37 797 89 836 162 c 1
 1211 623 l 1
 1198 685 1175 742 1139 798 c 0
 1096 863 1076 865 951 865 c 2
 74 865 l 2
 -47 865 -75 881 -115 1041 c 0
 -152 1188 -181 1337 -214 1484 c 0
 -232 1564 -252 1596 -320 1642 c 0
 -365 1673 -383 1712 -395 1767 c 2
 -424 1908 l 2
 -430 1933 -432 1952 -432 1968 c 0
 -432 1996 -424 2009 -412 2009 c 0
 -395 2009 -369 1983 -346 1937 c 0
 -329 1902 -287 1877 -261 1864 c 0
 -144 1805 -141 1735 -114 1609 c 2
 -36 1236 l 1
 -16 1146 -13 1134 68 1134 c 2
 1105 1132 l 2
 1243 1132 1259 1111 1313 976 c 2
 1409 734 l 1
 1423 692 1439 667 1439 632 c 0
 1439 562 1317 447 1277 396 c 2
 1097 171 l 1
 1087 154 1083 137 1083 121 c 0
EndSplineSet
EndChar

StartChar: finalmem.wide
Encoding: 64294 64294 139
Width: 1773
GlyphClass: 1
Flags: W
HStem: 0 259<272.223 1436.25> 865 264<172.469 1293.08>
VStem: 13 136<535.062 827.413> 1437 189<121.5 329.236>
AnchorPoint: "E1" 850 0 basechar 0
AnchorPoint: "H" 960 0 basechar 0
AnchorPoint: "W" 900 0 basechar 0
AnchorPoint: "N" 887 0 basechar 0
AnchorPoint: "Holam" 0 0 basechar 0
AnchorPoint: "D" 900 0 basechar 0
LayerCount: 2
Fore
SplineSet
-111 1216 m 1
 -35 1154 24 1129 119 1129 c 2
 1173 1128 l 1
 1335 1125 1374 1093 1429 899 c 2
 1619 234 l 2
 1624 216 1626 199 1626 184 c 0
 1626 59 1492 -0 1365 -0 c 0
 1016 -0 668 0 319 0 c 0
 211 0 157 28 129 154 c 2
 16 666 l 2
 14 677 13 689 13 700 c 0
 13 737 25 778 59 830 c 1
 61 835 62 840 62 844 c 0
 62 891 -61 844 -76 904 c 2
 -127 1109 l 2
 -129 1121 -130 1136 -130 1151 c 0
 -130 1183 -125 1216 -111 1216 c 1
242 865 m 1
 173 849 149 797 149 732 c 0
 149 690 159 642 174 594 c 2
 243 374 l 1
 282 265 283 259 374 259 c 2
 381 259 l 1
 1351 262 l 2
 1414 262 1437 262 1437 292 c 0
 1437 325 1428 348 1418 384 c 0
 1371 566 1383 537 1324 742 c 0
 1288 865 1280 865 1131 865 c 2
 242 865 l 1
EndSplineSet
EndChar

StartChar: resh.wide
Encoding: 64295 64295 140
Width: 1788
GlyphClass: 1
Flags: W
VStem: 1505 132<-20.8582 74.8518>
AnchorPoint: "hoqa" -320.139 0.599609 basechar 0
AnchorPoint: "E2" 1005 0 basechar 0
AnchorPoint: "E1" 1584 0 basechar 0
AnchorPoint: "H" 1584 0 basechar 0
AnchorPoint: "W" 1597 0 basechar 0
AnchorPoint: "N" 1600 0 basechar 0
AnchorPoint: "Holam" 0 0 basechar 0
AnchorPoint: "D" 900 0 basechar 0
LayerCount: 2
Fore
SplineSet
1306 717 m 1
 1276 819 1277 827 1163 833 c 2
 16 894 l 1
 -87 908 -89 908 -108 990 c 2
 -138 1122 l 1
 -138 1167 -130 1197 -121 1224 c 1
 -72 1181 -31 1147 41 1142 c 2
 1317 1062 l 1
 1395 1049 1415 1029 1442 915 c 2
 1614 185 l 2
 1625 141 1637 79 1637 58 c 0
 1637 25 1625 12 1602 -12 c 0
 1572 -43 1556 -60 1544 -60 c 0
 1529 -60 1522 -34 1505 25 c 2
 1306 717 l 1
EndSplineSet
EndChar

StartChar: tav.wide
Encoding: 64296 64296 141
Width: 1873
GlyphClass: 1
Flags: W
HStem: -25 21G<1619.85 1630.5> 862 274<285.333 1355.06>
VStem: 38 476<71.9124 213.772> 170 111<679.982 862.518> 1626 92<-4.84393 21.6243>
AnchorPoint: "hoqa" -320.139 0.599609 basechar 0
AnchorPoint: "E1" 1000 0 basechar 0
AnchorPoint: "H" 1000 0 basechar 0
AnchorPoint: "W" 1000 0 basechar 0
AnchorPoint: "N" 1000.23 -1 basechar 0
AnchorPoint: "Holam" 98.8457 5 basechar 0
AnchorPoint: "R" 1000 0 basechar 0
AnchorPoint: "D" 1000 0 basechar 0
LayerCount: 2
Fore
SplineSet
235 305 m 0xe8
 235 410 155 579 155 678 c 0
 155 720 170 780 170 814 c 0
 170 850 158 855 113 880 c 0
 66 906 62 902 49 956 c 2
 16 1101 l 1
 35 1216 l 1
 81 1149 127 1141 183 1141 c 2
 1288 1136 l 2
 1471 1136 1472 1121 1526 895 c 2
 1710 132 l 2
 1715 108 1718 91 1718 77 c 0
 1718 50 1707 35 1681 3 c 0
 1667 -15 1635 -25 1626 -25 c 1
 1404 697 l 1
 1357 841 1352 862 1250 862 c 2
 357 867 l 1
 291 864 281 838 281 759 c 0xd8
 281 733 281 710 287 685 c 0
 343 438 514 292 514 118 c 0
 514 88 490 78 437 58 c 2
 129 -57 l 1
 90 -57 73 -15 54 70 c 0
 44 111 38 139 38 160 c 0
 38 204 66 213 145 240 c 0
 211 263 235 272 235 305 c 0xe8
EndSplineSet
EndChar

StartChar: hebrewplussign
Encoding: 64297 64297 142
Width: 1106
VWidth: 1998
GlyphClass: 1
Flags: W
HStem: 428 219<0 320 539 907>
LayerCount: 2
Fore
SplineSet
0 428 m 1
 -50 647 l 1
 320 647 l 1
 234 1018 l 1
 453 1018 l 1
 539 647 l 1
 907 647 l 1
 957 428 l 1
 0 428 l 1
EndSplineSet
EndChar

StartChar: aleflamed
Encoding: 64335 64335 144
Width: 1335
GlyphClass: 2
Flags: W
HStem: -9 21G<1154 1173.5>
AnchorPoint: "H" 700 0 basechar 0
AnchorPoint: "W" 760 0 basechar 0
AnchorPoint: "N" 748 0 basechar 0
AnchorPoint: "Holam" -130 0 basechar 0
AnchorPoint: "D" 394.248 -170 basechar 0
LayerCount: 2
Fore
SplineSet
780 821 m 0
 743 821 688 705 688 667 c 0
 688 634 717 620 774 576 c 2
 957 434 l 1
 1126 307 1128 298 1162 145 c 0
 1173 96 1183 50 1183 21 c 0
 1183 2 1179 -9 1168 -9 c 0
 1140 -9 1077 43 948 136 c 2
 15 806 l 1
 -66 852 -66 845 -99 988 c 0
 -138 1157 -177 1325 -216 1494 c 0
 -234 1574 -254 1606 -322 1652 c 0
 -367 1683 -386 1722 -397 1777 c 2
 -427 1918 l 2
 -431 1934 -434 1956 -434 1974 c 0
 -434 1997 -429 2016 -414 2019 c 1
 -397 2019 -371 1993 -348 1947 c 0
 -331 1912 -289 1887 -264 1874 c 0
 -146 1815 -143 1745 -117 1619 c 2
 -39 1246 l 1
 -18 1156 -2 1125 38 1096 c 2
 418 818 l 1
 471 781 500 754 523 754 c 0
 543 754 558 777 582 840 c 2
 665 1058 l 2
 695 1135 715 1165 743 1165 c 0
 771 1165 807 1134 871 1092 c 0
 984 1017 986 1001 1010 890 c 0
 1018 851 1035 798 1035 762 c 0
 1035 742 1029 732 1013 732 c 0
 979 732 829 821 780 821 c 0
EndSplineSet
Ligature2: "ccmpAlefLamedLigature subtable" alef zerojoin lamed
LCarets2: 2 0 0 
EndChar

StartChar: lowerdot
Encoding: 1477 1477 145
Width: 0
VWidth: 2273
GlyphClass: 4
Flags: W
HStem: 138 40<-189 189> 602 47<-70.8391 13.6032> 718 47<-189 189>
VStem: -232 43<178 718> -34 50<288.969 350.812> 38 67<470.32 587.792> 189 43<178 718>
LayerCount: 2
Fore
SplineSet
-28 332 m 10
 0 360 l 18
 8 367 16 367 16 354 c 10
 16 324 l 18
 16 316 12 312 6 305 c 10
 -19 278 l 17
 -26 272 -34 274 -34 288 c 10
 -34 314 l 18
 -34 322 -33 326 -28 332 c 10
-30 403 m 0
 -30 429 38 468 38 510 c 0
 38 566 4 602 -34 602 c 0
 -75 602 -75 581 -86 581 c 0
 -92 581 -100 585 -100 590 c 0
 -100 592 -71 649 -5 649 c 3
 52 649 105 612 105 552 c 0
 105 478 43 453 15 404 c 0
 13 402 12 401 10 401 c 0
 6 400 -6 399 -16 399 c 0
 -24 399 -30 400 -30 403 c 0
-189 718 m 1
 -189 178 l 1
 189 178 l 1
 189 718 l 1
 -189 718 l 1
-232 765 m 1
 232 765 l 1
 232 138 l 1
 -232 138 l 1
 -232 765 l 1
EndSplineSet
Validated: 1
Substitution2: "ccmpChangeCantillationsToCircle subtable" dottedcircle
EndChar

StartChar: nunhapukha
Encoding: 1478 1478 146
Width: 824
GlyphClass: 1
Flags: W
VStem: -121 561<867.738 1054.34>
LayerCount: 2
Fore
SplineSet
-103 880 m 0
 -114 928 -121 962 -121 987 c 0
 -121 1032 -99 1050 -36 1071 c 1
 29 1085 98 1090 166 1115 c 1
 236 1135 269 1187 315 1228 c 1
 319 1233 324 1236 328 1236 c 0
 353 1236 388 1167 398 1121 c 2
 429 988 l 2
 436 958 440 937 440 920 c 0
 440 881 414 872 335 843 c 1
 269 817 249 807 249 754 c 0
 249 734 252 709 256 676 c 2
 289 408 l 1
 298 370 l 2
 317 287 326 276 444 276 c 1
 547 268 l 1
 664 256 666 252 695 124 c 0
 706 76 714 43 714 21 c 0
 714 -13 698 -23 656 -23 c 0
 634 -23 604 -20 565 -16 c 2
 365 8 l 1
 206 34 205 28 173 166 c 2
 44 722 l 2
 31 780 25 799 -8 799 c 0
 -16 799 -26 798 -38 796 c 1
 -44 789 -50 786 -56 786 c 0
 -72 786 -87 812 -103 880 c 0
EndSplineSet
EndChar

StartChar: qamatsqatan
Encoding: 1479 1479 147
Width: 0
GlyphClass: 4
Flags: W
HStem: -305 162<-116.209 24 112 215.102>
VStem: 24 88<-440.062 -305>
AnchorPoint: "m2m1" -250 0 basemark 0
AnchorPoint: "W" 0 0 mark 0
LayerCount: 2
Fore
SplineSet
112 -305 m 1
 124 -357 l 2
 126 -364 148 -431 152 -435 c 1
 214 -516 l 1
 208 -545 204 -583 166 -608 c 1
 162 -608 l 2
 150 -608 140 -609 138 -609 c 0
 136 -609 124 -608 116 -608 c 2
 110 -608 l 1
 66 -585 42 -551 20 -517 c 1
 44 -435 l 1
 44 -430 l 2
 44 -414 38 -362 36 -357 c 2
 24 -305 l 1
 -60 -305 l 2
 -102 -305 -108 -303 -118 -256 c 1
 -124 -237 -138 -181 -138 -162 c 0
 -138 -144 -126 -143 -96 -143 c 2
 156 -143 l 2
 198 -143 206 -144 216 -189 c 1
 222 -211 238 -266 238 -288 c 0
 238 -304 226 -305 198 -305 c 2
 112 -305 l 1
EndSplineSet
Ligature2: "ccmpRemoveCircles subtable" qamatsqatan dottedcircle
Ligature2: "ccmpRemoveCircles subtable" dottedcircle qamatsqatan
LCarets2: 1 0 
EndChar

StartChar: atnahhafukh
Encoding: 1442 1442 149
Width: 0
VWidth: 2273
GlyphClass: 4
Flags: MW
LayerCount: 2
Fore
SplineSet
-28 332 m 10
 0 360 l 18
 8 367 16 367 16 354 c 10
 16 324 l 18
 16 316 12 312 6 305 c 10
 -19 278 l 17
 -26 272 -34 274 -34 288 c 10
 -34 314 l 18
 -34 322 -33 326 -28 332 c 10
-30 403 m 0
 -30 429 38 468 38 510 c 0
 38 566 4 602 -34 602 c 0
 -75 602 -75 581 -86 581 c 0
 -92 581 -100 585 -100 590 c 0
 -100 592 -71 649 -5 649 c 3
 52 649 105 612 105 552 c 0
 105 478 43 453 15 404 c 0
 13 402 12 401 10 401 c 0
 6 400 -6 399 -16 399 c 0
 -24 399 -30 400 -30 403 c 0
-189 718 m 1
 -189 178 l 1
 189 178 l 1
 189 718 l 1
 -189 718 l 1
-232 765 m 1
 232 765 l 1
 232 138 l 1
 -232 138 l 1
 -232 765 l 1
EndSplineSet
Validated: 1
Substitution2: "ccmpChangeCantillationsToCircle subtable" dottedcircle
EndChar

StartChar: .null
Encoding: 0 0 150
Width: 1128
VWidth: 2273
GlyphClass: 1
Flags: W
HStem: -64 138<169 925> 124 192<388.519 546.803> 868 107<254.509 416.264> 1035 154<-53 703>
VStem: 101 220<718.706 828.288> 357 220<157.25 284.877> 357 125<368.726 528.643> 446 194<620.495 840.684>
LayerCount: 2
Fore
SplineSet
55 -64 m 1xf8
 -235 1189 l 1
 814 1189 l 1
 1104 -64 l 1
 55 -64 l 1xf8
703 1035 m 1
 -53 1035 l 1
 169 74 l 1
 925 74 l 1
 703 1035 l 1
489 124 m 0
 427 124 357 174 357 240 c 0xfc
 357 284 394 316 446 316 c 0xf9
 508 316 577 268 577 201 c 0xfc
 577 158 542 124 489 124 c 0
253 848 m 1
 264 840 321 804 321 754 c 0
 321 711 286 679 240 679 c 0
 165 679 101 743 101 824 c 0
 101 916 194 975 325 975 c 0
 477 975 605 890 634 762 c 0
 638 744 640 728 640 713 c 0xf9
 640 653 607 611 533 538 c 1
 498 506 482 487 482 449 c 0
 482 432 485 410 492 381 c 2
 501 341 l 1
 382 341 l 1
 367 406 l 2
 360 436 357 463 357 486 c 0xfa
 357 611 446 639 446 731 c 0xf9
 446 804 410 868 319 868 c 0
 277 868 260 855 253 848 c 1
EndSplineSet
Substitution2: "ccmpZwjZwnjOOLinuxBug" zerojoin
EndChar

StartChar: zerojoin
Encoding: 8205 8205 154
Width: 0
VWidth: 0
GlyphClass: 1
Flags: MW
LayerCount: 2
Fore
SplineSet
-124 1584 m 25
 -204 1524 l 25
 -204 1640 l 25
 204 1640 l 25
 204 1524 l 25
 124 1584 l 25
 -124 1584 l 25
EndSplineSet
Validated: 1
EndChar

StartChar: dottedcircle
Encoding: 9676 9676 156
Width: 1329
GlyphClass: 1
Flags: W
HStem: -4 193<569.723 717.096> 56 193<322.3 469.171 790.3 937.171> 230 193<107.723 255.096 923.723 1071.1> 464 193<-6.27739 141.096 929.723 1077.1> 698 193<-0.277386 147.096 815.723 963.096> 872 193<132.829 280.084 600.829 748.084> 932 193<353.723 500.084>
VStem: -33 200<489.888 631.112 729.512 868.575> 81 200<255.888 397.112> 107 200<897.888 1038.07> 296 199<81.8877 223.112> 327 200<957.888 1098.07> 543 200<21.8877 163.112> 575 200<897.888 1038.07> 764 199<81.8877 223.112> 789 200<723.888 865.112> 897 200<255.888 397.112 495.512 634.575>
LayerCount: 2
Fore
SplineSet
89 464 m 0x11
 22 464 -33 512 -33 588 c 0
 -33 631 -5 657 44 657 c 0
 113 657 167 609 167 533 c 0
 167 490 139 464 89 464 c 0x11
1025 464 m 0
 958 464 903 512 903 588 c 0
 903 631 931 657 980 657 c 0
 1049 657 1103 609 1103 533 c 0
 1103 490 1075 464 1025 464 c 0
449 932 m 0x1210
 382 932 327 980 327 1056 c 0
 327 1099 355 1125 404 1125 c 0
 472 1125 527 1077 527 1001 c 0
 527 958 499 932 449 932 c 0x1210
665 -4 m 0x9008
 598 -4 543 44 543 120 c 0
 543 163 571 189 620 189 c 0
 689 189 743 141 743 65 c 0
 743 22 715 -4 665 -4 c 0x9008
911 698 m 0x1801
 844 698 789 746 789 822 c 0
 789 865 817 891 866 891 c 0
 935 891 989 843 989 767 c 0
 989 724 961 698 911 698 c 0x1801
1019 230 m 0x300080
 952 230 897 278 897 354 c 0
 897 397 925 423 974 423 c 0
 1043 423 1097 375 1097 299 c 0
 1097 256 1069 230 1019 230 c 0x300080
95 698 m 0x18
 28 698 -27 746 -27 822 c 0
 -27 865 1 891 50 891 c 0
 119 891 173 843 173 767 c 0
 173 724 145 698 95 698 c 0x18
203 230 m 0x3080
 136 230 81 278 81 354 c 0
 81 397 109 423 158 423 c 0
 227 423 281 375 281 299 c 0
 281 256 253 230 203 230 c 0x3080
229 872 m 0x1440
 161 872 107 920 107 996 c 0
 107 1039 135 1065 184 1065 c 0
 252 1065 307 1017 307 941 c 0
 307 898 279 872 229 872 c 0x1440
697 872 m 0
 629 872 575 920 575 996 c 0
 575 1039 603 1065 652 1065 c 0
 720 1065 775 1017 775 941 c 0x1404
 775 898 747 872 697 872 c 0
417 56 m 0x5020
 350 56 296 104 296 180 c 0
 296 223 323 249 373 249 c 0
 441 249 495 201 495 125 c 0
 495 82 467 56 417 56 c 0x5020
885 56 m 0
 818 56 764 104 764 180 c 0
 764 223 791 249 841 249 c 0
 909 249 963 201 963 125 c 0x5002
 963 82 935 56 885 56 c 0
EndSplineSet
Substitution2: "ccmpChangeCirclesToZWS subtable" zerowidthspace
EndChar

StartChar: Euro
Encoding: 8364 8364 189
Width: 1060
GlyphClass: 1
Flags: W
HStem: -18 110<498.619 811.697> 408 79<-43 61 274 617> 617 79<-91 22 206 618> 1086 71<277.664 501.193>
VStem: 22 165<696 976.879> 505 227<958.04 1062.01>
LayerCount: 2
Fore
SplineSet
61 487 m 1
 51 530 40 574 31 617 c 1
 -91 617 l 1
 -110 696 l 1
 22 696 l 1
 21 717 22 738 22 758 c 0
 22 987 127 1157 373 1157 c 0
 539 1157 732 1112 732 954 c 0
 732 915 704 890 663 890 c 0
 586 890 526 967 505 1057 c 1
 468 1076 426 1086 387 1086 c 0
 235 1086 188 950 187 799 c 0
 187 766 189 731 193 696 c 1
 618 696 l 1
 637 617 l 1
 206 617 l 1
 213 586 l 2
 221 552 230 519 242 487 c 1
 617 487 l 1
 635 408 l 1
 274 408 l 1
 355 242 470 92 669 92 c 0
 766 92 832 122 900 160 c 1
 907 153 914 144 921 134 c 1
 927 108 l 1
 864 38 745 -18 613 -18 c 0
 556 -18 497 -8 438 17 c 0
 279 84 163 229 91 408 c 1
 -43 408 l 1
 -61 487 l 1
 61 487 l 1
EndSplineSet
EndChar

StartChar: uni02C2
Encoding: 706 706 190
Width: 0
VWidth: 2273
GlyphClass: 3
Flags: W
HStem: 1358 414
VStem: -534 372
AnchorPoint: "E2" 0 0 mark 0
AnchorPoint: "E1" -2.30859 10 mark 0
LayerCount: 2
Fore
SplineSet
-346 1750 m 2
 -336 1759 -327 1772 -306 1772 c 0
 -304 1772 -302 1772 -300 1772 c 0
 -275 1768 -263 1749 -249 1734 c 0
 -236 1720 -218 1707 -217 1684 c 0
 -215 1660 -232 1653 -243 1643 c 2
 -325 1574 l 2
 -329 1570 -333 1567 -335 1565 c 1
 -331 1562 -327 1560 -321 1557 c 2
 -214 1492 l 2
 -191 1478 -168 1464 -162 1439 c 0
 -161 1435 -161 1431 -161 1428 c 0
 -161 1414 -167 1403 -173 1391 c 0
 -178 1379 -181 1362 -204 1358 c 0
 -206 1358 -209 1358 -211 1358 c 0
 -230 1358 -245 1370 -261 1380 c 2
 -469 1506 l 2
 -495 1522 -527 1533 -534 1564 c 0
 -535 1568 -534 1571 -534 1574 c 0
 -534 1598 -513 1609 -495 1624 c 2
 -346 1750 l 2
EndSplineSet
EndChar

StartChar: linevertsub
Encoding: 716 716 191
Width: 0
GlyphClass: 3
Flags: W
HStem: -528 433<42.877 101.33>
VStem: -40 224
AnchorPoint: "m2m1" 65 0 mark 0
AnchorPoint: "E1" 0 0 mark 0
LayerCount: 2
Fore
SplineSet
178 -471 m 2
 182 -488 184 -500 184 -509 c 0
 184 -525 175 -528 149 -528 c 0
 147 -528 95 -528 92 -528 c 0
 54 -528 50 -517 39 -467 c 2
 -33 -156 l 2
 -37 -137 -40 -124 -40 -115 c 0
 -40 -100 -32 -96 -8 -96 c 0
 -5 -96 47 -95 49 -95 c 0
 89 -95 92 -100 104 -151 c 2
 178 -471 l 2
EndSplineSet
EndChar

StartChar: A
Encoding: 65 65 192
Width: 1442
VWidth: 1900
Flags: W
HStem: 0 104<-34 51.9442 321.599 491 811 920.981 1304.84 1454> 414 128<310 686> 1380 20G<340.048 500.92>
LayerCount: 2
Fore
SplineSet
344 1400 m 1
 488 1400 l 1
 1249 222 l 2
 1311 125 1346 103 1454 103 c 1
 1478 0 l 1
 811 0 l 1
 787 104 l 1
 820 104 l 2
 895 104 921 113 921 138 c 0
 921 165 904 189 878 228 c 1
 763 414 l 1
 290 414 l 1
 276 342 l 2
 269 311 266 291 266 273 c 0
 266 260 268 248 271 234 c 0
 291 147 354 103 491 103 c 1
 515 0 l 1
 -34 0 l 1
 -58 103 l 1
 54 103 106 188 145 393 c 2
 344 1400 l 1
397 996 m 1
 310 542 l 1
 686 542 l 1
 397 996 l 1
EndSplineSet
EndChar

StartChar: B
Encoding: 66 66 193
Width: 1478
VWidth: 1900
Flags: W
HStem: 0 103<32 191.963 541.283 892.967> 652 104<421 696.747> 1269 103<-261 -70.9999 296.126 619.462>
VStem: 764 341<839.388 1120.31> 957 366<164.243 450.981>
LayerCount: 2
Fore
SplineSet
37 103 m 2xe8
 142 103 192 105 192 149 c 0
 192 165 185 195 167 274 c 2
 -23 1098 l 2
 -52 1220 -53 1226 -70 1243 c 1
 -91 1262 -133 1269 -232 1269 c 2
 -261 1269 l 1
 -285 1372 l 1
 449 1372 l 2
 675 1372 769 1357 887 1296 c 1
 992 1245 1072 1144 1097 1036 c 0
 1102 1013 1105 991 1105 970 c 0xf0
 1105 887 1063 819 982 775 c 0
 935 750 884 737 794 722 c 1
 1055 689 1267 567 1315 359 c 0
 1321 335 1323 312 1323 289 c 0
 1323 189 1273 102 1184 57 c 1
 1097 15 1000 0 802 0 c 2
 32 0 l 1
 8 103 l 1
 37 103 l 2xe8
385 1269 m 2
 339 1269 295 1256 295 1214 c 0
 295 1202 299 1185 304 1159 c 2
 397 756 l 1
 490 756 l 2
 608 756 670 771 711 813 c 1
 746 847 764 893 764 950 c 0
 764 974 761 1000 755 1028 c 0
 718 1186 609 1269 442 1269 c 2
 385 1269 l 2
721 103 m 2
 875 103 957 158 957 302 c 0xe8
 957 443 880 554 791 606 c 1
 730 640 672 652 552 652 c 2
 421 652 l 1
 520 224 l 2
 535 161 536 156 545 141 c 0
 563 114 598 103 664 103 c 2
 721 103 l 2
EndSplineSet
EndChar

StartChar: C
Encoding: 67 67 194
Width: 1478
VWidth: 1900
Flags: W
HStem: -28 117<627.165 984.849> 1302 91<359.241 696.167>
VStem: -101 355<679.374 1088> 1051 79<847.004 909.195> 1140 125<253.477 475>
LayerCount: 2
Fore
SplineSet
1004 1393 m 1
 1130 849 l 1
 1051 838 l 1
 891 1155 719 1302 508 1302 c 0
 339 1302 254 1194 254 986 c 0
 254 906 267 812 292 703 c 0
 388 285 555 89 813 89 c 0
 1023 89 1140 228 1140 474 c 0
 1140 484 1140 494 1140 504 c 1
 1264 475 l 1
 1264 468 1265 462 1265 455 c 0
 1265 129 1107 -28 777 -28 c 0
 555 -28 379 36 214 180 c 0
 61 315 -33 471 -78 669 c 0
 -94 735 -101 798 -101 858 c 0
 -101 1182 118 1400 471 1400 c 0
 606 1400 699 1378 841 1302 c 1
 922 1393 l 1
 1004 1393 l 1
EndSplineSet
EndChar

StartChar: D
Encoding: 68 68 195
Width: 1582
VWidth: 1900
Flags: W
HStem: 0 103<36 194.964 551.382 888.035> 1269 103<-257 -53.4098 302.295 641.976>
VStem: 1003 368<262.442 729.572>
LayerCount: 2
Fore
SplineSet
171 274 m 2
 -19 1098 l 2
 -47 1218 -50 1226 -67 1241 c 0
 -88 1262 -129 1269 -228 1269 c 2
 -257 1269 l 1
 -281 1372 l 1
 395 1372 l 2
 663 1372 810 1345 942 1269 c 1
 1148 1153 1286 956 1345 701 c 0
 1362 626 1371 556 1371 491 c 0
 1371 330 1318 200 1217 116 c 0
 1118 34 974 0 735 0 c 2
 36 0 l 1
 12 103 l 1
 41 103 l 2
 140 103 178 110 190 131 c 0
 193 136 195 141 195 150 c 0
 195 166 189 197 171 274 c 2
666 103 m 2
 706 103 l 2
 833 103 934 150 972 232 c 1
 993 273 1003 336 1003 413 c 0
 1003 497 991 599 966 705 c 0
 879 1085 708 1269 444 1269 c 2
 397 1269 l 2
 328 1269 301 1256 301 1210 c 0
 301 1195 304 1177 309 1155 c 2
 524 226 l 2
 547 125 573 103 666 103 c 2
EndSplineSet
EndChar

StartChar: E
Encoding: 69 69 196
Width: 1442
VWidth: 1900
Flags: W
HStem: 0 103<30 189.963 571.357 961.737> 657 105<418 560.559> 1269 103<-263 -58.6621 304.214 709.901>
VStem: 626 103<978.798 1032> 774 103<388 450.381> 1015 87<878 940.123> 1125 100<448.918 511>
LayerCount: 2
Fore
SplineSet
35 103 m 2
 140 103 190 105 190 149 c 0
 190 165 183 195 165 274 c 2
 -25 1098 l 2
 -53 1218 -55 1226 -72 1241 c 0
 -93 1262 -135 1269 -234 1269 c 2
 -263 1269 l 1
 -287 1372 l 1
 988 1372 l 1
 1102 878 l 1
 1015 878 l 1
 907 1088 779 1269 494 1269 c 2
 440 1269 l 2
 349 1269 299 1256 299 1196 c 0
 299 1178 304 1152 315 1106 c 2
 394 762 l 1
 426 762 l 2
 558 762 629 838 629 978 c 0
 629 995 628 1013 626 1032 c 1
 729 1032 l 1
 877 388 l 1
 774 388 l 1
 713 563 598 657 450 657 c 2
 418 657 l 1
 516 236 l 2
 530 173 540 152 570 129 c 1
 599 106 624 103 717 103 c 2
 774 103 l 2
 1004 103 1111 226 1125 511 c 1
 1225 511 l 1
 1343 0 l 1
 30 0 l 1
 6 103 l 1
 35 103 l 2
EndSplineSet
EndChar

StartChar: F
Encoding: 70 70 197
Width: 1371
VWidth: 1900
Flags: W
HStem: 0 103<42 200.963 551.445 778> 657 105<429 579.34> 1269 103<-251 -47.6621 315.306 704.087>
VStem: 638 102<976.798 1032> 786 102<388 450.381> 1009 88<878 940.123>
LayerCount: 2
Fore
SplineSet
46 103 m 2
 151 103 201 105 201 149 c 0
 201 165 194 195 176 274 c 2
 -14 1098 l 2
 -42 1218 -44 1226 -61 1241 c 0
 -82 1262 -124 1269 -223 1269 c 2
 -251 1269 l 1
 -275 1372 l 1
 983 1372 l 1
 1097 878 l 1
 1009 878 l 1
 902 1090 773 1269 488 1269 c 2
 452 1269 l 2
 361 1269 310 1256 310 1196 c 0
 310 1178 315 1152 326 1106 c 2
 405 762 l 1
 438 762 l 2
 571 762 641 835 641 976 c 0
 641 993 640 1012 638 1032 c 1
 740 1032 l 1
 888 388 l 1
 786 388 l 1
 725 563 612 657 462 657 c 2
 429 657 l 1
 518 274 l 2
 545 154 548 146 565 131 c 0
 587 110 627 103 728 103 c 2
 778 103 l 1
 802 0 l 1
 42 0 l 1
 18 103 l 1
 46 103 l 2
EndSplineSet
EndChar

StartChar: G
Encoding: 71 71 198
Width: 1582
VWidth: 1900
Flags: W
HStem: -28 98<612.933 923.507> 536 102<754 949.609 1273 1405> 1302 91<376.088 722.989>
VStem: -104 366<641.39 1081.78> 998 275<285.172 486.223>
LayerCount: 2
Fore
SplineSet
1044 1393 m 1
 1170 847 l 1
 1086 847 l 1
 957 1136 753 1302 529 1302 c 0
 417 1302 329 1248 294 1159 c 0
 273 1103 262 1035 262 956 c 0
 262 687 372 386 478 234 c 0
 550 131 658 70 774 70 c 0
 915 70 998 151 998 281 c 0
 998 307 995 335 988 365 c 2
 982 391 l 2
 950 530 940 536 775 536 c 2
 754 536 l 1
 731 638 l 1
 1405 638 l 1
 1428 536 l 1
 1320 536 1291 528 1278 509 c 0
 1275 504 1273 499 1273 491 c 0
 1273 475 1280 444 1299 365 c 2
 1389 -28 l 1
 1288 -28 l 1
 1152 160 l 1
 1110 103 1086 77 1045 49 c 0
 969 0 859 -28 743 -28 c 0
 350 -28 15 255 -80 665 c 0
 -96 736 -104 801 -104 861 c 0
 -104 979 -73 1079 -8 1170 c 1
 98 1322 267 1400 485 1400 c 0
 622 1400 720 1374 870 1298 c 1
 960 1393 l 1
 1044 1393 l 1
EndSplineSet
EndChar

StartChar: H
Encoding: 72 72 199
Width: 1653
VWidth: 1900
Flags: W
HStem: 0 103<38 196.964 547.914 753 876 1034.96 1400.05 1591> 644 114<429 899> 1269 103<-255 -51.4098 299.038 460 583 786.026 1137.04 1298>
LayerCount: 2
Fore
SplineSet
880 103 m 2
 986 103 1035 105 1035 150 c 0
 1035 166 1029 197 1011 274 c 2
 925 644 l 1
 429 644 l 1
 515 274 l 2
 543 152 544 146 561 131 c 0
 583 110 626 103 725 103 c 2
 753 103 l 1
 777 0 l 1
 38 0 l 1
 14 103 l 1
 42 103 l 2
 148 103 197 105 197 150 c 0
 197 166 191 197 173 274 c 2
 -17 1096 l 2
 -45 1218 -48 1226 -65 1241 c 0
 -86 1262 -128 1269 -227 1269 c 2
 -255 1269 l 1
 -279 1372 l 1
 460 1372 l 1
 484 1269 l 1
 456 1269 l 2
 351 1269 299 1267 299 1223 c 0
 299 1207 306 1176 325 1096 c 2
 403 758 l 1
 899 758 l 1
 821 1096 l 2
 793 1216 790 1226 773 1241 c 0
 752 1262 710 1269 611 1269 c 2
 583 1269 l 1
 559 1372 l 1
 1298 1372 l 1
 1322 1269 l 1
 1293 1269 l 2
 1188 1269 1137 1267 1137 1223 c 0
 1137 1207 1144 1176 1163 1096 c 2
 1353 274 l 2
 1381 152 1382 146 1399 131 c 0
 1421 110 1463 103 1562 103 c 2
 1591 103 l 1
 1615 0 l 1
 876 0 l 1
 852 103 l 1
 880 103 l 2
EndSplineSet
EndChar

StartChar: I
Encoding: 73 73 200
Width: 843
VWidth: 1900
Flags: W
HStem: 0 103<53 212.963 562.914 768> 1269 103<-240 -35.1575 314.038 475>
LayerCount: 2
Fore
SplineSet
58 103 m 2
 163 103 213 105 213 149 c 0
 213 165 206 195 188 274 c 2
 0 1098 l 2
 -28 1218 -32 1226 -49 1241 c 0
 -70 1262 -112 1269 -211 1269 c 2
 -240 1269 l 1
 -264 1372 l 1
 475 1372 l 1
 499 1269 l 1
 471 1269 l 2
 366 1269 314 1267 314 1223 c 0
 314 1208 321 1177 340 1098 c 2
 530 274 l 2
 558 152 559 146 576 131 c 0
 598 110 641 103 740 103 c 2
 768 103 l 1
 792 0 l 1
 53 0 l 1
 29 103 l 1
 58 103 l 2
EndSplineSet
EndChar

StartChar: J
Encoding: 74 74 201
Width: 1231
VWidth: 1900
Flags: W
HStem: -28 115<220.627 515.789> 255 372<106.823 234.968> 1269 103<182 385.373 736.038 897>
VStem: -82 426<293.298 519.046> 592 328<158.718 537.984>
LayerCount: 2
Fore
SplineSet
893 1269 m 2
 788 1269 736 1267 736 1223 c 0
 736 1208 743 1177 762 1098 c 2
 892 532 l 2
 911 451 920 383 920 325 c 0
 920 221 890 148 827 87 c 0
 748 9 629 -28 473 -28 c 0
 188 -28 -18 114 -72 346 c 0
 -79 375 -82 403 -82 429 c 0
 -82 548 -14 627 98 627 c 0
 212 627 313 545 339 433 c 0
 343 417 344 402 344 388 c 0
 344 309 291 255 205 255 c 0
 186 255 154 264 135 264 c 0
 114 264 103 249 107 228 c 0
 124 154 246 87 364 87 c 0
 496 87 592 156 592 290 c 0
 592 334 583 390 565 466 c 2
 420 1098 l 2
 391 1220 389 1226 372 1241 c 0
 351 1262 310 1269 211 1269 c 2
 182 1269 l 1
 158 1372 l 1
 897 1372 l 1
 921 1269 l 1
 893 1269 l 2
EndSplineSet
EndChar

StartChar: K
Encoding: 75 75 202
Width: 1548
VWidth: 1900
Flags: W
HStem: 0 103<28 187.963 537.698 744 863 982.971 1392.75 1530> 1269 103<-265 -60.6622 289.038 451 570 764.709 1053.5 1186>
LayerCount: 2
Fore
SplineSet
774 1195 m 0
 774 1248 706 1269 615 1269 c 2
 570 1269 l 1
 546 1372 l 1
 1186 1372 l 1
 1210 1269 l 1
 1085 1269 1003 1207 876 1045 c 1
 757 880 l 1
 1298 249 l 2
 1416 112 1426 103 1530 103 c 1
 1554 0 l 1
 863 0 l 1
 839 103 l 1
 863 103 l 2
 944 103 983 114 983 140 c 0
 983 162 968 179 946 207 c 1
 580 642 l 1
 458 475 l 1
 505 274 l 2
 532 154 534 146 551 131 c 0
 573 110 616 103 715 103 c 2
 744 103 l 1
 768 0 l 1
 28 0 l 1
 4 103 l 1
 33 103 l 2
 138 103 188 105 188 149 c 0
 188 165 181 195 163 274 c 2
 -27 1098 l 2
 -55 1218 -57 1226 -74 1241 c 0
 -95 1262 -137 1269 -236 1269 c 2
 -265 1269 l 1
 -289 1372 l 1
 451 1372 l 1
 475 1269 l 1
 446 1269 l 2
 341 1269 289 1267 289 1223 c 0
 289 1207 296 1177 315 1098 c 2
 417 654 l 1
 735 1098 l 1
 757 1132 774 1172 774 1195 c 0
EndSplineSet
EndChar

StartChar: L
Encoding: 76 76 203
Width: 1371
VWidth: 1900
Flags: W
HStem: 0 103<36 194.964 577.357 949.899> 1269 103<-257 -53.4098 297.037 471>
VStem: 1113 101<448.918 511>
LayerCount: 2
Fore
SplineSet
454 1269 m 2
 347 1269 297 1267 297 1223 c 0
 297 1207 304 1177 323 1098 c 2
 522 236 l 2
 536 173 546 152 576 129 c 1
 605 106 630 103 723 103 c 2
 763 103 l 2
 898 103 995 152 1051 245 c 1
 1088 308 1105 380 1113 511 c 1
 1214 511 l 1
 1332 0 l 1
 36 0 l 1
 12 103 l 1
 41 103 l 2
 140 103 178 110 190 131 c 0
 193 136 195 141 195 150 c 0
 195 166 188 197 170 276 c 2
 -19 1098 l 2
 -47 1218 -50 1226 -67 1241 c 0
 -88 1262 -129 1269 -228 1269 c 2
 -257 1269 l 1
 -281 1372 l 1
 471 1372 l 1
 495 1269 l 1
 454 1269 l 2
EndSplineSet
EndChar

StartChar: M
Encoding: 77 77 204
Width: 1863
VWidth: 1900
Flags: W
HStem: 0 103<17 133.479 372.271 535 1108 1260.96 1612.24 1810> 1269 103<-263 -64.6622 1363.04 1517>
LayerCount: 2
Fore
SplineSet
-7 103 m 1
 98 103 158 135 158 226 c 0
 158 265 148 321 127 412 c 2
 -31 1098 l 2
 -59 1218 -61 1226 -78 1241 c 0
 -99 1262 -141 1269 -242 1269 c 2
 -263 1269 l 1
 -287 1372 l 1
 325 1372 l 1
 809 555 l 1
 897 1372 l 1
 1517 1372 l 1
 1541 1269 l 1
 1520 1269 l 2
 1413 1269 1363 1267 1363 1223 c 0
 1363 1207 1371 1176 1389 1098 c 2
 1579 274 l 2
 1606 156 1608 146 1625 131 c 0
 1647 110 1688 103 1789 103 c 2
 1810 103 l 1
 1834 0 l 1
 1108 0 l 1
 1084 103 l 1
 1105 103 l 2
 1206 103 1244 110 1256 131 c 0
 1259 136 1261 141 1261 150 c 0
 1261 166 1255 197 1237 274 c 2
 1018 1222 l 1
 880 0 l 1
 781 0 l 1
 72 1203 l 1
 255 412 l 2
 294 243 314 196 363 154 c 0
 401 122 459 103 535 103 c 1
 559 0 l 1
 17 0 l 1
 -7 103 l 1
EndSplineSet
EndChar

StartChar: N
Encoding: 78 78 205
Width: 1582
VWidth: 1900
Flags: W
HStem: 0 104<30 144.304 384.971 548> 1269 103<-259 -109.273 748 906.764 1146.26 1266>
LayerCount: 2
Fore
SplineSet
1290 1269 m 1
 1183 1269 1121 1238 1121 1147 c 0
 1121 1108 1131 1052 1152 960 c 2
 1377 -13 l 1
 1249 -13 l 1
 124 1037 l 1
 268 412 l 2
 306 245 326 198 376 156 c 0
 413 124 466 104 548 104 c 1
 572 0 l 1
 30 0 l 1
 6 104 l 1
 88 104 127 124 150 156 c 0
 164 175 171 196 171 229 c 0
 171 267 162 322 141 412 c 2
 -32 1161 l 1
 -96 1229 -173 1269 -259 1269 c 1
 -283 1372 l 1
 196 1372 l 1
 1128 513 l 1
 1024 960 l 2
 986 1127 965 1176 916 1218 c 0
 878 1250 822 1269 748 1269 c 1
 724 1372 l 1
 1266 1372 l 1
 1290 1269 l 1
EndSplineSet
EndChar

StartChar: O
Encoding: 79 79 206
Width: 1582
VWidth: 1900
Flags: W
HStem: -28 98<616.315 918.598> 1302 98<344.391 652.03>
VStem: -100 354<673.269 1081.28> 1013 362<276.217 690.608>
LayerCount: 2
Fore
SplineSet
469 1400 m 0
 655 1400 816 1349 968 1239 c 1
 1157 1104 1304 887 1355 667 c 0
 1369 608 1375 551 1375 497 c 0
 1375 347 1324 216 1226 120 c 0
 1123 19 983 -28 789 -28 c 0
 377 -28 14 262 -80 665 c 0
 -93 725 -100 785 -100 842 c 0
 -100 998 -51 1139 43 1239 c 1
 142 1347 285 1400 469 1400 c 0
493 1302 m 0
 381 1302 315 1260 282 1167 c 0
 263 1117 254 1058 254 989 c 0
 254 907 267 812 292 701 c 0
 338 501 411 335 501 217 c 0
 577 118 668 70 778 70 c 0
 933 70 1013 177 1013 380 c 0
 1013 460 1001 556 975 665 c 0
 928 870 855 1041 765 1155 c 1
 688 1252 596 1302 493 1302 c 0
EndSplineSet
EndChar

StartChar: P
Encoding: 80 80 207
Width: 1442
VWidth: 1900
Flags: W
HStem: 0 103<46 204.964 569.045 774> 589 105<449 739.51> 1267 105<-247 -57.9999 310.447 655.819>
VStem: 816 364<756.721 1079.94>
LayerCount: 2
Fore
SplineSet
50 103 m 2
 156 103 205 104 205 148 c 0
 205 164 198 194 180 274 c 2
 -10 1096 l 2
 -38 1218 -40 1224 -57 1241 c 1
 -78 1260 -120 1267 -219 1267 c 2
 -247 1267 l 1
 -271 1372 l 1
 483 1372 l 2
 673 1372 790 1353 904 1305 c 0
 1039 1248 1135 1132 1167 990 c 0
 1176 955 1180 922 1180 891 c 0
 1180 690 1006 589 662 589 c 2
 449 589 l 1
 522 274 l 2
 550 152 551 146 568 129 c 1
 590 110 631 103 732 103 c 2
 774 103 l 1
 798 0 l 1
 46 0 l 1
 22 103 l 1
 50 103 l 2
425 694 m 1
 535 694 l 2
 731 694 816 745 816 878 c 0
 816 911 811 949 801 992 c 0
 757 1182 653 1267 473 1267 c 2
 397 1267 l 2
 334 1267 310 1256 310 1213 c 0
 310 1197 313 1178 319 1153 c 2
 425 694 l 1
EndSplineSet
EndChar

StartChar: Q
Encoding: 81 81 208
Width: 1582
VWidth: 1900
Flags: W
HStem: -357 177<1191 1443.89> -28 98<608.885 876.833> 443 108<531.538 752.477> 1302 98<341.918 649.108>
VStem: -107 355<691.113 1082.21> 1001 360<333.052 709.52> 1450 106<-176.653 -34>
LayerCount: 2
Fore
SplineSet
1543 -34 m 1
 1549 -63 1556 -97 1556 -126 c 0
 1556 -266 1456 -357 1290 -357 c 0
 1092 -357 954 -246 908 -48 c 2
 901 -19 l 1
 857 -27 829 -28 783 -28 c 0
 570 -28 381 47 208 203 c 0
 57 338 -45 506 -87 690 c 0
 -101 749 -107 805 -107 859 c 0
 -107 1176 118 1400 467 1400 c 0
 862 1400 1251 1085 1342 690 c 0
 1355 634 1361 578 1361 525 c 0
 1361 345 1290 186 1159 84 c 1
 1278 -129 1323 -180 1382 -180 c 0
 1425 -180 1450 -158 1450 -103 c 0
 1450 -84 1447 -61 1441 -34 c 1
 1543 -34 l 1
997 332 m 1
 1000 350 1001 371 1001 394 c 0
 1001 475 986 585 959 703 c 0
 921 865 861 1013 788 1123 c 0
 709 1241 606 1302 486 1302 c 0
 329 1302 248 1200 248 1001 c 0
 248 796 344 475 409 359 c 1
 418 418 427 447 450 475 c 1
 488 523 559 551 639 551 c 0
 736 551 837 509 915 439 c 0
 947 409 964 385 997 332 c 1
503 307 m 0
 503 160 622 70 765 70 c 0
 811 70 834 76 878 101 c 1
 868 143 867 171 862 190 c 0
 825 353 743 443 633 443 c 0
 551 443 503 389 503 307 c 0
EndSplineSet
EndChar

StartChar: R
Encoding: 82 82 209
Width: 1548
VWidth: 1900
Flags: W
HStem: -28 159<1152.5 1384.18> 0 104<38 196.964 562.001 774> 659 105<426 697.197> 1269 103<-255 -65.9999 302.194 648.149>
VStem: 793 356<814.373 1110.86> 1378 102<217.223 312> 1391 106<134.951 310.932>
LayerCount: 2
Fore
SplineSet
42 104 m 2x7a
 148 104 197 106 197 151 c 0
 197 167 190 197 172 276 c 2
 -17 1098 l 2
 -46 1220 -48 1226 -65 1243 c 1
 -86 1262 -128 1269 -227 1269 c 2
 -255 1269 l 1
 -279 1372 l 1
 532 1372 l 2
 707 1372 841 1349 923 1303 c 0
 1037 1238 1114 1142 1141 1028 c 0
 1146 1003 1149 978 1149 955 c 0
 1149 864 1105 788 1024 741 c 1
 981 718 936 705 840 686 c 1
 1017 631 1110 545 1178 374 c 1
 1207 302 l 1
 1228 247 1255 176 1270 160 c 1
 1285 143 1311 131 1332 131 c 0
 1371 131 1391 160 1391 216 c 0xba
 1391 242 1387 274 1378 312 c 1
 1480 312 l 1xbc
 1485 289 l 2
 1493 255 1497 223 1497 193 c 0
 1497 52 1405 -28 1235 -28 c 0
 1070 -28 945 50 879 198 c 0
 866 228 828 308 799 435 c 0
 774 543 752 566 714 602 c 1
 671 640 614 659 532 659 c 2
 426 659 l 1
 514 276 l 2
 542 154 544 148 561 131 c 1xba
 582 112 626 104 725 104 c 2
 774 104 l 1
 798 0 l 1
 38 0 l 1
 14 104 l 1
 42 104 l 2x7a
402 764 m 1
 506 764 l 2
 711 764 793 803 793 922 c 0
 793 949 788 981 780 1018 c 0
 740 1191 642 1269 465 1269 c 2
 419 1269 l 2
 331 1269 302 1262 302 1218 c 0
 302 1201 306 1178 313 1148 c 2
 402 764 l 1
EndSplineSet
EndChar

StartChar: S
Encoding: 83 83 210
Width: 1267
VWidth: 1900
Flags: W
HStem: -28 98<492.074 849.282> -13 21G<95.3818 213.429> 1302 98<116.317 465.283> 1365 20G<693.839 801.715>
VStem: -140 198<1021.24 1238.44> -24 97<461.916 524> 835 78<893 942.088> 913 205<145.193 378.108>
LayerCount: 2
Fore
SplineSet
797 1385 m 1x19
 913 893 l 1
 835 893 l 1x1a
 660 1163 471 1302 273 1302 c 0
 141 1302 58 1237 58 1142 c 0
 58 1129 59 1116 63 1102 c 0
 81 1024 136 969 229 939 c 0
 281 922 281 921 434 893 c 1
 531 872 l 1
 876 800 1049 665 1105 424 c 0
 1114 387 1118 351 1118 317 c 0
 1118 109 962 -28 707 -28 c 0xa9
 555 -28 425 12 289 99 c 1
 197 -13 l 1
 100 -13 l 1
 -24 524 l 1
 73 524 l 1x45
 243 239 470 70 685 70 c 0
 828 70 913 138 913 243 c 0
 913 338 858 412 788 445 c 0
 736 470 697 479 570 502 c 2
 447 524 l 2
 136 579 -75 745 -129 977 c 0
 -137 1012 -140 1044 -140 1076 c 0
 -140 1273 15 1400 268 1400 c 0xa9
 401 1400 511 1370 633 1298 c 1
 712 1385 l 1
 797 1385 l 1x19
EndSplineSet
EndChar

StartChar: T
Encoding: 84 84 211
Width: 1371
VWidth: 1900
Flags: W
HStem: 0 103<302 476.963 826.698 1045> 1273 99<27.7402 229.507 574.012 779.341>
VStem: -141 72<857 919.042> 1045 72<857 919.042>
LayerCount: 2
Fore
SplineSet
152 1273 m 0
 -1 1273 -71 1124 -71 941 c 0
 -71 916 -71 888 -69 857 c 1
 -141 857 l 1
 -260 1372 l 1
 998 1372 l 1
 1117 857 l 1
 1045 857 l 1
 982 1011 931 1091 862 1161 c 1
 783 1239 713 1273 631 1273 c 0
 590 1273 574 1266 574 1238 c 0
 574 1227 577 1213 581 1195 c 2
 794 274 l 2
 821 154 823 146 840 131 c 0
 862 110 903 103 1004 103 c 2
 1045 103 l 1
 1070 0 l 1
 302 0 l 1
 278 103 l 1
 320 103 l 2
 427 103 477 105 477 149 c 0
 477 165 470 195 452 274 c 2
 239 1195 l 2
 224 1260 209 1273 152 1273 c 0
EndSplineSet
EndChar

StartChar: U
Encoding: 85 85 212
Width: 1582
VWidth: 1900
Flags: W
HStem: -28 142<654.786 1035.18> 1269 103<-265 -60.6622 289.038 451 731 889.764 1129.26 1249>
VStem: 1134 133<206.42 583.969>
LayerCount: 2
Fore
SplineSet
446 1269 m 2
 341 1269 289 1267 289 1223 c 0
 289 1207 296 1177 315 1098 c 2
 455 490 l 2
 487 351 529 258 583 207 c 1
 650 146 740 114 848 114 c 0
 1006 114 1102 174 1129 294 c 0
 1133 308 1134 324 1134 343 c 0
 1134 394 1122 464 1096 578 c 2
 1007 960 l 2
 968 1129 948 1176 899 1218 c 0
 861 1250 805 1269 731 1269 c 1
 707 1372 l 1
 1249 1372 l 1
 1273 1269 l 1
 1166 1269 1104 1238 1104 1146 c 0
 1104 1107 1113 1051 1134 960 c 2
 1224 578 l 2
 1253 448 1267 365 1267 301 c 0
 1267 255 1260 218 1246 182 c 0
 1187 36 1055 -28 812 -28 c 0
 544 -28 343 48 232 190 c 0
 181 256 148 336 111 496 c 2
 -27 1098 l 2
 -55 1218 -57 1226 -74 1241 c 0
 -95 1262 -137 1269 -236 1269 c 2
 -265 1269 l 1
 -289 1372 l 1
 451 1372 l 1
 475 1269 l 1
 446 1269 l 2
EndSplineSet
EndChar

StartChar: V
Encoding: 86 86 213
Width: 1442
VWidth: 1900
Flags: W
HStem: -28 21G<607.461 790.636> 1269 103<-327 -177.369 213.023 337 625 785.469 1068.43 1161>
LayerCount: 2
Fore
SplineSet
725 391 m 1
 838 1068 l 2
 841 1083 842 1096 842 1109 c 0
 842 1176 802 1224 748 1248 c 1
 717 1263 686 1269 625 1269 c 1
 601 1372 l 1
 1161 1372 l 1
 1185 1269 l 1
 1069 1269 1005 1180 979 1028 c 1
 787 -28 l 1
 620 -28 l 1
 -111 1138 l 2
 -180 1248 -215 1269 -327 1269 c 1
 -351 1372 l 1
 337 1372 l 1
 361 1269 l 1
 321 1269 l 2
 245 1269 213 1258 213 1232 c 0
 213 1210 225 1194 245 1159 c 2
 725 391 l 1
EndSplineSet
EndChar

StartChar: W
Encoding: 87 87 214
Width: 1863
VWidth: 1900
Flags: W
HStem: -28 21G<537.863 693.889 1169.26 1320.74> 1269 103<-282 -155.778 204.018 283 393 500.312 853.018 931 1077 1230.23 1462.21 1532>
LayerCount: 2
Fore
SplineSet
1238 490 m 1
 1278 1032 l 2
 1280 1062 1281 1083 1281 1099 c 0
 1281 1219 1205 1269 1077 1269 c 1
 1053 1372 l 1
 1532 1372 l 1
 1556 1269 l 1
 1447 1246 1421 1203 1410 1015 c 1
 1319 -28 l 1
 1180 -28 l 1
 765 745 l 1
 692 -28 l 1
 549 -28 l 1
 -112 1159 l 2
 -163 1250 -192 1269 -278 1269 c 2
 -282 1269 l 1
 -306 1372 l 1
 283 1372 l 1
 307 1269 l 1
 229 1269 204 1259 204 1234 c 0
 204 1209 215 1194 237 1157 c 2
 614 477 l 1
 656 954 l 1
 538 1168 l 1
 491 1250 467 1269 393 1269 c 1
 369 1372 l 1
 931 1372 l 1
 955 1269 l 1
 878 1269 853 1258 853 1231 c 0
 853 1207 859 1201 879 1167 c 1
 1238 490 l 1
EndSplineSet
EndChar

StartChar: X
Encoding: 88 88 215
Width: 1371
VWidth: 1900
Flags: W
HStem: 0 103<-23 91.9117 387.697 582 712 804.977 1235.91 1372> 1269 103<-316 -184.651 243.018 340 469 641.343 919.033 1030>
LayerCount: 2
Fore
SplineSet
638 785 m 1
 1087 294 l 2
 1245 123 1271 103 1372 103 c 1
 1396 0 l 1
 712 0 l 1
 688 103 l 1
 774 103 805 114 805 139 c 0
 805 164 784 193 764 213 c 1
 488 509 l 1
 371 296 l 2
 358 275 352 251 352 228 c 0
 352 219 353 210 355 201 c 0
 370 135 438 103 582 103 c 1
 606 0 l 1
 -23 0 l 1
 -47 103 l 1
 63 103 109 139 188 274 c 2
 387 618 l 1
 -130 1172 l 2
 -200 1248 -232 1269 -316 1269 c 1
 -340 1372 l 1
 340 1372 l 1
 364 1269 l 1
 268 1269 243 1262 243 1238 c 0
 243 1212 255 1196 276 1174 c 2
 542 887 l 1
 637 1051 l 1
 664 1093 676 1126 676 1153 c 0
 676 1159 675 1166 673 1172 c 0
 659 1235 589 1269 469 1269 c 1
 445 1372 l 1
 1030 1372 l 1
 1054 1269 l 1
 955 1269 899 1224 837 1123 c 1
 638 785 l 1
EndSplineSet
EndChar

StartChar: Y
Encoding: 89 89 216
Width: 1371
VWidth: 1900
Flags: W
HStem: 0 103<302 476.963 826.698 1046> 1269 103<-316 -174.041 240.023 344 543 715.539 973.625 1079>
LayerCount: 2
Fore
SplineSet
320 103 m 2
 427 103 477 105 477 149 c 0
 477 165 470 196 452 274 c 2
 381 580 l 1
 -150 1201 l 1
 -199 1256 -230 1269 -316 1269 c 1
 -340 1372 l 1
 344 1372 l 1
 368 1269 l 1
 338 1269 l 2
 272 1269 240 1257 240 1234 c 0
 240 1211 251 1199 277 1168 c 2
 624 752 l 1
 736 1091 l 1
 742 1112 745 1134 745 1154 c 0
 745 1230 674 1269 583 1269 c 2
 543 1269 l 1
 519 1372 l 1
 1079 1372 l 1
 1103 1269 l 1
 997 1269 935 1210 890 1092 c 1
 718 604 l 1
 794 274 l 2
 821 154 823 146 840 131 c 0
 862 110 903 103 1004 103 c 2
 1046 103 l 1
 1070 0 l 1
 302 0 l 1
 278 103 l 1
 320 103 l 2
EndSplineSet
EndChar

StartChar: Z
Encoding: 90 90 217
Width: 1267
VWidth: 1900
Flags: W
HStem: 0 104<419 835.337> 1267 105<127.779 515>
VStem: -90 74<893 954.864> 983 101<491.516 524>
LayerCount: 2
Fore
SplineSet
888 1372 m 1
 912 1267 l 1
 419 104 l 1
 588 104 l 2
 723 104 774 112 826 142 c 0
 927 199 983 325 983 491 c 0
 983 502 984 513 983 524 c 1
 1084 524 l 1
 1205 0 l 1
 46 0 l 1
 21 110 l 1
 515 1267 l 1
 374 1267 l 2
 173 1267 93 1231 36 1113 c 1
 7 1056 -8 996 -16 893 c 1
 -90 893 l 1
 -201 1372 l 1
 888 1372 l 1
EndSplineSet
EndChar

StartChar: a
Encoding: 97 97 218
Width: 1160
VWidth: 1900
Flags: W
HStem: -28 161<882.5 1061.75> -28 129<275 580.902> 828 99<212.878 466.279>
VStem: -42 250<712.752 813.404> 16 310<154.911 366.237> 614 493<69.5 267>
LayerCount: 2
Fore
SplineSet
149 540 m 0x74
 52 540 -42 614 -42 723 c 0
 -42 848 102 927 339 927 c 0
 487 927 614 897 697 840 c 0
 775 787 812 728 841 604 c 2
 918 270 l 2
 943 160 959 133 1001 133 c 0
 1022 133 1048 160 1069 160 c 0
 1094 160 1107 135 1107 106 c 0
 1107 33 1029 -28 931 -28 c 0xb4
 834 -28 751 20 700 106 c 1
 621 7 530 -28 367 -28 c 0
 183 -28 56 53 23 194 c 0
 19 214 16 233 16 251 c 0x6c
 16 334 67 394 170 441 c 0
 251 477 313 494 495 536 c 1
 512 538 536 543 555 549 c 1
 532 648 l 2
 502 779 449 828 335 828 c 0
 263 828 208 803 208 774 c 0
 208 758 210 757 233 735 c 1
 261 707 279 680 279 639 c 0
 279 581 226 540 149 540 c 0x74
326 281 m 0x6c
 326 174 398 101 484 101 c 0
 567 101 614 158 614 254 c 0
 614 280 611 309 604 340 c 2
 579 446 l 1
 483 424 l 1
 375 397 326 353 326 281 c 0x6c
EndSplineSet
EndChar

StartChar: b
Encoding: 98 98 219
Width: 1231
VWidth: 1900
Flags: W
HStem: -28 98<510.027 719.748> 785 142<373.446 585.761> 1275 97<-294 -135.233> 1380 20G<-188.429 137.618>
VStem: 758 313<149.977 508.579>
LayerCount: 2
Fore
SplineSet
133 1400 m 1
 275 785 l 1
 330 884 409 927 536 927 c 0
 777 927 993 736 1055 466 c 0
 1066 419 1071 375 1071 334 c 0
 1071 114 926 -28 682 -28 c 0
 540 -28 433 17 319 125 c 1
 230 -28 l 1
 137 -28 l 1
 132 76 110 207 68 391 c 2
 -95 1098 l 2
 -135 1267 -142 1275 -258 1275 c 2
 -294 1275 l 1
 -317 1372 l 1
 133 1400 l 1
475 785 m 0
 382 785 335 722 335 598 c 0
 335 544 343 479 361 403 c 0
 411 188 505 70 630 70 c 0
 715 70 758 131 758 248 c 0
 758 302 749 367 732 443 c 0
 679 671 595 785 475 785 c 0
EndSplineSet
EndChar

StartChar: c
Encoding: 99 99 220
Width: 1056
VWidth: 1900
Flags: W
HStem: -28 129<466.388 740.832> 828 99<312.142 530.739>
VStem: -55 315<384.791 728.472> 824 107<193.559 308.287>
LayerCount: 2
Fore
SplineSet
608 101 m 0
 751 101 803 197 824 336 c 1
 931 304 l 1
 923 215 906 158 864 101 c 1
 801 10 717 -28 576 -28 c 0
 270 -28 23 158 -41 435 c 0
 -51 475 -55 513 -55 549 c 0
 -55 775 117 927 388 927 c 0
 618 927 788 825 824 669 c 0
 827 654 831 640 831 627 c 0
 831 554 780 507 692 507 c 0
 601 507 524 564 505 646 c 0
 502 657 501 667 501 675 c 0
 501 695 508 711 523 739 c 0
 536 760 536 769 535 775 c 0
 528 805 478 828 423 828 c 0
 317 828 260 754 260 622 c 0
 260 577 267 526 280 469 c 0
 334 233 454 101 608 101 c 0
EndSplineSet
EndChar

StartChar: d
Encoding: 100 100 221
Width: 1267
VWidth: 1900
Flags: W
HStem: -28 129<447.888 656.223> 0 124<1070.84 1214> 798 129<188 479.533> 1275 97<304 487.767> 1380 20G<416.714 760.606>
VStem: -46 321<360.988 757.689>
LayerCount: 2
Fore
SplineSet
756 1400 m 1xbc
 1025 232 l 2
 1039 175 1050 152 1070 137 c 0
 1088 124 1094 124 1162 124 c 2
 1214 124 l 1
 1248 0 l 1
 803 0 l 1x7c
 766 137 l 1
 715 23 629 -28 492 -28 c 0
 245 -28 33 159 -30 435 c 0
 -41 480 -46 523 -46 564 c 0
 -46 776 86 927 290 927 c 0
 410 927 505 885 597 798 c 1
 528 1098 l 2
 488 1267 481 1275 365 1275 c 2
 304 1275 l 1
 281 1372 l 1
 756 1400 l 1xbc
407 798 m 0
 320 798 275 731 275 611 c 0
 275 562 283 504 298 439 c 0
 348 222 444 101 564 101 c 0xbc
 651 101 700 179 700 303 c 0
 700 347 694 396 681 450 c 0
 632 661 525 798 407 798 c 0
EndSplineSet
EndChar

StartChar: e
Encoding: 101 101 222
Width: 1090
VWidth: 1900
Flags: W
HStem: -28 129<472.656 766.862> 433 105<290 593.99> 828 99<290.727 495.167>
VStem: -53 305<539.56 738.141> 861 102<211.117 279.341>
LayerCount: 2
Fore
SplineSet
-53 549 m 0
 -53 792 118 927 358 927 c 0
 635 927 854 747 919 464 c 2
 926 433 l 1
 290 433 l 1
 315 325 344 266 387 215 c 1
 452 143 538 101 625 101 c 0
 749 101 819 164 861 312 c 1
 963 274 l 1
 926 71 802 -28 580 -28 c 0
 436 -28 299 13 195 87 c 0
 81 169 -10 306 -41 441 c 0
 -49 477 -53 514 -53 549 c 0
267 538 m 1
 552 538 l 2
 581 538 594 546 594 570 c 0
 594 578 592 587 590 598 c 0
 555 748 484 828 387 828 c 0
 300 828 252 765 252 655 c 0
 252 621 257 581 267 538 c 1
EndSplineSet
EndChar

StartChar: f
Encoding: 102 102 223
Width: 739
VWidth: 1900
Flags: W
HStem: 0 95<40 154.792 463.484 645> 785 114<-154 -16 309 520> 1294 99<246.397 346.975>
VStem: -38 266<939.416 1250.7> 316 297<1086.81 1261.15>
LayerCount: 2
Fore
SplineSet
316 1294 m 0
 265 1294 228 1244 228 1180 c 0
 228 1145 237 1098 258 1007 c 2
 282 899 l 1
 520 899 l 1
 547 785 l 1
 309 785 l 1
 448 184 l 2
 465 108 489 95 611 95 c 2
 645 95 l 1
 667 0 l 1
 40 0 l 1
 18 95 l 1
 26 95 l 2
 124 95 155 103 155 144 c 0
 155 155 153 168 150 184 c 2
 11 785 l 1
 -154 785 l 1
 -181 899 l 1
 -16 899 l 1
 -21 923 l 2
 -33 973 -38 1021 -38 1065 c 0
 -38 1266 80 1393 284 1393 c 0
 442 1393 581 1304 608 1186 c 0
 611 1172 613 1159 613 1147 c 0
 613 1078 566 1030 492 1030 c 0
 409 1030 316 1095 316 1187 c 0
 316 1215 326 1244 344 1262 c 1
 359 1282 342 1294 316 1294 c 0
EndSplineSet
EndChar

StartChar: g
Encoding: 103 103 224
Width: 1160
VWidth: 1900
Flags: W
HStem: -384 99<399.026 833.574> -82 266<346.779 818.321> 302 91<347.066 539.818> 828 99<267.563 463.338> 880 142<698.311 851.5>
VStem: -49 299<520.112 794.863> 47 272<148 278.208> 99 243<-232.667 -85.2704> 561 305<410.827 702.325> 866 229<-250.888 -106.865>
LayerCount: 2
Fore
SplineSet
807 1022 m 0xec
 896 1022 980 964 980 870 c 0
 980 816 943 777 887 777 c 0
 830 777 773 822 762 870 c 0
 760 878 757 880 751 880 c 0xec
 728 880 710 862 693 828 c 1
 793 760 836 701 857 612 c 0
 862 589 866 566 866 544 c 0
 866 459 823 389 745 348 c 0
 681 314 610 302 485 302 c 2
 451 302 l 2
 355 302 319 290 319 255 c 0xf280
 319 250 319 245 321 239 c 0
 331 193 357 184 458 184 c 2
 589 184 l 2
 726 184 810 177 878 156 c 1
 979 128 1063 38 1088 -68 c 0
 1093 -90 1095 -111 1095 -131 c 0
 1095 -294 924 -384 610 -384 c 0
 300 -384 132 -323 103 -198 c 0
 100 -186 99 -175 99 -165 c 0xf140
 99 -94 158 -45 264 -28 c 1
 148 2 71 64 52 148 c 0
 49 162 47 175 47 188 c 0xf2
 47 263 107 311 229 334 c 1
 81 382 -13 475 -42 602 c 0
 -47 623 -49 643 -49 663 c 0
 -49 819 100 927 331 927 c 0xf4
 428 927 518 908 599 872 c 1
 659 976 721 1022 807 1022 c 0xec
360 828 m 0xf480
 287 828 250 788 250 710 c 0
 250 616 287 518 328 462 c 1
 360 414 401 393 458 393 c 0
 525 393 561 439 561 519 c 0
 561 545 557 575 550 608 c 0
 516 752 451 828 360 828 c 0xf480
642 -82 m 2
 393 -82 l 1
 358 -99 342 -122 342 -152 c 0
 342 -159 343 -167 344 -175 c 0
 361 -245 454 -285 600 -285 c 0
 779 -285 866 -253 866 -188 c 0xe140
 866 -153 844 -119 820 -106 c 0
 784 -85 760 -82 642 -82 c 2
EndSplineSet
EndChar

StartChar: h
Encoding: 104 104 225
Width: 1301
VWidth: 1900
Flags: W
HStem: 0 97<36 150.908 457.536 594 686 779.917 1086.83 1243> 750 177<418.38 615.372> 1275 97<-264 -104.448> 1380 20G<-158.429 167.615>
LayerCount: 2
Fore
SplineSet
509 750 m 0
 419 750 362 684 362 584 c 0
 362 551 368 512 380 458 c 2
 443 186 l 2
 461 108 484 97 594 97 c 1
 616 0 l 1
 36 0 l 1
 14 97 l 1
 22 97 l 2
 120 97 151 104 151 145 c 0
 151 155 149 168 146 184 c 2
 -64 1091 l 2
 -105 1271 -110 1275 -228 1275 c 2
 -264 1275 l 1
 -287 1372 l 1
 163 1400 l 1
 313 750 l 1
 365 872 451 927 595 927 c 0
 694 927 785 895 850 836 c 1
 914 781 951 709 979 591 c 2
 1072 186 l 2
 1090 108 1114 97 1236 97 c 2
 1243 97 l 1
 1265 0 l 1
 686 0 l 1
 664 97 l 1
 752 97 780 105 780 144 c 0
 780 155 778 168 775 184 c 2
 687 564 l 2
 659 686 596 750 509 750 c 0
EndSplineSet
EndChar

StartChar: i
Encoding: 105 105 226
Width: 703
VWidth: 1900
Flags: W
HStem: 0 97<53 163.792 472.062 626> 788 97<-129 20.5411> 1064 336<-24.0091 145.046>
VStem: -112 345<1151.07 1314.22>
LayerCount: 2
Fore
SplineSet
292 899 m 1
 458 184 l 2
 475 110 498 97 614 97 c 2
 626 97 l 1
 648 0 l 1
 53 0 l 1
 31 97 l 1
 39 97 l 2
 133 97 164 105 164 146 c 0
 164 157 162 170 158 186 c 2
 60 610 l 2
 21 779 14 788 -102 788 c 2
 -129 788 l 1
 -151 885 l 1
 292 899 l 1
96 1064 m 0
 1 1064 -112 1155 -112 1270 c 0
 -112 1343 -57 1400 23 1400 c 0
 121 1400 233 1310 233 1194 c 0
 233 1119 178 1064 96 1064 c 0
EndSplineSet
EndChar

StartChar: j
Encoding: 106 106 227
Width: 668
VWidth: 1900
Flags: W
HStem: -384 90<126.49 242.301> 788 97<-154 30.5254> 1064 336<-20.3929 149.046>
VStem: -115 276<-270.094 -101.347> -109 346<1151.07 1314.22> 249 254<-252.584 23.2348>
LayerCount: 2
Fore
SplineSet
100 1064 m 0xec
 5 1064 -109 1155 -109 1269 c 0
 -109 1343 -54 1400 27 1400 c 0
 125 1400 237 1310 237 1194 c 0
 237 1119 182 1064 100 1064 c 0xec
4 -51 m 0
 80 -51 161 -116 161 -208 c 0xf4
 161 -234 150 -254 124 -274 c 1
 139 -289 153 -294 178 -294 c 0
 225 -294 249 -265 249 -204 c 0
 249 -178 245 -145 235 -106 c 2
 67 625 l 2
 32 777 19 788 -93 788 c 2
 -154 788 l 1
 -176 885 l 1
 301 899 l 1
 461 207 l 2
 489 85 503 -2 503 -73 c 0
 503 -269 388 -384 199 -384 c 0
 43 -384 -84 -304 -109 -194 c 0xec
 -112 -182 -115 -170 -115 -160 c 0xf4
 -115 -95 -70 -51 4 -51 c 0
EndSplineSet
EndChar

StartChar: k
Encoding: 107 107 228
Width: 1267
VWidth: 1900
Flags: W
HStem: 0 97<28 142.908 451.562 586 673 735.984 1120.32 1232> 802 97<440 586.534 821.221 976> 1275 97<-271 -112.894> 1380 20G<-165.429 160.609>
LayerCount: 2
Fore
SplineSet
591 736 m 0
 591 783 539 802 463 802 c 2
 440 802 l 1
 417 899 l 1
 976 899 l 1
 999 802 l 1
 955 802 l 2
 883 802 833 778 771 712 c 1
 652 591 l 1
 1037 218 l 1
 1146 110 1166 97 1232 97 c 1
 1254 0 l 1
 673 0 l 1
 651 97 l 1
 670 97 l 2
 714 97 736 107 736 128 c 0
 736 150 717 174 696 194 c 2
 472 405 l 1
 404 327 l 1
 436 186 l 2
 454 110 476 97 586 97 c 1
 608 0 l 1
 28 0 l 1
 6 97 l 1
 14 97 l 2
 112 97 143 104 143 145 c 0
 143 155 141 168 138 184 c 2
 -73 1098 l 2
 -113 1267 -119 1275 -235 1275 c 2
 -271 1275 l 1
 -294 1372 l 1
 156 1400 l 1
 371 467 l 1
 559 673 l 2
 581 697 591 717 591 736 c 0
EndSplineSet
EndChar

StartChar: l
Encoding: 108 108 229
Width: 668
VWidth: 1900
Flags: W
HStem: 0 97<36 150.908 459.012 607> 1275 97<-264 -105.233> 1380 20G<-158.429 167.622>
LayerCount: 2
Fore
SplineSet
163 1400 m 1
 444 184 l 2
 463 101 496 97 594 97 c 2
 607 97 l 1
 629 0 l 1
 36 0 l 1
 14 97 l 1
 22 97 l 2
 120 97 151 104 151 145 c 0
 151 155 149 168 146 184 c 2
 -65 1098 l 2
 -105 1267 -112 1275 -228 1275 c 2
 -264 1275 l 1
 -287 1372 l 1
 163 1400 l 1
EndSplineSet
EndChar

StartChar: m
Encoding: 109 109 230
Width: 1829
VWidth: 1900
Flags: W
HStem: 0 97<38 152.908 458.844 576 657 729.982 1034.84 1152 1231 1304.98 1616.44 1768> 750 177<398.908 579.359 968.861 1152.63> 788 97<-144 9.2025>
LayerCount: 2
Fore
SplineSet
263 899 m 1xa0
 298 750 l 1
 346 870 434 927 561 927 c 0
 688 927 804 862 868 756 c 1
 929 878 1005 927 1127 927 c 0
 1296 927 1458 808 1494 652 c 2
 1603 184 l 2
 1620 110 1638 97 1760 97 c 2
 1768 97 l 1
 1790 0 l 1
 1231 0 l 1
 1209 97 l 1
 1282 97 1305 104 1305 140 c 0
 1305 151 1303 166 1299 184 c 2
 1207 581 l 2
 1180 699 1136 750 1064 750 c 0
 980 750 933 695 933 605 c 0
 933 581 936 556 942 528 c 2
 1022 184 l 2
 1039 110 1055 97 1152 97 c 1
 1174 0 l 1
 657 0 l 1
 635 97 l 1
 706 97 730 104 730 140 c 0
 730 152 727 167 723 186 c 2
 633 574 l 2
 605 699 562 750 488 750 c 0xc0
 405 750 357 694 357 603 c 0
 357 580 360 555 366 528 c 2
 446 184 l 2
 463 110 479 97 576 97 c 1
 598 0 l 1
 38 0 l 1
 16 97 l 1
 26 97 l 2
 122 97 153 104 153 145 c 0
 153 156 151 170 147 186 c 2
 49 610 l 2
 10 779 2 788 -114 788 c 2
 -144 788 l 1
 -166 885 l 1
 263 899 l 1xa0
EndSplineSet
EndChar

StartChar: n
Encoding: 110 110 231
Width: 1301
VWidth: 1900
Flags: W
HStem: 0 97<38 150.908 458.01 596 690 783.917 1090.83 1247> 750 177<417.22 620.021> 788 97<-144 7.65508>
LayerCount: 2
Fore
SplineSet
509 750 m 0xc0
 420 750 362 681 362 581 c 0
 362 548 368 510 380 458 c 2
 444 184 l 2
 461 110 484 97 596 97 c 1
 618 0 l 1
 38 0 l 1
 16 97 l 1
 24 97 l 2
 120 97 151 104 151 145 c 0
 151 156 149 170 145 186 c 2
 49 604 l 2
 8 781 0 788 -116 788 c 2
 -144 788 l 1
 -166 885 l 1xa0
 265 899 l 1
 304 732 l 1
 364 873 447 927 597 927 c 0
 696 927 789 895 854 836 c 1
 918 781 955 709 983 591 c 2
 1076 186 l 2
 1094 108 1118 97 1240 97 c 2
 1247 97 l 1
 1269 0 l 1
 690 0 l 1
 668 97 l 1
 756 97 784 105 784 144 c 0
 784 155 782 168 779 184 c 2
 691 564 l 2
 663 686 598 750 509 750 c 0xc0
EndSplineSet
EndChar

StartChar: o
Encoding: 111 111 232
Width: 1160
VWidth: 1900
Flags: W
HStem: -28 98<445.713 655.392> 828 99<296.614 505.104>
VStem: -57 315<382.721 732.032> 693 317<162.643 518.02>
LayerCount: 2
Fore
SplineSet
371 927 m 0
 660 927 935 715 997 445 c 0
 1006 408 1010 372 1010 338 c 0
 1010 122 844 -28 584 -28 c 0
 284 -28 19 172 -44 448 c 0
 -53 485 -57 521 -57 556 c 0
 -57 774 110 927 371 927 c 0
390 828 m 0
 302 828 258 766 258 646 c 0
 258 592 267 526 285 448 c 0
 343 197 437 70 564 70 c 0
 649 70 693 136 693 257 c 0
 693 414 626 619 568 716 c 0
 527 782 456 828 390 828 c 0
EndSplineSet
EndChar

StartChar: p
Encoding: 112 112 233
Width: 1267
VWidth: 1900
Flags: W
HStem: -384 95<123 235.792 544.938 715> -28 129<572.613 865> 785 142<404.431 622.003> 788 97<-148 4.11636>
VStem: 790 318<148.526 525.28>
LayerCount: 2
Fore
SplineSet
275 899 m 1xd8
 304 777 l 1
 365 885 436 927 565 927 c 0xe8
 808 927 1031 735 1092 473 c 0
 1103 427 1108 382 1108 340 c 0
 1108 123 972 -28 758 -28 c 0
 650 -28 556 11 461 95 c 1
 529 -200 l 2
 547 -276 570 -289 694 -289 c 2
 715 -289 l 1
 737 -384 l 1
 123 -384 l 1
 101 -289 l 1
 109 -289 l 2
 205 -289 236 -281 236 -240 c 0
 236 -229 234 -216 230 -200 c 2
 45 604 l 2
 3 784 -1 788 -119 788 c 2
 -148 788 l 1
 -170 885 l 1
 275 899 l 1xd8
514 785 m 0
 412 785 360 717 360 593 c 0
 360 547 367 495 381 435 c 0
 430 220 530 101 657 101 c 0
 744 101 790 168 790 286 c 0
 790 331 784 383 770 441 c 0
 718 665 628 785 514 785 c 0
EndSplineSet
EndChar

StartChar: q
Encoding: 113 113 234
Width: 1231
VWidth: 1900
Flags: W
HStem: -384 95<691 819.786 1127.91 1283> -28 129<439.722 646.339> 828 99<300.172 507.895>
VStem: -51 314<384.278 743.274>
LayerCount: 2
Fore
SplineSet
787 925 m 1
 880 925 l 1
 896 775 920 633 947 517 c 2
 1112 -200 l 2
 1130 -276 1153 -289 1275 -289 c 2
 1283 -289 l 1
 1305 -384 l 1
 691 -384 l 1
 669 -289 l 1
 690 -289 l 2
 788 -289 820 -281 820 -239 c 0
 820 -229 818 -216 814 -200 c 2
 743 110 l 1
 683 15 601 -28 481 -28 c 0
 371 -28 241 23 157 101 c 1
 69 179 -8 316 -37 441 c 0
 -46 483 -51 523 -51 561 c 0
 -51 777 99 927 335 927 c 0
 479 927 591 879 702 773 c 1
 787 925 l 1
394 828 m 0
 307 828 263 766 263 645 c 0
 263 591 272 525 290 448 c 0
 342 220 433 101 555 101 c 0
 641 101 686 173 686 298 c 0
 686 437 628 628 578 707 c 0
 531 781 459 828 394 828 c 0
EndSplineSet
EndChar

StartChar: r
Encoding: 114 114 235
Width: 986
VWidth: 1900
Flags: W
HStem: 0 97<34 146.908 455.829 647> 572 355<567.606 704.494> 788 97<-148 3.99362>
VStem: 147 240<145 525> 507 310<634.845 798.113>
LayerCount: 2
Fore
SplineSet
524 802 m 1xd8
 423 770 387 667 387 525 c 0
 387 457 396 382 412 312 c 2
 441 186 l 2
 459 108 483 97 605 97 c 2
 647 97 l 1
 669 0 l 1
 34 0 l 1
 12 97 l 1
 20 97 l 2
 116 97 147 104 147 145 c 0
 147 156 145 170 141 186 c 2
 45 604 l 2
 4 781 -3 788 -119 788 c 2
 -148 788 l 1
 -170 885 l 1xb8
 250 899 l 1
 304 669 l 1
 331 844 413 927 559 927 c 0
 681 927 787 845 812 735 c 0
 815 721 817 708 817 695 c 0
 817 623 766 572 687 572 c 0
 600 572 507 642 507 744 c 0
 507 763 513 780 524 802 c 1xd8
EndSplineSet
EndChar

StartChar: s
Encoding: 115 115 236
Width: 950
VWidth: 1900
Flags: W
HStem: -28 98<311.79 612.514> 828 99<139.316 416.558> 888 20G<513.429 628.667>
VStem: -71 192<659.909 805.261> -5 86<283.946 332> 612 82<608 649.472> 628 198<90.7745 245.054>
LayerCount: 2
Fore
SplineSet
624 908 m 1xb2
 694 608 l 1
 612 608 l 1
 483 764 379 828 257 828 c 0
 174 828 121 792 121 739 c 0xd4
 121 732 122 725 123 718 c 0
 135 669 164 650 263 625 c 1
 443 583 l 2
 588 549 632 532 691 488 c 0
 769 430 826 343 826 222 c 0
 826 71 705 -28 510 -28 c 0
 411 -28 307 -4 227 38 c 1
 161 4 l 1
 71 4 l 1
 -5 332 l 1
 81 332 l 1xca
 214 152 342 70 488 70 c 0
 577 70 628 104 628 159 c 0
 628 166 627 174 625 182 c 0
 612 239 566 272 466 293 c 2
 320 323 l 2
 190 350 130 376 60 431 c 0
 -2 480 -46 547 -63 619 c 0
 -68 642 -71 664 -71 686 c 0
 -71 829 47 927 232 927 c 0xd2
 323 927 400 908 482 866 c 1
 542 908 l 1
 624 908 l 1xb2
EndSplineSet
EndChar

StartChar: t
Encoding: 116 116 237
Width: 809
VWidth: 1900
Flags: W
HStem: -28 161<447.875 587.606> 785 114<296 516> 785 99<-137 -34.9229>
VStem: 63 120<1212.32 1275> 600 109<142.158 351.034>
LayerCount: 2
Fore
SplineSet
709 219 m 0xd8
 709 56 623 -28 454 -28 c 0
 346 -28 256 10 200 76 c 0
 156 129 139 175 103 331 c 2
 0 785 l 1
 -137 785 l 1
 -160 884 l 1xb8
 -8 902 68 1001 68 1186 c 0
 68 1213 66 1243 63 1275 c 1
 183 1275 l 1
 269 899 l 1
 516 899 l 1xd8
 543 785 l 1xb8
 296 785 l 1
 409 296 l 2
 438 167 461 133 516 133 c 0
 572 133 600 173 600 246 c 0
 600 276 595 312 586 353 c 1
 687 353 l 1
 701 310 709 269 709 219 c 0xd8
EndSplineSet
EndChar

StartChar: u
Encoding: 117 117 238
Width: 1301
VWidth: 1900
Flags: W
HStem: -28 176<467.266 667.408> 0 103<1083.39 1242> 788 111<-157 -3.2222 477 630.994>
LayerCount: 2
Fore
SplineSet
576 148 m 0xa0
 669 148 728 214 728 314 c 0
 728 349 720 392 707 452 c 2
 672 604 l 2
 631 781 624 788 508 788 c 2
 477 788 l 1
 455 885 l 1
 902 899 l 1
 1063 205 l 2
 1078 137 1100 103 1189 103 c 2
 1242 103 l 1
 1266 0 l 1
 824 0 l 1x60
 789 156 l 1
 710 21 629 -28 494 -28 c 0
 365 -28 251 31 176 135 c 0
 137 188 126 222 93 363 c 2
 38 604 l 2
 -4 784 -9 788 -127 788 c 2
 -157 788 l 1
 -183 899 l 1
 267 899 l 1
 394 352 l 2
 427 208 481 148 576 148 c 0xa0
EndSplineSet
EndChar

StartChar: v
Encoding: 118 118 239
Width: 1160
VWidth: 1900
Flags: W
HStem: -27 21G<493.808 673.223> 804 95<-163 -53.7135 283.02 351 519 670.43 851.575 928>
LayerCount: 2
Fore
SplineSet
686 701 m 0
 686 781 634 804 519 804 c 1
 497 899 l 1
 928 899 l 1
 950 804 l 1
 943 804 l 2
 867 804 835 763 809 636 c 1
 669 -27 l 1
 508 -27 l 1
 -10 703 l 2
 -70 787 -93 804 -163 804 c 1
 -185 899 l 1
 351 899 l 1
 373 804 l 1
 310 804 283 795 283 770 c 0
 283 750 294 733 311 711 c 1
 617 266 l 1
 675 616 l 2
 682 661 686 684 686 701 c 0
EndSplineSet
EndChar

StartChar: w
Encoding: 119 119 240
Width: 1689
VWidth: 1900
Flags: W
HStem: -27 21G<473.814 635.08 1038.28 1198.32> 802 97<-149 -36.8669 290.016 352 434 545.706 858.021 942 1050 1189.68 1380.62 1456>
LayerCount: 2
Fore
SplineSet
1218 680 m 0
 1218 761 1157 802 1063 802 c 2
 1050 802 l 1
 1027 899 l 1
 1456 899 l 1
 1479 802 l 1
 1393 802 1365 762 1338 640 c 2
 1194 -27 l 1
 1051 -27 l 1
 733 473 l 1
 631 -27 l 1
 487 -27 l 1
 11 695 l 2
 -42 775 -75 802 -149 802 c 1
 -172 899 l 1
 352 899 l 1
 375 802 l 1
 311 802 290 795 290 771 c 0
 290 743 292 753 317 712 c 2
 578 293 l 1
 641 616 l 1
 566 730 l 2
 528 789 504 802 434 802 c 1
 411 899 l 1
 942 899 l 1
 965 802 l 1
 951 802 l 2
 886 802 858 791 858 767 c 0
 858 749 866 736 880 716 c 2
 1152 293 l 1
 1211 616 l 2
 1216 642 1218 663 1218 680 c 0
EndSplineSet
EndChar

StartChar: x
Encoding: 120 120 241
Width: 1160
VWidth: 1900
Flags: W
HStem: 0 97<25 111.7 322.72 447 540 597.983 991.024 1114> 802 97<-160 -50.1667 325.015 379 465 595.044 794.277 909>
LayerCount: 2
Fore
SplineSet
596 748 m 0
 596 784 559 802 509 802 c 2
 465 802 l 1
 442 899 l 1
 909 899 l 1
 932 802 l 1
 850 802 800 775 739 703 c 1
 584 517 l 1
 918 205 l 1
 1019 112 1044 97 1114 97 c 1
 1136 0 l 1
 540 0 l 1
 518 97 l 1
 531 97 l 2
 575 97 598 108 598 131 c 0
 598 153 587 163 566 182 c 2
 423 317 l 1
 335 205 l 2
 323 190 318 175 318 162 c 0
 318 123 365 97 423 97 c 2
 447 97 l 1
 469 0 l 1
 25 0 l 1
 3 97 l 1
 60 97 98 121 152 184 c 1
 331 403 l 1
 -16 728 l 2
 -79 787 -103 802 -160 802 c 1
 -183 899 l 1
 379 899 l 1
 402 802 l 1
 381 802 l 2
 345 802 325 792 325 776 c 0
 325 760 335 750 355 732 c 2
 494 600 l 1
 570 694 l 2
 588 716 596 732 596 748 c 0
EndSplineSet
EndChar

StartChar: y
Encoding: 121 121 242
Width: 1160
VWidth: 1900
Flags: W
HStem: -391 129<274 464.28> 802 97<-158 -50.248 289.013 358 524 673.75 856.157 928>
VStem: 64 309<-258.758 -107.36>
LayerCount: 2
Fore
SplineSet
373 -216 m 0
 373 -236 357 -262 387 -262 c 0
 440 -262 487 -209 514 -112 c 1
 539 -30 l 1
 -26 726 l 1
 -70 789 -88 802 -158 802 c 1
 -181 899 l 1
 358 899 l 1
 381 802 l 1
 347 802 l 2
 307 802 289 792 289 772 c 0
 289 751 300 733 317 711 c 2
 613 300 l 1
 690 648 l 2
 693 658 694 671 694 684 c 0
 694 768 647 802 545 802 c 2
 524 802 l 1
 501 899 l 1
 928 899 l 1
 951 802 l 1
 873 802 842 762 814 646 c 1
 647 -70 l 2
 596 -294 505 -391 345 -391 c 0
 203 -391 93 -321 69 -217 c 0
 66 -203 64 -190 64 -178 c 0
 64 -104 116 -51 196 -51 c 0
 288 -51 373 -116 373 -216 c 0
EndSplineSet
EndChar

StartChar: z
Encoding: 122 122 243
Width: 1020
VWidth: 1900
Flags: W
HStem: 0 95<406 697.379> 804 95<111.531 397>
VStem: -9 74<557 619.062> 764 93<298.647 361>
LayerCount: 2
Fore
SplineSet
732 899 m 1
 753 808 l 1
 406 95 l 1
 523 95 l 2
 652 95 681 106 715 167 c 0
 746 218 758 270 764 361 c 1
 857 361 l 1
 940 0 l 1
 66 0 l 1
 47 84 l 1
 397 804 l 1
 300 804 l 2
 167 804 136 794 104 750 c 0
 83 720 74 675 65 557 c 1
 -9 557 l 1
 -88 899 l 1
 732 899 l 1
EndSplineSet
EndChar

StartChar: CGJ
Encoding: 847 847 245
Width: 0
VWidth: 0
Flags: MW
LayerCount: 2
Fore
SplineSet
-124 1584 m 25
 -81 1397 l 25
 -204 1640 l 25
 204 1640 l 25
 71 1397 l 25
 124 1584 l 25
 -124 1584 l 25
EndSplineSet
Validated: 1
EndChar

StartChar: zeronojoin
Encoding: 8204 8204 246
Width: 0
VWidth: 0
Flags: MW
LayerCount: 2
Fore
SplineSet
-213 1582 m 1
 -213 1639 l 1
 -42 1639 l 9
 -42 1523 l 25
 -122 1582 l 17
 -213 1582 l 1
213 1582 m 1
 122 1582 l 9
 42 1522 l 25
 42 1637 l 17
 213 1637 l 1
 213 1582 l 1
EndSplineSet
Validated: 1
EndChar
